<?xml version="1.0" encoding="UTF-8" standalone="no"?>
<svg
   xmlns:dc="http://purl.org/dc/elements/1.1/"
   xmlns:cc="http://creativecommons.org/ns#"
   xmlns:rdf="http://www.w3.org/1999/02/22-rdf-syntax-ns#"
   xmlns:svg="http://www.w3.org/2000/svg"
   xmlns="http://www.w3.org/2000/svg"
   xmlns:sodipodi="http://sodipodi.sourceforge.net/DTD/sodipodi-0.dtd"
   xmlns:inkscape="http://www.inkscape.org/namespaces/inkscape"
   width="235.08675"
   height="238.20517"
   viewBox="0 0 235.08675 238.20517"
   version="1.1"
   id="svg25"
   sodipodi:docname="aitor.svg"
   inkscape:version="0.92.5 (2060ec1f9f, 2020-04-08)">
  <metadata
     id="metadata31">
    <rdf:RDF>
      <cc:Work
         rdf:about="">
        <dc:format>image/svg+xml</dc:format>
        <dc:type
           rdf:resource="http://purl.org/dc/dcmitype/StillImage" />
        <dc:title>peep-25</dc:title>
      </cc:Work>
    </rdf:RDF>
  </metadata>
  <defs
     id="defs29">
    <clipPath
       clipPathUnits="userSpaceOnUse"
       id="clipPath840">
      <rect
         style="fill:#c2c2c2;fill-opacity:0.34313725;stroke:#eceff1;stroke-opacity:1"
         id="rect842"
         width="137.03859"
         height="154.41193"
         x="49.266766"
         y="36.893673" />
    </clipPath>
  </defs>
  <sodipodi:namedview
     pagecolor="#ffffff"
     bordercolor="#666666"
     borderopacity="1"
     objecttolerance="10"
     gridtolerance="10"
     guidetolerance="10"
     inkscape:pageopacity="0"
     inkscape:pageshadow="2"
     inkscape:window-width="1848"
     inkscape:window-height="1016"
     id="namedview27"
     showgrid="false"
     inkscape:zoom="2.0602123"
     inkscape:cx="154.45314"
     inkscape:cy="111.51174"
     inkscape:window-x="1992"
     inkscape:window-y="229"
     inkscape:window-maximized="1"
     inkscape:current-layer="svg25"
     fit-margin-top="0"
     fit-margin-left="0"
     fit-margin-right="0"
     fit-margin-bottom="0" />
  <!-- Generator: Sketch 62 (91390) - https://sketch.com -->
  <title
     id="title2">peep-25</title>
  <desc
     id="desc4">Created with Sketch.</desc>
  <g
     id="Introduction"
     clip-path="url(#clipPath840)"
     transform="matrix(1.7154784,0,0,1.5542302,-84.516072,-59.127775)"
     style="fill:none;fill-rule:evenodd;stroke:none;stroke-width:1">
    <g
       id="variations"
       transform="translate(-846,-1082)">
      <g
         id="images"
         transform="translate(126,110)">
        <g
           id="a-person/bust"
           transform="translate(720,972)">
          <g
             id="body/Gaming"
             transform="translate(31.056338,135.05284)"
             style="fill-rule:evenodd">
            <path
               d="m 161.43953,82.735723 c 0,-1.710169 -2.36618,-4.74575 -2.37032,-6.294845 1.9893,-0.355702 3.65246,-3.051892 3.21176,-4.740369 -0.77641,-0.593683 -2.81151,-1.762457 -3.6532,-2.308163 -5.1281,0.155554 -3.17916,-6.981429 -3.75951,-10.609256 -0.58437,-3.549417 -1.01831,-7.260728 -1.87352,-10.830224 -1.51902,-2.856187 -2.23183,-6.058144 -3.68366,-8.89996 -0.64838,-0.941777 -1.69627,-1.805143 -2.01,-2.899304 -3.1762,-3.470372 -7.54859,-5.550481 -11.1469,-8.48973 1.39647,-0.447217 1.30331,-2.331405 1.21309,-3.541385 0.32493,-1.578576 -0.0222,-3.558505 -1.46133,-4.447867 -0.48634,-1.585127 -2.61212,-2.138442 -3.85522,-1.128611 -0.81654,-3.661221 -4.01112,-5.882512 -7.3576,-7.241072 0.003,-0.01078 0.006,-0.02135 0.009,-0.03213 -3.375,-1.3399611 -7.42027,-2.00797 -10.78771,-1.254731 1.77752,-19.8138259 -13.3921,-20.541153 -21.090855,-18.8760488 -3.937881,0.8516944 -9.846473,3.5032649 -11.188734,7.1894126 C 80.876894,0.41252281 78.702275,7.1241647 78.392685,9.264842 72.513741,5.9088107 65.698331,1.4834889 60.599176,8.239935 c -1.021056,1.1774325 -2.150915,2.052 -3.678803,2.456525 -4.770422,1.238301 -11.102112,1.279726 -13.813521,6.144587 -1.620634,3.013855 -0.163099,4.999702 -0.598521,8.014614 C 21.034458,39.941634 3.0891761,95.516827 7.1184718,121.37194 c 0.9692958,9.25271 5.7016902,25.63003 17.3824652,23.58817 5.957727,6.51891 105.955783,6.51891 116.267153,0 8.48767,2.22087 17.112,-1.21695 20.67144,-9.34929 4.52007,-11.15126 -0.27,-23.19421 -1.11888,-34.63355 -0.51553,-2.888069 -1.28278,-5.180636 -1.69288,-8.137352 -0.17089,-1.232062 0.41858,-3.281788 0,-4.417486 0.1975,-0.73927 2.81176,-3.97654 2.81176,-5.686709 z"
               id="ðŸŽ¨-Background"
               inkscape:connector-curvature="0"
               style="fill:#ffffff" />
            <path
               d="m 114.17125,3.6142168 c 0.2362,1.0117339 0.0205,2.1523914 0.06,3.1907554 0.0376,0.9922896 0.15465,1.9788728 0.32705,2.9565793 1.81309,-0.9540353 3.95577,-1.0766184 6.02197,-0.7695264 2.67274,0.3973385 5.76549,1.2765559 7.86021,3.0628889 0.51718,0.441299 0.94563,0.963757 1.30436,1.539686 0.43057,0.691116 0.70543,1.471844 1.38803,1.967038 1.05592,0.766144 2.36493,1.062669 3.38007,1.911663 1.035,0.865479 1.67747,2.159366 1.81331,3.494677 0.0725,0.710771 -0.0448,1.375256 -0.17957,2.068485 -0.12085,0.623695 -0.0615,0.87964 0.10267,1.480086 0.12887,0.471312 -0.11704,1.006239 -0.51803,1.2662 0.85965,0.590302 1.70768,1.198779 2.54092,1.831984 4.85472,3.68595 8.95986,8.280705 11.80563,13.687045 l 0.0688,0.134252 0.0796,0.16142 c 0.69352,1.425333 2.50805,5.592391 2.73349,6.529252 0.1612,0.489276 0.31733,0.980454 0.46247,1.474591 0.38326,1.309668 0.70829,2.635496 0.97769,3.972276 l 0.0721,0.364843 c 0.21866,1.122693 0.59493,2.452509 0.53429,3.649175 0.63021,3.267052 1.18859,6.547843 1.66521,9.842371 0.0623,0.431578 -0.10943,0.782208 -0.37605,1.014905 0.63739,0.102504 1.27077,0.228469 1.89718,0.355491 l 0.36389,0.07657 0.18211,0.04026 c 1.30465,0.294359 2.59225,0.723012 3.44675,1.819143 0.92134,1.185887 0.94014,2.709723 0.0148,3.903852 -0.78571,1.014481 -1.9331,1.49636 -3.13099,1.800704 -0.23641,0.05918 -0.47535,0.114129 -0.71408,0.162529 -0.16036,0.03382 -0.26599,-0.185777 -0.11409,-0.270317 l 0.25421,-0.140527 0.34682,-0.190149 c 0.90298,-0.497968 1.84017,-1.059954 2.33982,-1.958248 0.67838,-1.219491 0.14155,-2.348313 -1.02254,-2.967358 -0.97449,-0.518983 -2.17996,-0.651875 -3.26211,-0.829162 l -0.44689,-0.07386 c -1.13136,-0.180653 -2.28546,-0.298031 -3.42741,-0.16874 -0.99929,0.11413 -2.01126,0.454615 -2.81852,1.065206 l -0.0747,0.05878 -0.0772,0.06495 c -0.70787,0.613648 -1.72579,1.992124 -0.39076,2.389443 1.02042,0.301791 2.26378,0.226824 3.33625,0.285345 l 0.13889,0.0084 c 0.89788,0.06129 1.83612,0.06129 2.74436,0.16908 0.32535,0.03783 0.64669,0.09067 0.96148,0.164854 0.90211,0.213464 0.59155,1.413933 -0.20303,1.498473 -0.19436,0.02114 -0.39274,0.03149 -0.59155,0.03593 -0.51971,0.390998 -1.23802,0.568532 -1.8526,0.811374 -0.58733,0.232696 -1.17676,0.463068 -1.77042,0.689213 0.51126,0.02325 1.02253,0.06552 1.53169,0.128924 0.16457,0.01881 0.16669,0.240939 0,0.257847 -1.22557,0.124697 -2.45092,0.259961 -3.67205,0.430943 -1.89063,0.262286 -3.76901,0.613127 -5.60471,1.147632 -1.34186,0.392508 -2.66731,0.859732 -3.95286,1.405058 l -0.38891,0.167389 -0.16046,0.07007 c -1.16676,0.5059 -2.67614,1.097907 -3.34658,2.212508 -0.3507,0.581213 -0.50471,1.479452 -0.0103,2.035514 0.52867,0.598845 1.63619,0.530447 2.3767,0.5596 l 0.0592,0.0026 c 1.5676,0.07609 3.13711,0.08644 4.70683,0.0317 3.28943,-0.116243 6.58119,-0.475538 9.81148,-1.107687 0.59577,-0.116032 0.85352,0.77798 0.25352,0.917471 -3.81036,0.885617 -7.66245,1.37149 -11.57201,1.394109 l -0.4282,8.03e-4 c -1.52291,0.291267 -3.01648,0.725567 -4.49743,1.215827 l -0.29603,0.09877 c -0.87464,0.295679 -2.3683,0.589668 -2.88401,1.458106 -0.34204,0.576986 -0.22183,0.972422 0.11641,1.240837 0.59556,0.471311 1.86317,0.559867 2.48007,0.583327 2.47183,0.09278 4.94577,0.109691 7.41972,0.05685 1.23612,-0.02748 2.47204,-0.07165 3.70796,-0.135052 1.20845,-0.06341 2.49908,-0.243053 3.70331,-0.127022 0.51781,0.05072 0.69105,0.811585 0.12908,0.953401 -1.48513,0.376313 -3.1507,0.34341 -4.68504,0.391413 l -0.17644,0.0059 c -1.64789,0.05897 -3.29767,0.08454 -4.94556,0.08031 -1.41447,-0.0056 -2.82863,-0.03421 -4.24154,-0.08619 l -1.24919,-0.04955 -0.22123,-0.01059 c -0.66573,-0.03569 -1.34573,-0.112423 -1.93593,-0.386485 -0.54507,0.913033 -0.13753,2.136751 0.56599,2.859569 0.66971,0.689214 1.63542,1.027374 2.56056,1.238724 0.0868,0.01902 0.17345,0.03783 0.26007,0.05495 2.03239,0.414036 4.10282,0.378317 6.00423,1.312274 1.59908,0.786224 3.06338,2.096595 4.85471,2.407281 1.60141,0.27898 2.7655,-0.426717 3.61902,-1.732862 0.0467,-0.07186 0.0932,-0.143718 0.13753,-0.215789 0.67162,-1.082113 1.15543,-2.273917 1.86338,-3.335107 0.36127,-0.540846 0.76902,-1.060767 1.26761,-1.483468 0.22373,-0.19254 1.79134,-1.025049 2.03662,-1.274442 1.05422,-1.082325 0.12042,-3.358356 0.39507,-4.715225 0.32091,-1.578998 1.70915,-2.134638 2.54155,-3.358568 1.58218,-2.328869 -2.75725,-4.510215 -1.45986,-7.056986 0.0169,-0.03149 0.0378,-0.05474 0.0653,-0.06975 0.11409,-0.06129 0.29599,0.01501 0.28542,0.165065 -0.14387,1.897926 1.66479,3.20407 2.31761,4.848164 0.74345,1.870662 -0.44387,3.003499 -1.65634,4.25258 -1.55514,1.604148 -0.46077,3.400626 -0.80704,5.332368 -0.0452,0.253197 -0.11789,0.476383 -0.21232,0.676109 0.26577,0.164853 0.4707,0.437918 0.5157,0.819194 0.53324,4.522896 1.10641,9.031847 2.04232,13.492187 l 0.20026,0.94764 0.2681,1.26419 c 0.66708,3.16192 1.28976,6.33658 1.40812,9.56904 0.37162,2.7279 0.51909,5.47863 0.29895,8.2247 -0.66761,8.35912 -5.33895,17.10479 -13.82557,19.67037 -1.96458,0.59411 -4.04788,0.74818 -6.06338,0.33203 -0.69063,-0.1416 -1.65824,-0.45461 -2.52676,-0.92804 0.0518,0.55712 0.0928,1.11424 0.10986,1.67009 0.28619,0.31887 0.41562,0.80031 0.25262,1.21215 -0.69207,-0.22773 -1.32114,-0.58844 -1.88759,-1.08195 l -0.0938,-0.0835 c -0.33583,-1.24833 -0.43408,-2.61419 -0.48288,-3.92929 l -0.0128,-0.37422 c -0.0129,-0.36352 -0.0211,-0.72071 -0.034,-1.06943 -0.0716,-2.17057 -0.0209,-4.34537 0.0908,-6.51382 l 0.0824,-1.59632 c 0.18874,-3.72328 0.34227,-7.43777 0.23893,-11.17135 -0.11831,-4.29675 -0.48591,-8.57469 -0.94648,-12.84799 -0.23894,-2.20459 -0.50915,-4.40454 -0.78612,-6.60469 -0.22162,-1.77112 -0.59345,-3.677502 -0.59979,-5.503568 -1.42204,-0.304345 -2.81831,-0.887883 -3.69317,-2.081801 -0.92747,-1.265988 -1.06458,-2.884931 -0.24085,-4.182833 -0.79626,-1.090357 -0.14345,-2.117519 0.84106,-2.810748 -1.51268,-0.847726 -2.35563,-3.159898 -2.57958,-4.768063 -0.15232,-1.10346 -0.2007,-2.754105 0.27021,-3.994732 -0.67584,0.02346 -1.3519,0.09321 -2.02795,0.209449 -0.7819,0.137377 -1.54859,0.337949 -2.30514,0.587554 l -0.38297,0.126739 c -0.19325,0.06474 -0.4108,0.141071 -0.62689,0.230442 1.36711,2.261237 -0.38873,4.311547 -2.64085,4.896987 -0.42866,0.111804 -0.86598,0.190215 -1.30753,0.253409 -0.99507,0.137589 -2.01148,0.179647 -2.9981,0.27074 -1.88852,0.173095 -3.78782,0.420587 -5.68289,0.5009 -0.41641,0.01902 -0.68451,-0.175421 -0.81148,-0.446161 -0.004,-0.004 -0.006,-0.0063 -0.006,-0.01036 -0.0444,-0.07186 -0.0742,-0.148157 -0.0847,-0.228258 0.007,0.0063 0.015,0.01057 0.0211,0.01479 -0.0908,-0.507452 0.2136,-1.124383 0.8812,-1.198356 2.73592,-0.308783 5.50965,-0.323366 8.25402,-0.549511 l 0.17588,-0.01461 c 0.86143,-0.07438 1.87608,-0.211124 2.55813,-0.756817 0.6338,-0.507241 0.69063,-1.166865 0.43711,-1.762662 -0.004,0.01458 -0.008,0.03149 -0.0106,0.0465 -0.019,0.118145 -0.18148,0.11413 -0.2343,0.03149 -0.15845,-0.240728 -0.1988,-0.477652 -0.15845,-0.70591 -0.19035,-0.219593 -0.42042,-0.414247 -0.66972,-0.564306 -1.10514,-0.671882 -2.55845,-0.855757 -3.8157,-1.054638 -1.37514,-0.217479 -2.76106,-0.317025 -4.14909,-0.382332 -2.73169,-0.129135 -5.47204,0.09299 -8.15915,0.583115 -0.11218,0.01923 -0.15845,-0.137166 -0.0486,-0.173096 1.04768,-0.346826 2.1188,-0.638278 3.2026,-0.868649 -0.0253,-0.0044 -0.0505,-0.0085 -0.0758,-0.01501 -0.0951,-0.02325 -0.16289,-0.13928 -0.13099,-0.232274 0.004,-0.01501 0.0106,-0.02959 0.0169,-0.04227 -0.46077,-0.211351 -0.65281,-0.921488 -0.0951,-1.208924 1.73852,-0.898239 3.77936,-1.304243 5.68732,-1.674106 1.83169,-0.352955 3.68218,-0.600234 5.53521,-0.819827 3.1331,-0.36775 6.54929,-0.359296 9.56387,-1.348627 l 0.12397,-0.04159 c 1.22768,-0.423609 2.69324,-1.281774 2.77906,-2.731117 0.12655,-2.191914 -3.12908,-1.621057 -4.48542,-1.568219 -3.71176,0.141604 -7.41951,0.399452 -11.11458,0.79679 -0.75444,0.08031 -1.50866,0.162529 -2.26268,0.24728 -1.15563,0.128712 -2.31337,0.264188 -3.4669,0.407695 -0.64436,0.08052 -1.30352,0.186199 -1.9669,0.287648 -0.20704,0.05072 -0.40986,0.08665 -0.61267,0.105675 -0.015,0.0019 -0.0275,-0.0021 -0.038,-0.0085 -0.9655,0.135264 -1.93521,0.238614 -2.87747,0.209236 -0.10796,-0.0021 -0.17535,-0.171405 -0.0613,-0.222129 1.2169,-0.515483 2.57112,-0.819828 3.92936,-1.058865 0.84106,-0.627499 1.85704,-1.130512 2.69176,-1.616618 1.14507,-0.667867 2.45705,-1.650646 3.75634,-2.050098 0.585,-0.460744 1.24838,-0.830607 1.85915,-1.082113 -0.17535,-0.272642 -0.23873,-0.651171 -0.20725,-0.970098 0.11641,-1.143405 1.0312,-1.781895 2.08754,-2.005926 0.32746,-0.06742 0.70563,-0.118145 1.10915,-0.137166 0.008,-0.213464 0.10331,-0.422701 0.31458,-0.5791 l 0.0624,-0.04733 0.0443,-0.03532 c 0.70912,-0.576005 2.11676,-2.197771 0.42151,-2.31617 -0.89979,-0.06362 -1.66056,0.596008 -2.37676,1.041957 -1.48733,0.927828 -2.92585,0.974114 -4.62444,0.743742 l -0.76358,-0.109609 -0.12695,-0.01712 c -1.22807,-0.161186 -2.47385,-0.183413 -3.15947,1.069355 -0.73542,1.340172 -0.99296,2.561777 -2.47627,3.29939 -1.41739,0.703796 -2.99133,0.843287 -4.29274,1.811272 -1.39458,1.035405 -2.44247,2.489495 -3.5831,3.778731 -2.5162,2.840548 -5.395776,5.349488 -8.361973,7.708157 l -0.527651,0.418288 c -2.731665,2.159605 -5.55135,4.285921 -8.609673,5.949696 -0.02113,0.01036 -0.04247,0.01479 -0.06127,0.01479 -0.08239,-0.0085 -0.143873,-0.114129 -0.06972,-0.185988 3.572535,-3.472486 7.751408,-6.287672 11.420915,-9.667163 1.626761,-1.498474 3.175353,-3.075358 4.664792,-4.710998 1.30141,-1.435068 2.45493,-3.047671 3.97204,-4.269276 0.73712,-0.594106 1.53381,-1.048297 2.42514,-1.365323 0.83261,-0.298215 1.76641,-0.44616 2.53331,-0.902677 1.50212,-0.891687 1.35634,-3.00519 2.85846,-3.964931 1.28792,-0.823047 2.85691,-0.522319 4.28497,-0.326989 l 0.17066,0.02286 c 0.92535,0.122583 1.88239,0.226144 2.76549,-0.139492 0.87444,-0.361409 1.57796,-1.03773 2.45895,-1.397025 1.22767,-0.505127 2.96831,-0.384658 3.59809,0.965871 0.60191,1.289237 -0.21972,2.45589 -1.17887,3.311859 1.30754,0.236712 2.45493,0.86865 2.55211,2.157886 0.95916,-0.03191 1.9162,-0.06573 2.87514,-0.09933 3.34036,-0.116243 6.69719,-0.340486 10.03965,-0.281096 -0.0763,-0.340486 -0.11007,-0.691327 -0.11429,-1.048298 -0.002,-0.198669 0.007,-0.397338 0.0211,-0.600234 0.0254,-0.346826 0.25352,-0.556063 0.59176,-0.591993 l 0.7549,-0.08057 0.25263,-0.02504 c 1.41432,-0.133815 2.99582,-0.161876 4.07346,0.773478 0.57887,0.505339 1.04577,1.667765 0.76267,2.443421 0.65895,0.226145 1.28662,0.515483 1.85916,0.881331 1.13451,-0.380642 2.32606,-0.338161 3.46669,0.05897 l 0.1355,0.04844 c 0.81092,0.297822 1.96031,0.861964 2.40098,1.666666 -1.06965,-7.253119 -2.51113,-14.444313 -4.32317,-21.548642 -1.15669,-2.837166 -2.61824,-5.549002 -4.39056,-8.051812 -4.46409,-6.306693 -10.89529,-10.643601 -16.67113,-15.629354 -0.50966,0.561082 -1.05862,1.094979 -1.57202,1.608771 l -0.21763,0.218986 c -1.04577,1.059499 -2.13655,2.073347 -3.25141,3.059296 -2.33007,2.060665 -4.78267,3.962606 -7.21774,5.894982 -4.9088,3.89582 -9.3469,8.032579 -13.03944,13.118724 -0.0663,0.09173 -0.25035,0.03825 -0.19901,-0.08369 2.53267,-6.022849 7.78309,-10.601753 12.55267,-14.850528 2.50817,-2.234184 5.07507,-4.414473 7.48669,-6.754121 1.12427,-1.090763 2.21344,-2.219163 3.24091,-3.401991 l 0.25557,-0.296851 c 0.67183,-0.786646 2.24493,-3.18843 3.28458,-1.455569 0.21782,0.362466 0.20831,0.826168 0,1.189057 -0.29535,0.515694 -0.67035,1.007506 -1.08042,1.479874 1.45774,0.793198 2.88549,1.630779 4.28197,2.517394 -0.0803,-0.427139 -0.0602,-0.899296 0.0144,-1.371664 l 0.0244,-0.150046 0.10171,-0.58585 c 0.1459,-0.863635 0.22091,-1.666559 -0.32686,-2.508965 -0.68493,-1.053792 -1.97641,-1.382442 -3.00528,-1.991342 -1.18521,-0.701683 -1.80423,-1.640501 -2.43887,-2.832094 -1.21541,-2.281095 -3.96122,-3.195787 -6.32123,-3.92964 l -0.29694,-0.09214 c -2.18071,-0.676109 -4.53972,-1.0379412 -6.72,-0.38825 0.2045,0.952344 0.47218,1.891162 0.80662,2.805675 0.35598,0.973479 1.16915,2.055804 1.08591,3.107272 -0.0575,0.727679 -0.93,1.505448 -1.65401,0.949385 -1.02549,-0.787068 -1.23043,-2.068908 -1.50528,-3.29009 -0.26578,-1.181025 -0.43543,-2.390794 -0.50768,-3.599084 -0.0695,-1.1644739 -0.0152,-2.328205 0.12835,-3.4847496 l 0.11009,-0.8493727 0.0267,-0.1972588 c 0.11982,-0.8585962 0.29801,-1.7597575 0.78082,-2.4328223 0.0465,-0.064673 0.16014,-0.066153 0.18126,0.023671 z M 84.418648,-1.2136579 c 0.01542,0.068689 0.0262,0.1365323 0.03591,0.2043757 0.07056,0.28954991 0.09697,0.56789825 0.08831,0.84751469 0.0042,0.10081409 -0.0032,0.20183953 -0.02197,0.30180821 -0.03782,0.32907241 -0.117042,0.66681018 -0.224155,1.0360391 -0.227957,0.7855891 -0.489084,1.5616674 -0.780845,2.3261214 -0.57676,1.5117886 -1.257676,2.9542544 -2.099366,4.336908 -1.520493,2.4975268 -3.45338,4.5706618 -5.732113,6.3627008 0.432465,0.35697 0.855212,0.728313 1.278803,1.092892 2.047395,1.762662 4.039437,3.605213 5.968944,5.496376 3.426549,3.35899 6.784225,6.780329 10.063099,10.283671 1.617253,1.727789 3.204507,3.478192 4.783098,5.240431 l 0.05175,0.05929 0.05595,0.06669 c 0.560532,0.678154 1.681079,2.295506 2.517077,2.035708 0.42212,-0.131459 0.86662,-0.761495 1.15437,-1.062035 l 0.53002,-0.552892 c 0.1762,-0.184826 0.35128,-0.370709 0.52336,-0.559233 3.08366,-3.379914 6.00148,-6.889597 8.7412,-10.558004 1.3369,-1.789926 2.62922,-3.613456 3.87465,-5.468689 0.64014,-0.953824 1.26845,-1.916102 1.88408,-2.886411 0.59535,-0.938395 1.07683,-1.946959 1.95423,-2.647373 0.64394,-0.514004 1.53612,-0.04269 1.37387,0.79996 -0.25563,1.327069 -1.1738,2.449339 -1.89676,3.570975 -0.72613,1.127131 -1.46937,2.243272 -2.2293,3.347577 -1.4626,2.126184 -2.98859,4.207562 -4.56908,6.247092 -1.36106,1.756427 -2.78105,3.467745 -4.23948,5.144373 l -0.39869,0.45641 c -1.56866,1.78908 -3.10838,3.688274 -4.84183,5.321166 -1.55218,1.462333 -3.247393,1.036251 -4.661407,-0.384869 C 95.814,37.448229 94.153648,35.505074 92.432873,33.642866 88.994282,29.921411 85.519775,26.228275 82.009352,22.574452 L 80.855377,21.37191 C 79.50984,19.966887 78.169798,18.553043 76.864775,17.113371 l -0.168407,-0.187707 c -1.488263,-1.674846 -3.001648,-3.773005 -5.117509,-4.624527 -0.152958,-0.0615 -0.09676,-0.278771 0.06845,-0.248337 1.354436,0.25045 2.485141,0.933112 3.537253,1.748712 0.945634,-1.565471 1.789437,-3.215694 2.525071,-4.9035378 L 77.237655,8.6929592 C 73.860795,7.2332468 70.054689,5.7614254 66.429211,5.9980368 64.968085,6.0931444 63.409141,6.6468822 62.400338,7.7442129 61.486817,8.7381934 61.03069,10.078577 60.19238,11.13723 c -0.960211,1.212517 -2.212605,1.758224 -3.749577,1.807468 l -0.747362,0.02267 c -0.859594,0.02791 -1.683929,0.07302 -2.555807,0.26223 -2.362395,0.512314 -4.853028,1.343554 -6.834296,2.763194 -0.718732,0.514849 -1.460704,1.222873 -1.808239,2.002967 -0.344578,0.772908 -0.443662,1.677276 -0.477254,2.511475 -0.01627,0.406638 0.105634,0.943679 0.0038,1.332775 0.01162,-0.04459 0.0169,-0.02092 0.01838,0.02557 0.31669,0.249816 0.532394,0.665119 0.555845,1.078943 1.97493,-1.029699 4.019366,-1.932164 6.103521,-2.745652 2.320564,-0.905636 4.713169,-1.631413 7.106197,-2.318724 2.342113,-0.672305 4.793662,-0.950442 7.181198,-1.429784 0.304014,-0.06108 0.409648,0.349573 0.126338,0.45863 -2.509437,0.96418 -4.937536,2.107162 -7.467888,3.014278 -2.529084,0.906904 -5.039366,1.888414 -7.49514,2.979405 -4.746761,2.109487 -9.331902,4.793636 -13.07155,8.435413 -3.652394,3.557025 -6.469648,7.878082 -9.089788,12.222598 -2.638733,4.375163 -4.993733,8.909683 -7.092677,13.567633 -4.152253,9.214661 -7.265915,18.90317 -9.315845,28.799436 -1.9949996,9.630387 -3.1096474,19.604645 -2.7384503,29.447865 0.1761972,4.67507 0.7470423,9.35373 2.0746483,13.84999 0.634225,2.14817 1.428169,4.24709 2.431267,6.2509 1.057817,2.11266 2.483028,3.99452 3.448944,6.14311 0.07944,0.17669 0.109859,0.3464 0.105422,0.50407 4.119719,3.57076 10.568029,1.16454 15.02662,-0.96735 10.259155,-4.90756 20.328169,-10.27797 29.898592,-16.44094 9.445774,-6.08287 18.397183,-12.87145 27.137324,-19.91765 -0.676057,-0.69746 -1.272043,-1.47945 -1.795775,-2.18748 -1.08169,-1.46254 -1.89507,-3.119533 -2.45493,-4.84859 -0.654929,-2.024735 -0.857957,-4.191076 -0.671831,-6.306481 l 0.05279,-0.598314 c 0.178063,-1.997681 0.383761,-4.024897 0.821853,-5.977005 0.004,-0.02515 0.02324,-0.03593 0.04437,-0.03593 0.02092,0 0.04225,0.01289 0.05071,0.03593 1.180986,3.781268 1.276056,7.845323 2.602605,11.577981 0.534507,1.500587 1.362676,2.95045 2.355845,4.195309 0.428874,0.53873 0.931691,1.00602 1.44486,1.46254 0.03401,-0.23269 0.08028,-0.46285 0.15,-0.689 l 0.05532,-0.17905 c 0.06875,-0.2173 0.153831,-0.45904 0.272141,-0.6729 -0.166901,-0.0484 -0.329366,-0.10124 -0.489929,-0.16063 -0.126972,-0.0463 -0.154437,-0.25129 0,-0.28511 0.420422,-0.0972 0.853521,-0.145837 1.29507,-0.166972 0.06972,-0.01057 0.137113,-0.01268 0.204718,-0.0085 0.826268,-0.02557 1.667113,0.03382 2.463592,0.0465 1.379577,0.0211 2.75493,0.0463 4.132183,0.10778 2.636835,0.11392 5.613385,0.61926 8.207965,0.006 2.35774,-0.557772 4.68168,-2.13043 6.57232,-3.609882 1.65211,-1.293252 2.92627,-2.829769 4.29718,-4.362058 -0.0984,0.0155 -0.19615,0.03006 -0.29347,0.04362 l -0.88407,0.121195 c -1.11597,0.149046 -2.44073,0.265964 -3.32647,-0.270487 -0.33824,-0.205009 -0.24085,-0.66998 0.10352,-0.797002 0.90401,-0.331608 2.02606,-0.05685 2.98922,-0.10335 0.75634,-0.03614 1.52134,-0.116242 2.26712,-0.272642 0.24507,-0.05072 0.48781,-0.109902 0.72866,-0.179647 1.7662,-0.509355 3.84106,-2.301605 2.43824,-4.258709 -0.0528,-0.07397 0.006,-0.141605 0.078,-0.154497 0.0319,-0.0061 0.0657,0 0.0932,0.02346 1.59697,1.322842 0.76668,3.694192 -0.74388,4.710998 -0.5195,0.350841 -1.10683,0.596008 -1.71528,0.775656 0.1162,0.213252 0.13711,0.475538 -0.002,0.72472 -1.18289,2.109487 -3.18571,3.962818 -5.06197,5.453049 -1.92656,1.529964 -4.14909,2.973506 -6.53853,3.650036 -2.75936,0.77756 -5.79084,0.19233 -8.59014,-0.0549 -1.517112,-0.13336 -3.029577,-0.29187 -4.544366,-0.46729 -0.405845,-0.0463 -0.826056,-0.0822 -1.253028,-0.12237 0.40162,0.52837 0.720634,1.13706 0.929789,1.50269 0.680282,1.18758 0.05282,2.75178 -1.265493,3.11509 -0.137535,0.0383 -0.279085,0.0594 -0.41831,0.0634 -0.355141,0.71225 -1.200211,1.23661 -1.981901,0.96798 -0.33993,-0.11603 -0.667606,-0.27454 -0.982183,-0.46475 -4.916409,4.32 -10.092465,8.37348 -15.416198,12.17377 -9.872535,7.04642 -20.220633,13.48204 -30.950704,19.13988 -2.41688,1.27445 -4.852242,2.51465 -7.308242,3.70659 l -2.113919,1.01934 c -2.339824,1.1265 -4.734485,2.24684 -7.219388,2.94588 -0.484437,0.13632 -0.99169,0.24643 -1.511409,0.33076 -0.0067,0.0466 -0.0084,0.0911 -0.0054,0.13376 -0.467229,0.0623 -0.874935,0.0718 -1.223079,0.0285 l -0.07928,-0.0109 c -3.045845,0.21304 -6.303803,-0.53091 -8.26331,-2.75643 -0.32662,0.22931 -0.802817,0.25468 -1.223028,-0.0752 -2.11331,-1.65889 -3.373099,-4.18453 -4.478662,-6.59582 -1.120986,-2.44596 -1.9996479,-4.99506 -2.6452817,-7.6065 C 6.8768398,123.36607 6.3653609,117.98594 6.3384063,112.62081 6.2409243,91.946724 11.416558,71.0911 20.406417,52.530528 c 2.28,-4.707405 4.79324,-9.326888 7.58324,-13.751929 2.782394,-4.412995 6.013309,-8.514247 10.150986,-11.732689 1.189859,-0.925292 2.427676,-1.771327 3.704366,-2.550787 -0.856902,-0.424814 -1.197254,-1.505448 -1.257254,-2.465401 -0.133098,-2.131891 0.120845,-4.587992 1.368592,-6.386795 1.750352,-2.523522 4.883662,-4.079483 7.789014,-4.836117 1.51669,-0.394802 3.085563,-0.624963 4.65,-0.70274 0.80662,-0.04037 1.644718,0.09236 2.44162,0.0053 0.703098,-0.07651 1.137887,-0.4962504 1.542253,-1.048086 1.035845,-1.4145676 1.710211,-2.8982466 3.196057,-3.9351312 1.524507,-1.063726 3.50007,-1.4707867 5.336619,-1.3604618 2.139507,0.1287123 4.091409,0.972 5.975704,1.9410411 1.700705,0.8745675 3.35155,1.8433972 4.960352,2.8769002 0.29493,-0.6913268 0.572747,-1.3879374 0.831127,-2.0868728 0.501127,-1.3551781 0.936972,-2.7534716 1.290634,-4.1543014 0.358521,-1.42048531 0.306127,-3.29643051 1.389085,-4.3645949 0.941619,-0.9284618 2.754929,-0.5638826 3.060211,0.8084149 z m 72.988622,94.7830559 -0.008,0.0016 c -2.19042,1.298536 -3.23788,4.543608 -4.26887,5.961769 0.0843,0.475543 0.14345,0.959533 0.25965,1.409713 0.26641,1.03371 0.61479,2.05876 1.01852,3.04365 0.70986,1.73942 1.59929,3.3964 2.42113,5.08276 0.66126,1.35624 1.30922,2.73741 1.81331,4.16508 -0.0547,0.0547 -0.10522,0.11963 -0.1481,0.20015 -0.54676,1.02442 -0.97479,0.823 -1.98359,0.59939 l -6.4e-4,-0.002 c -0.57697,-1.76668 -1.40915,-3.42578 -2.15704,-5.12102 l -0.18189,-0.41389 -0.17987,-0.41421 c -0.6249,-1.45081 -1.19515,-2.91504 -1.52718,-4.47024 -0.21127,-0.99123 -0.29789,-2.01015 -0.31036,-3.02252 -0.54718,0.45039 -1.20443,0.77375 -2.03239,0.89824 -1.77201,0.26777 -3.37691,-0.84241 -4.8207,-1.733118 l -0.32541,-0.199273 c -0.90386,-0.550122 -1.80004,-1.058377 -2.84213,-1.318179 -1.1831,-0.295679 -2.40634,-0.295679 -3.60824,-0.445949 -0.14387,-0.01902 -0.28944,-0.03804 -0.43542,-0.06108 0.46901,1.553425 0.68662,3.239999 0.9657,4.795539 0.38873,2.18114 0.70564,4.38129 1.00986,6.57511 0.59155,4.25237 1.00352,8.53834 1.21247,12.82685 0.20246,4.15215 0.10049,8.28877 -0.0497,12.43963 l -0.0749,2.02423 c -0.06,1.64811 -0.10945,3.29802 -0.0804,4.94655 0.0803,0.006 0.16056,0.019 0.24105,0.038 0.8324,0.19444 1.4005,1.04386 2.16127,1.42239 1.60542,0.7989 3.54507,0.78834 5.25423,0.38466 3.88732,-0.9217 7.11971,-3.63544 9.24908,-6.95131 2.55655,-3.97762 3.49458,-8.65924 3.46479,-13.34276 -0.0352,-5.27094 -0.88846,-10.31068 -2.07634,-15.39937 l -0.0763,-0.32488 c -0.99976,-4.23935 -1.62598,-13.555183 -1.88398,-13.595474 z M 48.553521,82.934109 c 0.02218,1.417738 -0.554155,2.934176 -0.870845,4.311757 -0.340986,1.484313 -0.681127,2.968626 -1.025915,4.452305 L 46.346647,93.0274 c -0.258196,1.107731 -0.512774,2.216263 -0.740943,3.330834 -0.187605,0.916204 -0.266197,2.123648 -0.573591,3.133691 3.656408,-1.479452 7.318521,-2.943898 10.974507,-4.418489 4.504225,-1.817402 9.029577,-3.584501 13.544366,-5.372525 4.497887,-1.779569 8.970423,-3.804305 13.559366,-5.326027 1.092254,-0.363523 1.83169,1.380117 0.785704,1.863898 -4.660563,2.162325 -9.591549,3.855241 -14.366197,5.749151 l -6.906674,2.742924 c -6.331476,2.513195 -12.667269,5.014251 -19.034875,7.429153 -4.337324,1.64452 -8.657747,3.33743 -13.022535,4.8991 -2.080986,0.74417 -4.180775,1.44796 -6.251409,2.21918 -1.734507,0.64673 -3.610563,1.60647 -4.252817,3.47037 -0.0338,0.0972 -0.166901,0.0573 -0.152112,-0.0423 0.259859,-1.80493 1.599507,-2.93354 3.109859,-3.7874 2.004654,-1.13614 4.20647,-1.96289 6.322563,-2.87404 l 0.288,-0.12481 c 4.321056,-1.88524 8.676972,-3.69419 13.045775,-5.47291 -0.04331,-0.10568 -0.06887,-0.21896 -0.07078,-0.33732 l -0.01246,0.003 c -0.07944,-0.807988 0.290916,-1.528481 0.557324,-2.280042 l 0.764155,-2.156619 c 0.509155,-1.436125 0.965916,-2.890004 1.436409,-4.339021 0.492042,-1.514536 0.988732,-3.027593 1.484577,-4.540861 0.42,-1.28184 0.702254,-2.809691 1.420775,-3.955421 0.08662,-0.138012 0.325352,-0.06045 0.297887,0.09278 z M 132.699,79.746397 132.6445,80.02167 c -0.0635,0.321885 -0.12302,0.646214 -0.1378,0.971694 -0.0425,0.851741 0.0547,1.703272 0.28098,2.525636 0.22183,0.813487 0.53218,1.599921 0.97395,2.320626 0.41831,0.678223 1.02464,1.211037 1.41126,1.906379 0.0399,0.07376 0.0653,0.147734 0.0759,0.219805 0.14789,-0.06129 0.29387,-0.116243 0.43542,-0.160838 1.17887,-0.373878 2.38289,-0.686888 3.60401,-0.921276 l -0.19366,-0.01312 -0.12504,-0.01 c -2.0403,-0.17272 -3.96531,-0.840475 -3.54939,-3.223464 0.23526,-1.347028 1.29218,-2.250347 2.42496,-2.890587 l 0.14194,-0.07867 c 0.061,-0.03403 0.12465,-0.06784 0.1857,-0.09722 -1.02465,-0.173307 -1.7681,-0.386771 -3.02514,-0.598121 -0.8157,-0.137378 -1.63331,-0.213464 -2.44859,-0.226145 z M 39.489718,50.39354 c 2.006198,4.054966 3.515493,8.366512 4.654226,12.740829 0.549746,2.112461 1.016308,4.245725 1.391439,6.396014 l 0.123209,0.718017 0.07002,0.389699 c 0.350426,1.916652 0.795504,3.992989 0.280822,5.86312 -0.167958,0.611014 -1.182043,0.852798 -1.465986,0.191906 -0.856479,-1.995147 -0.736057,-4.288509 -0.984296,-6.42357 C 43.298236,68.029242 42.94225,65.799497 42.498589,63.588139 41.646418,59.339069 40.45027,55.189441 39.117001,51.071031 L 38.96831,50.613555 c -0.11324,-0.304978 0.379859,-0.505972 0.521408,-0.220015 z m 77.112592,18.140512 c -0.59789,0.281308 -1.19577,0.539155 -1.72394,0.796791 -0.0399,0.02135 -0.0822,0.04016 -0.12465,0.0615 0.59789,-0.101448 1.19789,-0.196556 1.79789,-0.285534 -0.006,-0.194443 0.0129,-0.38656 0.0507,-0.57276 z m 23.39451,-2.030865 c -0.0898,0.02917 -0.16924,0.07635 -0.23826,0.141004 l -0.0336,0.03378 c -0.0824,0.07672 -0.1407,0.16739 -0.17471,0.272008 -0.0528,0.101025 -0.0773,0.20966 -0.0729,0.325902 l 0.0302,0.224666 c 0.0401,0.143295 0.11261,0.267358 0.21739,0.373033 l 0.17092,0.132094 c 0.11535,0.06694 0.23863,0.104763 0.36984,0.113597 l 0.0567,0.002 0.17109,7.6e-5 c 0.0978,-0.0033 0.18979,-0.02752 0.27616,-0.07299 0.0898,-0.02917 0.16924,-0.07619 0.23826,-0.140937 l 0.0336,-0.03385 c 0.0826,-0.07672 0.14071,-0.16739 0.17472,-0.272008 0.0455,-0.08641 0.0696,-0.178569 0.073,-0.276339 l -8e-5,-0.04935 -0.0302,-0.224877 c -0.0351,-0.125383 -0.095,-0.236203 -0.17961,-0.332602 l -0.0378,-0.04043 -0.17091,-0.132305 c -0.11535,-0.06676 -0.23863,-0.104556 -0.36983,-0.113245 l -0.0567,-0.0019 h -0.12169 c -0.11641,-0.0044 -0.225,0.01987 -0.32556,0.0727 z m -5.49698,-0.285957 c -0.44894,0.08243 -0.70352,0.626865 -0.59007,1.039633 0.12554,0.45713 0.55973,0.66031 0.99584,0.597855 l 0.0436,-0.0071 c 0.51085,-0.09405 1.01134,-0.0577 1.49789,0.121737 0.42803,0.15809 0.92598,-0.1769 1.03943,-0.590512 0.12972,-0.472157 -0.16035,-0.881331 -0.59028,-1.039844 -0.77112,-0.2849 -1.59824,-0.268837 -2.39641,-0.121738 z M 45.490458,36.193907 c 1.022262,1.49861 1.660484,3.490869 2.290147,5.203491 l 0.06295,0.170301 c 0.669296,1.799859 1.31493,3.613879 1.917043,5.437621 1.201901,3.640509 2.768239,7.450098 3.057676,11.295828 0.05345,0.709714 -1.032254,0.994191 -1.347043,0.365213 -0.904436,-1.808525 -1.390774,-3.693769 -1.925915,-5.632697 -0.510423,-1.849103 -1.042183,-3.691867 -1.574155,-5.534841 -0.531761,-1.841918 -1.046197,-3.689331 -1.56993,-5.533574 -0.509366,-1.794152 -1.218591,-3.789088 -1.335211,-5.656368 -0.01521,-0.24263 0.306972,-0.287436 0.424437,-0.114974 z M 68.562845,24.128912 c 1.364578,0.947483 2.482183,2.333307 3.636972,3.51856 1.171479,1.202583 2.327324,2.416367 3.472394,3.644313 1.913451,2.052211 3.792254,4.138027 5.732747,6.165299 3.867042,4.039961 8.24176,7.757613 13.578803,9.656384 1.291478,0.459475 0.725704,2.532822 -0.568733,2.063624 -5.458943,-1.97993 -9.981127,-5.640728 -13.97007,-9.782137 -2.065986,-2.144783 -3.96169,-4.436665 -5.810071,-6.769339 -0.864964,-1.091624 -1.723474,-2.186624 -2.569782,-3.292216 l -0.506274,-0.664684 c -1.064155,-1.404634 -2.366197,-2.804618 -3.14493,-4.390591 -0.04373,-0.08919 0.05218,-0.216211 0.148944,-0.149213 z"
               id="ðŸ–-Ink"
               inkscape:connector-curvature="0"
               style="fill:#000000" />
          </g>
          <g
             id="head/Mohawk-2"
             transform="translate(78.591549,38.043053)"
             style="fill-rule:evenodd">
            <path
               d="M 91.85512,77.51346 C 88.285753,61.325929 87.590261,43.548834 78.169204,29.414571 74.052232,23.65126 67.437444,16.136066 59.709908,18.504669 60.028289,15.091996 60.328922,11.677843 60.606951,8.2615773 60.766035,6.3074325 61.497232,3.7038082 59.844063,2.201319 57.114697,-0.00348728 52.596317,3.3702975 50.48681,5.2553307 45.916669,9.6332407 44.112021,13.885397 38.091951,16.809217 35.678852,15.088826 33.327021,13.283683 30.877796,11.609789 28.382092,9.9041918 24.812091,7.1336008 22.222162,10.282298 c -2.195071,2.668931 -0.792887,6.875859 0.07753,9.812359 0.445141,1.501856 0.887535,3.141089 1.506127,4.685636 0.05218,1.174051 0.143028,2.345989 0.276338,3.514545 -4.459437,0.793831 -9.049014,1.461698 -13.309648,3.019561 -2.323521,1.259014 -2.1185915,4.118372 -0.470282,5.829887 2.466761,2.389738 5.58824,4.258497 8.995986,5.512861 -0.618803,2.142246 -2.102112,3.958802 -3.967183,5.146591 -0.625563,0.396704 -0.976479,0.978552 -1.10345,1.599287 -0.955986,0.475327 -1.979578,0.818137 -3.060846,1.040689 -1.3335207,0.27539 -2.1040137,1.849949 -1.7602812,3.101354 0.9684512,3.041331 4.3812672,1.302975 6.5983102,1.088243 0.06676,2.123859 0.101408,4.336908 1.065422,6.304368 -5.152605,1.352642 -9.6162675,6.284924 -8.4249294,11.842168 1.0821126,5.312501 6.8144364,6.935883 11.3520424,8.143116 0.343732,0.202473 0.342676,0.401354 0.451901,0.902888 0.748733,3.443953 0.11831,7.23283 -1.062042,10.502419 -0.321761,0.891264 0.151056,2.00656 0.865775,2.541065 3.695281,2.353808 4.920422,-4.814137 9.132887,-0.251719 -0.314366,-0.04713 -1.096479,-0.43834 -1.056338,0.128501 5.46507,9.594463 21.601268,10.184123 31.487958,10.419573 1.186479,0.57741 2.552535,0.25002 3.909718,-0.11857 1.294859,-0.0702 2.588239,-0.16718 3.878451,-0.29885 2.355422,-0.42524 6.498591,0.0788 6.646479,-3.24 6.08345,-2.400728 11.314014,-6.548055 14.881056,-12.043162 2.645915,-3.646427 3.690634,-7.506106 2.721972,-11.951648 z"
               id="path9"
               inkscape:connector-curvature="0"
               style="fill:#ffffff" />
            <path
               d="m 54.96207,0.98861213 0.355077,-0.1551355 c 1.224497,-0.53038862 2.561477,-1.03902184 3.901966,-0.74902105 1.543943,0.33393346 2.436549,1.66227002 2.818732,3.11044222 0.442394,1.6751625 0.640141,3.4583249 0.761408,5.1825206 0.125282,1.7856986 0.0769,3.5675926 -0.05746,5.3505436 -0.112183,1.491077 -0.344155,3.219077 -0.898944,4.66429 0.02366,-0.02113 0.05197,-0.03677 0.08578,-0.04037 2.183662,-0.22382 4.195986,-0.09342 6.281408,0.610168 1.942606,0.655398 3.825845,1.574983 5.516409,2.736775 3.651549,2.509151 6.476831,6.298662 8.445211,10.221957 3.998624,7.970667 4.842223,16.987412 5.962786,25.703933 l 0.03405,0.264044 c 0.602858,4.661057 1.403943,9.251633 2.688759,13.772886 l 0.221855,0.770814 c 1.179243,4.136424 1.883045,8.160245 0.942696,12.442562 -1.818381,8.280705 -8.228451,14.531178 -15.643521,18.139139 -3.785916,1.84213 -7.882395,3.20133 -12.01986,3.98501 -4.243732,0.80398 -8.83669,0.93861 -12.706056,-1.25753 -1.91831,-1.08888 -0.229436,-3.86983 1.709366,-2.92572 4.000986,1.94843 8.535423,1.30699 12.688521,0.23565 4.130916,-1.06542 8.182395,-2.55713 11.842606,-4.772713 6.281197,-3.801769 11.566268,-10.365253 11.739507,-17.98739 0.0974,-4.288931 -1.734718,-8.384266 -2.618028,-12.525041 -0.778521,-3.648946 -1.261626,-7.35131 -1.717586,-11.053184 L 84.958733,53.963428 C 83.977807,46.077411 82.749545,37.959081 78.701366,30.989364 75.127775,24.837168 68.972704,19.945043 61.888901,18.643759 c -0.04246,-0.0076 -0.07056,-0.02811 -0.08746,-0.05411 -0.216761,1.167288 -1.502747,2.255742 -2.325634,2.927413 -1.165986,0.952345 -2.578733,1.642403 -4.115493,1.611546 -2.96324,-0.05939 -5.507747,-2.358246 -7.538873,-4.283436 -0.229015,-0.216846 0.01901,-0.519499 0.279507,-0.480188 2.357324,0.354857 4.378309,2.270747 6.794577,2.242215 1.243521,-0.01479 2.196338,-0.682239 3.00824,-1.569699 0.303169,-0.33182 0.569788,-0.732328 0.858169,-1.100501 0.0712,-0.967138 0.345,-1.915467 0.467535,-2.878168 0.114296,-0.898238 0.212324,-1.810215 0.270422,-2.715217 0.11831,-1.846779 0.08092,-3.7072955 -0.12338,-5.5470998 C 59.288735,6.0068367 59.177741,5.209819 59.00543,4.432142 L 58.924843,4.0816441 C 58.817981,3.5998436 58.748107,3.1608652 58.165944,3.2103264 56.871718,3.3198059 55.424958,4.1096219 54.293197,4.7056297 49.905591,7.0171679 46.715662,10.591313 44.361084,14.790209 c 0.147888,0.07397 0.289015,0.171405 0.421057,0.298215 0.265563,0.2551 0.401831,0.704431 0.280141,1.060133 -0.470071,1.374623 -2.141198,1.414779 -3.316902,1.953088 -1.281127,0.586286 -2.484507,1.339961 -3.624084,2.165495 -2.24324,1.624862 -4.304155,3.533777 -6.263874,5.486443 -3.086408,3.074724 -5.952464,6.34706 -8.720281,9.70436 l -0.589011,1.316124 c -0.587921,1.315914 -1.162979,2.636285 -1.638806,4.006944 -0.774507,2.2289 -1.42331,4.507468 -1.922113,6.813934 -0.501972,2.321471 -0.829225,4.696203 -0.953239,7.068188 -0.110704,2.116462 0.17007,4.231444 0.158239,6.335647 0.188028,0.351899 0.256057,0.748603 0.167535,1.152916 0.591972,0.167601 1.165353,0.423124 1.703874,0.775656 0.131197,0.08623 0.04796,0.291663 -0.106902,0.25362 -0.682817,-0.168235 -1.365845,-0.205644 -2.034718,-0.140548 -0.35493,0.437918 -0.929578,0.716689 -1.487113,0.704431 L 16.197,63.739571 v 0 c -0.174296,-0.0038 -0.347113,-0.0317 -0.514014,-0.07926 -0.940986,0.433902 -1.806761,1.058442 -2.539648,1.80472 -1.762183,1.794786 -2.613169,4.146058 -2.488099,6.657957 0.123803,2.477659 1.442958,4.712477 3.627888,5.902591 0.974577,0.5307 2.057535,0.810106 3.165422,0.830606 1.065845,0.01923 2.464648,-0.304767 3.340352,0.389942 0.09845,0.0782 0.16331,0.182184 0.20324,0.297158 0.06106,-0.258059 0.125915,-0.515483 0.19669,-0.771851 0.05408,-0.195922 0.38007,-0.218748 0.42,0 l 0.0514,0.285186 c 0.733783,4.138202 0.991886,8.398616 3.907123,11.710634 1.363521,1.549198 3.007394,2.946434 4.693732,4.132532 l 0.279003,0.194789 c 0.720444,0.497558 1.498879,0.980766 2.357829,1.160812 0.954507,0.200149 1.743591,0.145198 2.621408,0.66998 0.412606,0.246858 0.665915,0.791719 0.514014,1.264298 -0.973732,3.033305 -4.811408,1.670724 -6.745986,0.471522 -1.075775,-0.66681 -2.122606,-1.472477 -3.095282,-2.359937 -0.848239,0.516963 -1.855563,0.850262 -2.721126,0.97982 -1.335,0.199937 -2.752395,-0.07778 -3.81655,-0.940297 -1.125845,-0.912188 -1.510986,-2.239468 -1.319788,-3.648541 0.09511,-0.701109 0.276964,-1.385126 0.472889,-2.064147 l 0.16197,-0.554694 c 0.236197,-0.807781 0.420845,-1.641558 0.897042,-2.346834 0.240423,-0.355702 0.811056,-0.322098 0.934648,0.122372 0.282887,1.017184 0.160459,2.165395 0.08723,3.224987 l -0.01582,0.242849 c -0.04796,0.797002 -0.387464,2.019452 0.310986,2.609964 0.841268,0.710983 1.761972,0.386349 2.657747,-0.103561 -0.09127,-0.111382 -0.181479,-0.223397 -0.27,-0.335624 -2.898592,-3.685527 -3.619437,-8.273519 -2.825493,-12.758161 -0.748099,0.981722 -2.698099,1.194129 -3.732888,1.117832 C 15.388272,81.72759 13.78961,81.233453 12.405807,80.364804 9.5074265,78.545923 7.8772857,75.356013 7.8079899,71.962784 7.7403839,68.667833 9.2139758,65.335473 11.9313,63.416835 c 0.717887,-0.506818 1.516479,-0.900775 2.350141,-1.15989 -0.405212,-1.609644 -0.448099,-3.387946 -0.360212,-5.127992 -0.972042,0.132305 -2.024366,-0.03952 -2.903239,-0.338795 l -0.136414,-0.04767 c -1.3545103,-0.485336 -3.0747919,-1.460775 -3.3283788,-2.9833 -0.3122535,-1.872564 1.9977465,-2.94876 3.3380278,-3.696728 0.626889,-0.349689 1.26792,-0.676845 1.933412,-0.946853 l 0.200391,-0.07925 c 0.574437,-0.221073 1.250704,-0.633417 1.833803,-0.304979 0.04162,0.02346 0.05176,0.06806 0.04563,0.111805 -0.115352,0.812642 -1.446761,1.50418 -2.038733,2.016704 -0.454648,0.393323 -0.894084,0.805033 -1.315774,1.233863 -0.27338,0.278137 -0.684507,0.980877 -1.035212,1.178067 0.162888,0.08517 0.358099,0.294833 0.494155,0.375358 0.38324,0.225933 0.787395,0.385291 1.21986,0.48843 0.642887,0.153863 1.28683,0.08792 1.930563,0.07334 0.261338,-2.562834 0.735845,-5.06966 1.499789,-7.531679 1.281338,-4.13063 3.381549,-8.482122 6.377746,-11.747695 2.196972,-4.117526 5.034507,-7.878505 8.275352,-11.241722 2.078662,-2.15683 4.274366,-4.24962 6.709648,-6.002137 1.07966,-0.776877 2.215099,-1.476838 3.420379,-2.040771 l 0.400486,-0.183743 c 0.669047,-0.309711 1.48276,-0.711739 2.258783,-0.82675 0.501972,-1.992611 1.396268,-3.898356 2.481338,-5.6257223 C 47.077775,6.6287061 49.04531,4.621301 51.347493,3.0173636 52.483479,2.2256454 53.694042,1.5448861 54.96207,0.98861213 Z M 15.025014,70.390279 c 1.93162,-1.297903 4.300564,-1.805777 6.608873,-1.614083 1.145071,0.09501 2.277685,0.363504 3.350759,0.774087 l 0.442369,0.174801 c 1.024906,0.410832 2.124922,0.917823 2.161661,2.157962 0.01458,0.489698 -0.347746,0.87964 -0.78507,1.031812 -1.066691,0.37092 -1.930986,-0.517386 -2.811761,-0.989965 -0.889225,-0.477651 -1.834437,-0.792564 -2.808169,-1.047663 -0.09338,-0.02452 -0.186972,-0.04671 -0.280352,-0.0689 0.0507,0.10166 0.07944,0.214098 0.06951,0.335202 -0.02408,0.289973 -0.10838,0.50555 -0.190352,0.777347 -0.02472,0.08243 -0.08493,0.585651 -0.14662,0.647788 0.02007,0.171194 0.02218,0.333088 0.02746,0.50555 0.01479,0.509143 -0.04796,0.939241 -0.307817,1.390051 -0.647324,1.122904 -2.497817,1.226466 -3.117465,0 -0.619648,-1.226255 -0.135422,-2.426301 0.806197,-3.308055 0.256691,-0.240094 0.598944,-0.484626 0.970775,-0.653284 -1.305634,-0.119201 -2.625845,-0.06277 -3.930211,0.108846 -0.127183,0.01691 -0.14662,-0.162951 -0.05979,-0.221495 z m 0.1155,-41.138574 c 2.649296,-0.450599 5.416056,-0.540423 8.089859,-0.27391 0.145775,0.01479 0.200282,0.236712 0.03697,0.27243 -4.065829,0.892955 -8.280631,1.194707 -11.908204,3.431685 l -0.167007,0.104629 c -0.348169,0.221495 -1.17655,0.639757 -1.3489439,1.033714 -0.2034507,0.46497 0.3475349,1.062669 0.6038029,1.398293 0.576127,0.753676 1.291901,1.411609 2.082042,1.935124 0.834719,0.552892 1.732183,0.979608 2.697465,1.24908 0.458451,0.128078 0.934014,0.193174 1.387183,0.339006 0.515916,0.165698 0.682394,0.430098 1.07324,0.775655 0.450422,0.397762 0.299154,1.161159 -0.18655,1.446693 l -0.136338,0.07928 c -0.638245,0.365385 -0.993023,0.473056 -1.803732,0.330109 -0.634225,-0.112016 -1.23993,-0.333722 -1.833592,-0.580157 -1.090744,-0.453095 -2.086251,-1.046323 -3.004769,-1.784979 l -0.137203,-0.11189 C 8.9444578,37.540018 6.1652324,34.573083 7.9958662,32.413083 9.6116409,30.507126 12.786782,29.652002 15.140514,29.251705 Z M 21.665282,8.701038 c 2.540915,-2.994411 6.129507,-0.9498083 8.675704,0.8405401 2.744155,1.9292059 5.125141,4.2048139 7.050211,6.9542699 0.122324,0.174787 -0.114296,0.387405 -0.284577,0.284689 -2.134437,-1.287335 -4.291268,-2.519718 -6.480634,-3.712791 -0.89897,-0.489883 -1.799073,-0.967954 -2.718848,-1.415665 L 27.415482,11.4155 c -0.768255,-0.379373 -1.871331,-1.071658 -2.690623,-0.620192 -1.766686,0.974054 -0.676265,4.16452 -0.312253,5.709685 l 0.03317,0.145775 1.110158,5.084929 v 0 l 0.505828,2.289294 v 0 c 0.179788,0.145832 0.329366,0.340908 0.435211,0.592415 0.286479,0.679914 0.05261,1.598442 -0.640352,1.955201 -2.045282,1.052948 -2.737817,-1.003491 -3.122958,-2.548884 -0.312958,-1.255421 -0.629202,-2.51009 -0.946103,-3.764509 l -0.524222,-2.07307 c -0.802934,-3.138202 -1.942809,-6.722081 0.401944,-9.485106 z"
               id="path11"
               inkscape:connector-curvature="0"
               style="fill:#000000" />
          </g>
          <g
             id="face/Smiling"
             transform="translate(112.1831,77.354207)"
             style="fill:#000000;fill-rule:evenodd">
            <path
               d="m 30.968993,50.919898 c -1.420199,-0.579597 -2.687376,-1.546402 -3.613804,-2.781433 -0.322085,-0.429348 -0.405596,-0.882732 -0.33803,-1.29741 0.07597,-0.466276 0.351722,-0.888873 0.72778,-1.172337 0.377224,-0.284343 0.849082,-0.424574 1.305271,-0.353088 0.396402,0.06212 0.791,0.279241 1.103296,0.729548 l 0.06525,0.09005 c 0.550778,0.745422 1.268492,1.357032 2.086277,1.75125 0.788212,0.379963 1.669747,0.557306 2.581992,0.454177 1.737429,-0.19634 2.934953,-1.136329 4.20779,-2.412817 0.157772,-0.16116 0.315645,-0.327372 0.474284,-0.496259 0.100183,-0.153096 0.239212,-0.251491 0.393572,-0.303117 0.171389,-0.05732 0.365271,-0.05408 0.542852,0.0079 0.171277,0.0598 0.32439,0.173105 0.427057,0.323913 0.09758,0.14333 0.152899,0.320396 0.134948,0.524065 -0.116505,1.322871 -0.807846,2.503477 -1.789869,3.430502 -1.090661,1.02958 -2.536412,1.741851 -3.897523,1.991666 -1.499545,0.275182 -3.027542,0.07803 -4.411139,-0.486629 z M 36.087529,30.51204 c 1.595362,0.970108 4.026203,3.232209 2.309961,5.637224 -2.020181,2.120581 -4.928786,-0.31081 -6.362095,-1.410433 -1.329032,-0.852215 -2.822274,1.339617 -1.589198,2.334721 10.357127,7.671008 14.560269,-6.307842 6.448244,-7.70212 -0.893164,-0.153644 -1.224887,0.840495 -0.806912,1.140608 z M 17.527458,21.588672 c 0.176266,-2.188802 3.508521,-2.68584 3.84,-0.519922 0.296831,1.940196 -0.05261,3.722513 -0.926197,5.469323 -0.834719,1.668822 -2.932715,0.890238 -3.091377,-0.629371 -0.21268,-2.036972 0.06793,-2.95847 0.177574,-4.32003 z m 25.36557,-0.96902 c 0.464578,-0.608689 1.135352,-1.024204 1.939014,-0.789394 2.510916,0.73402 1.770845,4.300133 0.889014,6.035953 -0.479155,0.942623 -2.027957,1.18166 -2.727887,0.351687 -1.140845,-1.353487 -1.687183,-4.056446 -0.236831,-5.389644 0.0393,-0.0689 0.08303,-0.138434 0.13669,-0.208602 z m -22.487134,-8.608509 0.396628,-0.06945 c 1.227,-0.21229 2.752633,-0.416276 3.620626,0.57056 0.460352,0.523304 0.618803,1.495938 0,1.996838 -1.088451,0.881331 -2.291831,0.539789 -3.596197,0.614395 -1.07493,0.06171 -2.108028,0.239672 -3.143451,0.535773 -2.271549,0.64948 -4.122465,1.835155 -6.062535,3.137073 -0.254578,0.170771 -0.514437,-0.15492 -0.392958,-0.393112 1.11993,-2.19445 3.290282,-3.997057 5.464225,-5.095867 1.160282,-0.586497 2.43,-1.073025 3.713662,-1.29621 z m 20.198235,-0.983014 0.303576,0.06215 c 3.303642,0.690821 7.595846,2.070794 9.160279,5.317019 0.05961,0.459028 -0.0034,0.557407 -0.05459,0.621682 l -0.01705,0.02139 c -0.0422,0.05489 -0.07588,0.130549 -0.274764,0.193024 -0.05519,-0.01316 -0.110931,-0.02709 -0.167261,-0.04186 -0.717109,-0.188001 -1.284481,-0.447 -1.833757,-0.715742 L 47.125001,16.192275 C 46.434039,15.85335 45.736976,15.52676 44.998249,15.285659 43.421742,14.771244 41.80017,14.408871 40.153474,14.215372 c -0.356909,-0.0419 -0.700589,-0.162408 -0.971729,-0.368932 -0.257365,-0.196032 -0.453976,-0.467444 -0.543619,-0.828209 -0.116178,-0.466887 -0.08279,-0.820359 0.167616,-1.24156 0.188291,-0.316313 0.457705,-0.535559 0.767061,-0.661458 0.315374,-0.128348 0.674425,-0.158606 1.031326,-0.08708 z"
               id="path14"
               inkscape:connector-curvature="0" />
          </g>
          <g
             id="facial-hair/*-None"
             transform="translate(104.57745,109.47938)" />
          <g
             id="accessories/Sunglasses"
             transform="translate(88.521127,88.978474)"
             style="fill:#000000;fill-rule:evenodd">
            <path
               d="m 71.368049,3.1702544 c 4.958887,0 7.788756,1.0668174 8.825753,1.1499202 l 0.03118,0.00223 c 0.431324,0.027589 0.818246,0.063667 1.224198,0.2207112 1.492719,0.5751224 1.735867,2.1413227 0.864762,3.1283685 -0.0611,2.0424272 0.207416,4.4288657 -0.253297,6.4778727 -0.568333,8.638083 -4.629119,10.095838 -6.937335,10.627879 -1.158866,0.267189 -2.532336,0.373512 -3.7633,0.09147 -2.099955,-0.07831 -4.176018,-0.735988 -5.952268,-1.88114 -2.473769,-1.596122 -4.311124,-4.049413 -4.907365,-6.960889 -0.282589,-1.387812 -0.414657,-2.832328 -0.26087,-4.24299 l 0.0228,-0.194366 c -0.804081,-0.384759 -1.735867,-0.457551 -2.696408,-0.491506 -0.45881,-0.01634 -0.911066,-0.03098 -1.350424,-0.01146 -0.429421,0.04796 -0.853768,0.111841 -1.279383,0.198852 -0.46473,0.140279 -0.903665,0.371813 -1.308983,0.738533 l -0.02791,0.535225 c -0.07612,1.337 -0.251605,2.678033 -0.52224,3.989779 -0.399609,1.935467 -1.042366,3.783923 -2.410339,5.156789 -0.463038,0.691844 -1.036022,1.309411 -1.731638,1.844211 -2.526838,1.946291 -5.959879,2.660843 -9.110657,2.391745 -6.396489,-0.546048 -10.093822,-5.6258 -10.945898,-7.797046 l -0.0509,-0.131544 c -0.615525,-1.614182 -1.106063,-3.708568 -3.051032,-4.055387 l -0.413667,-0.07435 C 24.47528,13.7165 23.65631,13.484471 23.135903,12.61818 22.907766,12.24 22.790421,11.817041 22.761666,11.385805 c -0.303618,0.02335 -0.606814,0.04563 -0.908952,0.06727 -2.410233,0.509918 -16.8667506,0.942267 -18.0206646,0.942267 0,0 -2.2181003,0.933953 -3.15458363,0.210313 C 0.02836578,12.102478 -0.18518177,11.431855 0.17214037,10.6721 0.71128711,9.5289823 3.1986483,8.8413898 4.303132,8.6236728 c 0,0 17.823526,0.1480909 19.106365,-0.09523 0.79372,-0.8187536 2.213495,-0.7067002 3.399846,-0.8361558 0.982108,-0.7005457 2.356001,-1.1697692 3.441287,-1.4838581 0.22116,-0.083828 0.440204,-0.1648967 0.653118,-0.2412968 1.989586,-0.7088223 4.057615,-1.0842435 6.157147,-1.2858547 2.165076,-0.2058556 4.336495,-0.11269 6.488885,0.1822989 0.907049,0.123089 1.80564,0.2822556 2.697888,0.4904457 1.597642,0.2106969 3.185993,0.5577425 4.784216,0.9694418 l 0.319782,0.083181 c 1.683009,0.4414223 3.412532,0.8232102 5.154742,0.5239768 1.418365,-0.2420218 2.782358,-0.7880963 4.090121,-1.3785929 l 0.170258,-0.077252 C 63.642279,4.1613324 68.132909,3.1702544 71.368049,3.1702544 Z M 46.074716,7.9726322 c -1.060972,-0.2334445 -1.514074,1.4030015 -0.449719,1.6370827 0.753694,0.1657675 1.392477,0.5459921 1.82405,1.1901471 l 0.04544,0.07003 c 0.579115,0.921893 2.043502,0.07088 1.460369,-0.856954 C 48.298782,8.9688036 47.279251,8.2374856 46.074716,7.9726322 Z M 77.149268,6.9579975 c -0.374026,-0.26358 -0.940032,-0.067911 -1.157174,0.304539 -0.238988,0.4101367 -0.08235,0.8667812 0.26795,1.1350863 l 0.03567,0.026194 c 0.321311,0.2265515 0.634243,0.6326492 0.673541,1.0487451 l 0.0035,0.052052 c 0.04207,1.0889121 1.733752,1.0944301 1.691466,0 -0.04123,-1.0706613 -0.66094,-1.9651782 -1.514919,-2.5666162 z"
               id="path18"
               inkscape:connector-curvature="0" />
          </g>
        </g>
      </g>
    </g>
  </g>
</svg>
