<?xml version="1.0" encoding="UTF-8" standalone="no"?>
<!-- Created with Inkscape (http://www.inkscape.org/) -->

<svg
   xmlns:dc="http://purl.org/dc/elements/1.1/"
   xmlns:cc="http://creativecommons.org/ns#"
   xmlns:rdf="http://www.w3.org/1999/02/22-rdf-syntax-ns#"
   xmlns:svg="http://www.w3.org/2000/svg"
   xmlns="http://www.w3.org/2000/svg"
   xmlns:sodipodi="http://sodipodi.sourceforge.net/DTD/sodipodi-0.dtd"
   xmlns:inkscape="http://www.inkscape.org/namespaces/inkscape"
   width="198"
   height="48"
   viewBox="0 0 26.24205 6.339615"
   version="1.1"
   id="svg4640"
   inkscape:version="0.92.5 (2060ec1f9f, 2020-04-08)"
   sodipodi:docname="hieroglyphs.svg">
   
   <style type="text/css">
   /* <![CDATA[ */
   	.hiero {
   		opacity: 0;
   		animation: anim 3s infinite 0s;
   	}
   	
   	.hiero:nth-child(1n) {
   		animation-delay: 0.5s;
   	}
   	
   	.hiero:nth-child(2n) {
		animation-delay: 1s;
   	}
   	
   	.hiero:nth-child(3n) {
		animation-delay: 1.5s;
   	}
   	
   	.hiero:nth-child(4n) {
		animation-delay: 2s;
   	}
   	
  	@keyframes anim {
  		0% { opacity: 0; }
  		25% { opacity: 1; }
  		50% { opacity: 1; }
  		100% { opacity: 0; }
  	}
   /* ]]> */
   </style>
   
  <defs
     id="defs4634" />
  <sodipodi:namedview
     id="base"
     pagecolor="#ffffff"
     bordercolor="#666666"
     borderopacity="1.0"
     inkscape:pageopacity="0.0"
     inkscape:pageshadow="2"
     inkscape:zoom="7.9195959"
     inkscape:cx="34.565667"
     inkscape:cy="15.210836"
     inkscape:document-units="mm"
     inkscape:current-layer="layer1"
     showgrid="false"
     showguides="true"
     inkscape:guide-bbox="true"
     inkscape:window-width="1685"
     inkscape:window-height="865"
     inkscape:window-x="2027"
     inkscape:window-y="255"
     inkscape:window-maximized="0"
     fit-margin-top="0"
     fit-margin-left="0"
     fit-margin-right="0"
     fit-margin-bottom="0"
     units="px" />
  <metadata
     id="metadata4637">
    <rdf:RDF>
      <cc:Work
         rdf:about="">
        <dc:format>image/svg+xml</dc:format>
        <dc:type
           rdf:resource="http://purl.org/dc/dcmitype/StillImage" />
        <dc:title></dc:title>
      </cc:Work>
    </rdf:RDF>
  </metadata>
  <g
     inkscape:label="Layer 1"
     inkscape:groupmode="layer"
     id="layer1"
     transform="translate(-5.65993,-170.50195)">
     <g
    	class="hiero"
       id="g6043">
      <g
         id="g4601"
         transform="matrix(0.08198426,0,0,0.08198426,0.15331706,167.43379)">
        <path
           id="path4595"
           d="m 132.64,103.784 c 0.661,0.652 1.293,1.321 1.926,1.983 0.425,0.444 0.897,0.812 1.482,0.377 0.585,-0.434 0.859,-1.085 0.501,-1.766 -0.501,-0.953 -1.029,-1.906 -1.671,-2.757 -3.295,-4.343 -6.77,-8.555 -9.914,-13.001 -3.229,-4.552 -6.194,-9.293 -9.188,-14.004 -3.673,-5.75 -7.195,-11.595 -11.51,-16.901 -1.284,-1.595 -2.794,-3.031 -4.315,-4.409 C 99.328,52.74 98.43,52.409 97.6,52.154 96.146,51.7 95.107,50.907 94.833,49.359 94.55,47.801 94.417,46.205 94.04,44.685 93.596,42.9 93.02,41.154 92.378,39.435 c -0.528,-1.407 -1.586,-1.756 -3.484,-1.69 -1.737,0.057 -3.465,0.217 -5.203,0.217 -1.577,0.009 -3.163,-0.217 -4.73,-0.198 -1.199,0.009 -2.398,0.16 -3.579,0.377 -1.02,0.179 -1.548,0.963 -1.718,1.936 -0.151,0.935 -0.264,1.879 -0.283,2.823 -0.047,1.804 -0.085,3.617 0,5.429 0.142,3.182 0.793,6.27 2.03,9.225 1.548,3.692 3.918,6.883 6.279,10.056 1.842,2.493 2.795,5.288 3.154,8.261 0.387,3.192 0.623,6.431 0.632,9.642 0.01,3.125 -0.292,6.25 -0.585,9.366 -0.265,2.821 -0.689,5.637 -1.077,8.45 -0.066,0.491 -0.255,0.98 -0.463,1.443 -0.585,1.285 -1.236,1.597 -2.568,1.104 -1.454,-0.547 -2.908,-0.642 -4.372,-0.16 -1.275,0.436 -2.436,-0.104 -3.635,-0.303 -1.369,-0.215 -2.7,-0.225 -3.985,0.463 -1.208,0.644 -1.784,1.662 -1.586,3.013 0.208,1.464 0.283,1.69 1.662,1.246 1.747,-0.567 3.201,0.133 4.75,0.548 0.802,0.217 1.482,0.197 2.266,-0.246 0.576,-0.321 1.397,-0.444 2.068,-0.35 1.851,0.247 3.673,0.756 5.523,0.955 0.736,0.085 1.539,-0.388 2.313,-0.568 0.557,-0.132 1.133,-0.33 1.681,-0.273 2.483,0.265 4.938,0.746 7.421,0.897 2.965,0.179 5.25,-1.152 5.542,-4.655 0.161,-2.012 0.142,-4.041 0.198,-6.062 0.019,-0.34 0.009,-0.681 0.009,-1.331 0.963,0.547 1.652,0.972 2.37,1.34 0.727,0.377 1.473,0.746 2.247,1.021 1.208,0.424 2.144,-0.048 2.352,-1.304 0.273,-1.681 0.358,-3.39 0.519,-5.081 0.038,-0.357 0.057,-0.718 0.085,-1.076 0.085,-0.047 0.17,-0.094 0.255,-0.141 0.358,0.359 0.803,0.671 1.058,1.085 1.69,2.719 3.371,5.448 4.985,8.205 1.029,1.756 1.945,3.56 2.899,5.354 0.85,1.586 2.2,2.596 3.795,3.313 3.598,1.614 7.384,2.247 11.293,2.153 0.416,-0.011 0.812,-0.151 1.218,-0.21 2.077,-0.254 2.965,-1.357 2.106,-3.587 -0.727,-1.879 -2.059,-3.54 -3.135,-5.288 -0.292,-0.472 -0.651,-0.896 -0.981,-1.351 0.066,-0.075 0.123,-0.141 0.179,-0.217 0.257,0.178 0.54,0.311 0.757,0.518 z m -35.427,-0.537 c -0.208,2.813 -1.501,4.428 -5.089,3.822 -1.586,-0.263 -3.16,-0.596 -4.73,-0.933 -0.75,-0.161 -1.237,-0.235 -0.869,-2.333 0.409,-2.329 0.85,-4.664 1.218,-7.006 0.123,-0.793 0.479,-0.872 1.143,-0.719 1.313,0.306 2.389,0.822 3.531,1.342 1.417,0.651 2.474,0.34 3.154,-1.047 0.16,-0.313 0.311,-0.624 0.519,-1.058 0.151,0.263 1.21,2.205 1.22,2.308 0.065,2.023 0.045,3.611 -0.097,5.624 z M 88.272,80.905 c -0.01,-0.537 0,-1.076 -0.01,-1.604 0.095,-0.021 0.189,-0.029 0.274,-0.049 0.123,0.171 0.274,0.331 0.368,0.5 1.482,2.625 2.89,5.288 4.447,7.865 1.312,2.191 1.312,4.429 0.614,6.761 -0.283,0.944 -0.869,1.029 -1.766,0.643 -0.888,-0.377 -1.851,-0.671 -2.804,-0.765 -1.341,-0.133 -1.369,-0.029 -1.332,-1.426 0.038,-1.927 0.132,-3.853 0.198,-5.789 0.019,-0.66 0.019,-1.331 0.019,-1.991 0.001,-1.377 -0.008,-2.766 -0.008,-4.145 z m 43.556,28.356 c 0.595,0.973 -0.057,1.719 -1.209,1.605 -0.755,-0.076 -1.52,-0.096 -2.275,-0.151 -1.86,-0.123 -3.598,-0.558 -5.146,-1.709 -2.407,-1.794 -3.89,-4.306 -5.4,-6.808 -1.69,-2.785 -3.22,-5.686 -5.042,-8.396 -1.189,-1.765 -2.729,-3.305 -4.192,-4.872 -0.491,-0.519 -1.124,-0.869 -1.803,-0.869 -0.292,0 -0.595,0.066 -0.897,0.21 -0.982,0.462 -0.935,1.529 -0.916,2.426 0.019,1.926 0.161,3.853 0.208,5.777 0.028,1.029 -0.453,1.332 -1.378,0.926 -0.935,-0.407 -1.898,-0.774 -2.757,-1.293 -0.463,-0.283 -0.869,-0.793 -1.114,-1.294 -1.265,-2.597 -2.351,-5.269 -3.72,-7.799 -1.463,-2.701 -3.257,-5.222 -4.74,-7.913 -0.963,-1.748 -1.445,-3.749 -2.445,-5.457 -0.756,-1.284 -1.53,-2.55 -2.333,-3.796 -0.274,-0.434 -0.547,-0.859 -0.821,-1.284 -0.973,-1.521 -1.983,-3.021 -3.012,-4.513 -1.907,-2.748 -3.692,-5.533 -4.825,-8.706 -1.313,-3.673 -1.511,-7.488 -1.454,-11.34 0.019,-2.096 0.916,-3.05 3.012,-3.012 2.691,0.038 5.372,0.123 8.063,0.227 1.766,0.066 2.879,0.85 3.134,2.237 0.246,1.332 0.425,2.682 0.52,4.042 0.18,2.644 1.029,4.881 3.437,6.298 0.151,0.084 0.292,0.17 0.444,0.255 1.039,0.585 2.115,1.142 3.012,1.897 2.587,2.181 4.599,4.891 6.449,7.705 3.267,4.985 6.392,10.065 9.678,15.041 2.833,4.288 5.797,8.489 8.696,12.729 0.255,0.368 0.491,0.755 0.736,1.143 -0.066,0.057 -0.132,0.113 -0.198,0.17 -0.208,-0.15 -0.424,-0.293 -0.623,-0.452 -1.275,-1.096 -2.502,-2.258 -3.833,-3.267 -4.117,-3.136 -8.158,-6.374 -12.436,-9.265 -4.881,-3.284 -9.697,-6.637 -13.625,-11.056 -1.35,-1.529 -2.521,-3.267 -3.503,-5.051 -1.02,-1.841 -0.227,-3.466 1.813,-3.909 1.473,-0.321 3.012,-0.312 4.504,-0.538 0.406,-0.066 0.963,-0.406 1.067,-0.737 0.123,-0.406 -0.009,-1.189 -0.293,-1.359 -0.764,-0.425 -1.652,-0.803 -2.511,-0.85 -0.085,0 -0.179,-0.009 -0.265,-0.009 -0.906,0 -1.841,0.217 -2.719,0.463 -4.844,1.34 -6.043,3.909 -4.22,8.715 0.254,0.651 0.547,1.284 0.887,1.879 0.255,0.453 0.538,0.887 0.84,1.303 0.897,1.265 1.974,2.408 3.106,3.456 2.153,2.001 4.551,3.739 6.893,5.514 3.398,2.576 6.854,5.08 10.263,7.647 0.009,0.01 0.028,0.021 0.038,0.029 1.133,0.859 2.267,1.728 3.39,2.615 5.155,4.062 10.244,8.252 14.342,13.428 1.953,2.463 3.521,5.259 5.173,7.968 z"
           inkscape:connector-curvature="0" />
        <path
           id="path4597"
           d="m 82.675,45.661 c -1.089,-1.098 -3.289,-1.231 -4.587,-0.359 -0.621,0.416 -0.766,1.549 -0.16,2.149 0.515,0.512 1.137,0.958 1.784,1.292 1.151,0.592 1.682,1.456 1.657,2.754 -0.019,1.043 -0.051,2.125 0.183,3.127 0.359,1.535 2.308,1.964 3.309,0.725 0.469,-0.582 0.707,-1.424 0.838,-2.184 0.136,-0.78 -0.007,-1.604 0.007,-2.41 0.024,-1.219 0.639,-1.811 1.838,-1.81 0.433,0 0.868,0.014 1.301,0.006 0.963,-0.019 1.34,-0.466 1.211,-1.417 -0.153,-1.116 -1.5,-2.541 -2.619,-2.768 -1.049,-0.213 -2.287,0.5 -2.928,1.673 -0.168,0.309 -0.375,0.598 -0.63,1.001 -0.478,-0.724 -0.76,-1.333 -1.204,-1.779 z"
           inkscape:connector-curvature="0"
           style="fill:#ffffff" />
        <path
           id="path4599"
           d="m 83.879,47.436 c -0.478,-0.72 -0.761,-1.329 -1.204,-1.775 -1.089,-1.098 -3.289,-1.231 -4.587,-0.359 -0.621,0.416 -0.766,1.549 -0.16,2.149 0.515,0.512 1.137,0.958 1.784,1.292 1.151,0.592 1.682,1.456 1.657,2.754 -0.019,1.043 -0.051,2.125 0.183,3.127 0.359,1.535 2.308,1.964 3.309,0.725 0.469,-0.582 0.707,-1.424 0.838,-2.184 0.136,-0.78 -0.007,-1.604 0.007,-2.41 0.024,-1.219 0.639,-1.811 1.838,-1.81 0.433,0 0.868,0.014 1.301,0.006 0.963,-0.019 1.34,-0.466 1.211,-1.417 -0.153,-1.116 -1.5,-2.541 -2.619,-2.768 -1.049,-0.213 -2.287,0.5 -2.928,1.673 -0.167,0.305 -0.375,0.594 -0.63,0.997 z"
           inkscape:connector-curvature="0" />
      </g>
    </g>
    <g
	class="hiero"
       id="g6048">
      <g
         transform="matrix(0.3084597,0,0,0.3084597,1.2769847,127.75924)"
         id="g5972">
        <path
           inkscape:connector-curvature="0"
           d="m 44.161227,158.19362 c -0.60404,0 -1.33085,-0.005 -2.21191,-0.0122 -1.36843,-0.01 -3.07076,-0.0225 -5.26415,-0.0225 l -0.13812,-0.60722 c 0.5461,-0.263 1.21656,-0.49054 1.92511,-0.73131 2.9681,-1.00806 6.66168,-2.26298 6.61961,-7.46019 -0.0127,-1.52189 -0.11615,-3.00196 -0.20769,-4.30768 -0.0863,-1.2237 -0.16061,-2.28045 -0.15399,-3.18929 0.0169,-2.37173 0.42333,-2.98582 1.97247,-2.98582 0.73527,0 1.20464,0.28072 1.47637,0.88318 0.23813,0.53075 0.33973,1.35546 0.33946,2.75828 -2.6e-4,0.92472 -0.0659,1.80895 -0.12038,2.38839 -0.0828,0.87868 -0.24421,1.80102 -0.39952,2.69266 -0.25427,1.46103 -0.51674,2.9718 -0.47334,4.41484 0.0392,1.29355 0.25479,2.2233 0.42756,2.9718 0.23469,1.0115 0.4027,1.74202 -0.1688,2.4302 -0.57256,0.69003 -0.97843,0.77682 -3.62268,0.77682 z m -5.77109,-0.67019 c 1.40335,0.004 2.57149,0.0127 3.56315,0.0198 0.88,0.006 1.60549,0.0119 2.20821,0.0119 2.6789,0 2.78368,-0.12674 3.13161,-0.54637 0.3548,-0.42624 0.26775,-0.88397 0.0384,-1.87828 -0.17066,-0.73421 -0.40244,-1.74042 -0.44345,-3.09668 -0.0468,-1.50786 0.22278,-3.05091 0.48208,-4.54342 0.16007,-0.92049 0.31167,-1.78964 0.39158,-2.64372 0.0542,-0.56568 0.11827,-1.42848 0.11827,-2.3278 5.3e-4,-1.28905 -0.0873,-2.05873 -0.28417,-2.49608 -0.16695,-0.36936 -0.40878,-0.50694 -0.89349,-0.50694 -0.9316,0 -1.31736,0 -1.3343,2.35188 -0.006,0.88397 0.0672,1.92934 0.15161,3.14007 0.0923,1.31472 0.19711,2.80538 0.20981,4.34711 0.0458,5.65917 -4.05685,7.05246 -7.05194,8.07032 -0.0966,0.0328 -0.19288,0.0659 -0.28733,0.0982 z"
           id="path4607"
           style="stroke-width:0.26458332" />
        <path
           inkscape:connector-curvature="0"
           d="m 49.022157,151.45441 c 0.0212,0.19897 0.1098,0.3482 0.28363,0.43948 1.35282,0.71728 2.31722,1.81319 3.06758,3.1152 0.0169,0.0288 0.13785,0.25003 0.15399,0.30321 0.20373,0.67813 0.0992,1.37928 0.10742,2.07354 0.003,0.35111 -0.006,0.70247 0.009,1.05384 0.0183,0.50403 0.29977,0.68104 0.67548,0.68104 0.60404,0 0.60404,-0.62151 0.60404,-0.62389 0,-2.15106 -0.003,-5.4356 -0.0365,-7.24323 -0.0466,-2.54027 -0.0691,-4.97867 -0.10666,-7.54407 -0.006,-0.30242 -0.0595,-0.84614 -0.13679,-1.14538 -0.3556,-1.37266 -0.52626,-2.40639 -1.64413,-3.33481 -0.0944,-0.0762 -0.19552,-0.15266 -0.30532,-0.20161 -0.66649,-0.29924 -1.21233,-0.21987 -1.30996,0.65378 -0.16536,1.46606 -0.31776,2.93476 -0.47704,4.40426 -0.22278,2.01268 -0.4273,4.02828 -0.79058,6.02244 -0.0783,0.44186 -0.13705,0.89086 -0.0945,1.3462 z m 0.80301,-0.84613 c 0.28707,-2.10423 0.54425,-4.21164 0.82471,-6.31614 0.16774,-1.27053 0.2868,-2.54396 0.37253,-3.82375 0.0159,-0.25348 -0.009,-0.63527 0.27543,-0.69956 0.25585,-0.055 0.43048,0.26881 0.58896,0.47969 0.31433,0.40931 0.50112,0.88873 0.72681,1.34673 0,0.003 0,0.003 0.003,0.006 0.43418,1.26153 0.48313,2.57148 0.47969,3.88805 0,1.86584 0.0302,3.73195 0.0185,5.59832 -0.006,1.0234 -0.0278,2.04946 -0.009,3.07234 0,0.0302 -0.0212,0.0648 -0.0336,0.095 -0.16166,0.0116 -0.1225,-0.17119 -0.22595,-0.2077 -0.64135,-1.06601 -1.53379,-1.88436 -2.58445,-2.53206 -0.35666,-0.2167 -0.49451,-0.47943 -0.43656,-0.90699 z"
           id="path4611"
           style="stroke-width:0.26458332" />
      </g>
    </g>
    <g
    	class="hiero"
       id="g6055">
      <g
         transform="matrix(0.25761795,0,0,0.25761795,1.3054322,135.08832)"
         id="g5978">
        <path
           inkscape:connector-curvature="0"
           sodipodi:nodetypes="ccccccccccc"
           id="path4075-8"
           d="m 78.886639,152.34784 c 0.232671,0.21577 -1.696904,7.45169 -2.510115,7.45701 -2.894535,0.0614 -4.663496,-0.3538 -5.622886,1.90802 h 13.110433 c -0.62402,-0.69609 -1.243941,-1.15314 -2.009204,-1.44547 0.327429,-3.4334 1.085661,-4.66475 1.720111,-6.51911 l -3.295883,-0.17336 c 1.196741,1.48922 1.898751,5.83287 -0.982717,6.24459 -0.364039,-0.019 -0.677101,-0.0407 -1.10204,-0.0435 0.616901,-2.35447 1.347543,-3.96705 2.084757,-6.20111 z"
           style="fill:#000000;fill-opacity:1;fill-rule:evenodd;stroke:none;stroke-width:0.46254832" />
        <path
           inkscape:connector-curvature="0"
           sodipodi:nodetypes="ccccccc"
           id="path2841-5"
           d="m 78.142334,151.4665 c 1.583021,2.20297 3.533221,2.77311 8.016318,1.81522 2.216023,-0.57402 1.009558,-1.77383 0.43981,-2.56677 l -7.146857,-8.96909 c -1.955182,-4.18445 -2.620073,-4.60842 -7.320581,-2.42204 1.022778,0.88268 1.946616,0.79956 3.246738,5.48032 0.180676,0.5995 1.56987,4.18448 2.764572,6.66236 z"
           style="fill:none;stroke:#000000;stroke-width:1.11937356;stroke-linejoin:round;stroke-miterlimit:4;stroke-dasharray:none" />
        <path
           inkscape:connector-curvature="0"
           sodipodi:nodetypes="ccc"
           id="path3617-7"
           d="m 82.373855,145.67114 c -2.310507,-0.11703 -2.296112,0.72092 -2.305312,2.77316 -4.285742,-2.11389 -3.245096,-4.07047 -1.881897,-4.52743"
           style="fill:none;stroke:#000000;stroke-width:1.01761246;stroke-linecap:round;stroke-linejoin:miter;stroke-miterlimit:4;stroke-dasharray:none" />
        <path
           inkscape:connector-curvature="0"
           sodipodi:nodetypes="csccsc"
           id="path3704-8"
           d="m 75.545098,139.21391 c -0.22991,0 -0.412246,0.16786 -0.412246,0.3978 0,0.0792 0.02137,0.23423 0.05782,0.30005 0.30054,0.13599 0.635615,0.0648 0.969612,0 0.0716,-0.0662 0.130091,-0.13502 0.130091,-0.21679 0,-0.22994 -0.515362,-0.48106 -0.745277,-0.48106 z"
           style="fill:#000000;fill-opacity:1;fill-rule:evenodd;stroke:none;stroke-width:0.46254832" />
      </g>
    </g>
    <g
    	class="hiero"
       id="g6060">
      <path
         style="color:#000000;font-style:normal;font-variant:normal;font-weight:normal;font-stretch:normal;font-size:medium;line-height:normal;font-family:'Bitstream Vera Sans';-inkscape-font-specification:'Bitstream Vera Sans';text-indent:0;text-align:start;text-decoration:none;text-decoration-line:none;letter-spacing:normal;word-spacing:normal;text-transform:none;writing-mode:lr-tb;direction:ltr;text-anchor:start;display:inline;overflow:visible;visibility:visible;fill:#000000;fill-opacity:1;stroke:none;stroke-width:0.34684902;marker:none;enable-background:accumulate"
         d="m 25.774832,175.82969 -0.120931,0.11195 -0.438941,0.40759 v 0.40758 a 0.17344297,0.17344282 0 0 0 0.120932,-0.0448 l 0.43894,-0.40758 0.43894,0.40758 a 0.17344297,0.17344282 0 0 0 0.237384,0 l 0.438937,-0.41206 0.43894,0.41206 a 0.17344297,0.17344282 0 0 0 0.237385,0 l 0.438941,-0.40758 0.438938,0.40758 a 0.17344297,0.17344282 0 0 0 0.237384,0 l 0.438939,-0.41206 0.438941,0.41206 a 0.17344297,0.17344282 0 0 0 0.232904,0 l 0.438938,-0.40758 0.438941,0.40758 h 0.0044 a 0.17344297,0.17344282 0 0 0 0.232907,0 l 0.438938,-0.41206 0.438938,0.41206 a 0.17344297,0.17344282 0 0 0 0.116451,0.0448 v -0.40758 l -0.438939,-0.40759 -0.11645,-0.11195 -0.116451,0.11195 -0.438937,0.40759 -0.438939,-0.40759 -0.120932,-0.11195 -0.116451,0.11195 -0.438942,0.40759 -0.438937,-0.40759 -0.116451,-0.11195 -0.116451,0.11195 -0.438938,0.40759 -0.438937,-0.40759 h -0.0044 l -0.11645,-0.11195 -0.120933,0.11195 -0.438938,0.40759 -0.438941,-0.40759 -0.116451,-0.11195 -0.11645,0.11195 -0.438939,0.40759 -0.438937,-0.40759 h -0.0044 l -0.116451,-0.11195 z"
         id="path3856-6"
         inkscape:connector-curvature="0" />
      <path
         style="color:#000000;font-style:normal;font-variant:normal;font-weight:normal;font-stretch:normal;font-size:medium;line-height:normal;font-family:'Bitstream Vera Sans';-inkscape-font-specification:'Bitstream Vera Sans';text-indent:0;text-align:start;text-decoration:none;text-decoration-line:none;letter-spacing:normal;word-spacing:normal;text-transform:none;writing-mode:lr-tb;direction:ltr;text-anchor:start;display:inline;overflow:visible;visibility:visible;fill:#000000;fill-opacity:1;stroke:none;stroke-width:0.34684902;marker:none;enable-background:accumulate"
         d="m 25.774832,173.22333 -0.120931,0.11195 -0.438941,0.40759 v 0.40759 a 0.17344297,0.17344282 0 0 0 0.120932,-0.0448 l 0.43894,-0.4076 0.43894,0.4076 a 0.17344297,0.17344282 0 0 0 0.237384,0 l 0.438937,-0.41207 0.43894,0.41207 a 0.17344297,0.17344282 0 0 0 0.237385,0 l 0.438941,-0.4076 0.438938,0.4076 a 0.17344297,0.17344282 0 0 0 0.237384,0 l 0.438939,-0.41207 0.438941,0.41207 a 0.17344297,0.17344282 0 0 0 0.232904,0 l 0.438938,-0.4076 0.438941,0.4076 h 0.0044 a 0.17344297,0.17344282 0 0 0 0.232907,0 l 0.438938,-0.41207 0.438938,0.41207 a 0.17344297,0.17344282 0 0 0 0.116451,0.0448 v -0.40759 l -0.438939,-0.40759 -0.11645,-0.11195 -0.116451,0.11195 -0.438937,0.40759 -0.438939,-0.40759 -0.120932,-0.11195 -0.116451,0.11195 -0.438942,0.40759 -0.438937,-0.40759 -0.116451,-0.11195 -0.116451,0.11195 -0.438938,0.40759 -0.438937,-0.40759 h -0.0044 l -0.11645,-0.11195 -0.120933,0.11195 -0.438938,0.40759 -0.438941,-0.40759 -0.116451,-0.11195 -0.11645,0.11195 -0.438939,0.40759 -0.438937,-0.40759 h -0.0044 l -0.116451,-0.11195 z"
         id="path3856-1-6"
         inkscape:connector-curvature="0" />
      <path
         style="color:#000000;font-style:normal;font-variant:normal;font-weight:normal;font-stretch:normal;font-size:medium;line-height:normal;font-family:'Bitstream Vera Sans';-inkscape-font-specification:'Bitstream Vera Sans';text-indent:0;text-align:start;text-decoration:none;text-decoration-line:none;letter-spacing:normal;word-spacing:normal;text-transform:none;writing-mode:lr-tb;direction:ltr;text-anchor:start;display:inline;overflow:visible;visibility:visible;fill:#000000;fill-opacity:1;stroke:none;stroke-width:0.34684902;marker:none;enable-background:accumulate"
         d="m 25.774832,170.62145 -0.120931,0.11195 -0.438941,0.4076 v 0.40757 a 0.17344297,0.17344282 0 0 0 0.120932,-0.0448 l 0.43894,-0.4076 0.43894,0.4076 a 0.17344297,0.17344282 0 0 0 0.237385,0 l 0.438937,-0.41207 0.43894,0.41207 a 0.17344297,0.17344282 0 0 0 0.237384,0 l 0.438941,-0.4076 0.438938,0.4076 a 0.17344297,0.17344282 0 0 0 0.237386,0 l 0.438937,-0.41207 0.438941,0.41207 a 0.17344297,0.17344282 0 0 0 0.232905,0 l 0.438937,-0.4076 0.438941,0.4076 h 0.0044 a 0.17344297,0.17344282 0 0 0 0.232907,0 l 0.438938,-0.41207 0.438939,0.41207 a 0.17344297,0.17344282 0 0 0 0.116451,0.0448 V 171.141 l -0.438938,-0.4076 -0.116451,-0.11195 -0.116451,0.11195 -0.438941,0.4076 -0.438937,-0.4076 -0.120933,-0.11195 -0.116451,0.11195 -0.438939,0.4076 -0.43894,-0.4076 -0.116451,-0.11195 -0.116451,0.11195 -0.438941,0.4076 -0.438938,-0.4076 h -0.0044 l -0.116451,-0.11195 -0.120933,0.11195 -0.438938,0.4076 -0.438941,-0.4076 -0.11645,-0.11195 -0.116451,0.11195 -0.43894,0.4076 -0.438937,-0.4076 h -0.0044 l -0.116451,-0.11195 z"
         id="path3856-1-7-1"
         inkscape:connector-curvature="0" />
    </g>
  </g>
</svg>
