<?xml version="1.0" encoding="UTF-8" standalone="no"?>
<!-- Created with Inkscape (http://www.inkscape.org/) -->

<svg
   xmlns:dc="http://purl.org/dc/elements/1.1/"
   xmlns:cc="http://creativecommons.org/ns#"
   xmlns:rdf="http://www.w3.org/1999/02/22-rdf-syntax-ns#"
   xmlns:svg="http://www.w3.org/2000/svg"
   xmlns="http://www.w3.org/2000/svg"
   xmlns:sodipodi="http://sodipodi.sourceforge.net/DTD/sodipodi-0.dtd"
   xmlns:inkscape="http://www.inkscape.org/namespaces/inkscape"
   width="342.5011"
   height="173.48102"
   version="1.1"
   viewBox="0 0 90.617228 45.900559"
   id="svg126"
   sodipodi:docname="multitrain_logo.svg"
   inkscape:version="0.92.4 5da689c313, 2019-01-14">
  <defs
     id="defs130" />
  <sodipodi:namedview
     pagecolor="#ffffff"
     bordercolor="#666666"
     borderopacity="1"
     objecttolerance="10"
     gridtolerance="10"
     guidetolerance="10"
     inkscape:pageopacity="0"
     inkscape:pageshadow="2"
     inkscape:window-width="1920"
     inkscape:window-height="1047"
     id="namedview128"
     showgrid="false"
     showguides="true"
     inkscape:guide-bbox="true"
     inkscape:zoom="2.76"
     inkscape:cx="154.31888"
     inkscape:cy="94.01742"
     inkscape:window-x="0"
     inkscape:window-y="115"
     inkscape:window-maximized="1"
     inkscape:current-layer="g124"
     fit-margin-top="0"
     fit-margin-left="0"
     fit-margin-right="0"
     fit-margin-bottom="0" />
  <metadata
     id="metadata2">
    <rdf:RDF>
      <cc:Work
         rdf:about="">
        <dc:format>image/svg+xml</dc:format>
        <dc:type
           rdf:resource="http://purl.org/dc/dcmitype/StillImage" />
        <dc:title />
      </cc:Work>
    </rdf:RDF>
  </metadata>
  <g
     transform="translate(-68.904674,-140.23478)"
     id="g124">
    <g
       transform="matrix(0.15994789,0,0,0.16341688,68.595505,139.87774)"
       id="g80">
      <g
         transform="translate(-59.868,3.5269)"
         id="g6">
        <path
           style="fill:#354952"
           d="m 61.867188,280.22266 c 93.916662,0 187.833332,0 281.750002,0 0,-93.91667 0,-187.833337 0,-281.7500038 -93.91667,10e-8 -187.83334,0 -281.750002,0 -10e-7,93.9166668 0,187.8333338 0,281.7500038 z"
           id="path4"
           inkscape:connector-curvature="0" />
      </g>
      <g
         transform="translate(-59.868,-28.89)"
         id="g78">
        <g
           transform="matrix(0.62265,0,0,0.62265,41.154,20.134)"
           id="g76"
           style="fill:#ffffff">
          <g
             id="g10"
             style="fill:#ffffff">
            <path
               d="m 477.87,102.4 c -18.825,0 -34.133,15.309 -34.133,34.133 0,18.824 15.309,34.133 34.133,34.133 18.824,0 34.133,-15.308 34.133,-34.133 0,-18.824 -15.309,-34.133 -34.133,-34.133 z m 0,51.2 c -9.412,0 -17.067,-7.654 -17.067,-17.067 0,-9.412 7.654,-17.067 17.067,-17.067 9.413,0 17.067,7.654 17.067,17.067 -0.001,9.413 -7.655,17.067 -17.067,17.067 z"
               id="path8"
               inkscape:connector-curvature="0"
               style="fill:#ffffff" />
          </g>
          <g
             id="g14"
             style="fill:#ffffff">
            <path
               d="M 34.133,384 C 15.309,384 0,399.309 0,418.133 c 0,18.824 15.309,34.133 34.133,34.133 18.825,0 34.133,-15.309 34.133,-34.133 C 68.266,399.309 52.958,384 34.133,384 Z m 0,51.2 c -9.412,0 -17.067,-7.654 -17.067,-17.067 0,-9.413 7.654,-17.067 17.067,-17.067 9.412,0 17.067,7.654 17.067,17.067 0,9.413 -7.654,17.067 -17.067,17.067 z"
               id="path12"
               inkscape:connector-curvature="0"
               style="fill:#ffffff" />
          </g>
          <g
             id="g18"
             style="fill:#ffffff">
            <path
               d="M 461.32,113.19 387.703,77.649 c -4.25,-2.057 -9.344,-0.265 -11.392,3.977 -2.048,4.241 -0.265,9.344 3.977,11.392 l 73.617,35.541 c 1.195,0.58 2.458,0.853 3.703,0.853 3.174,0 6.221,-1.775 7.688,-4.83 2.048,-4.241 0.265,-9.344 -3.976,-11.392 z"
               id="path16"
               inkscape:connector-curvature="0"
               style="fill:#ffffff" />
          </g>
          <g
             id="g22"
             style="fill:#ffffff">
            <path
               d="m 384,443.73 c -18.825,0 -34.133,15.309 -34.133,34.133 0,18.824 15.308,34.134 34.133,34.134 18.825,0 34.133,-15.309 34.133,-34.133 0,-18.824 -15.308,-34.134 -34.133,-34.134 z m 0,51.2 c -9.412,0 -17.067,-7.654 -17.067,-17.067 0,-9.413 7.655,-17.066 17.067,-17.066 9.412,0 17.067,7.654 17.067,17.067 0,9.413 -7.655,17.066 -17.067,17.066 z"
               id="path20"
               inkscape:connector-curvature="0"
               style="fill:#ffffff" />
          </g>
          <g
             id="g26"
             style="fill:#ffffff">
            <path
               d="m 367.45,454.52 -73.617,-35.541 c -4.25,-2.057 -9.344,-0.273 -11.392,3.977 -2.048,4.241 -0.265,9.344 3.977,11.392 l 73.617,35.541 c 1.195,0.58 2.458,0.853 3.703,0.853 3.174,0 6.221,-1.775 7.689,-4.83 2.047,-4.242 0.264,-9.344 -3.977,-11.392 z"
               id="path24"
               inkscape:connector-curvature="0"
               style="fill:#ffffff" />
          </g>
          <g
             id="g30"
             style="fill:#ffffff">
            <path
               d="m 256,230.4 c -18.825,0 -34.133,15.309 -34.133,34.133 0,18.825 15.309,34.133 34.133,34.133 18.825,0 34.133,-15.309 34.133,-34.133 0,-18.824 -15.308,-34.133 -34.133,-34.133 z m 0,51.2 c -9.412,0 -17.067,-7.654 -17.067,-17.067 0,-9.412 7.654,-17.067 17.067,-17.067 9.412,0 17.067,7.654 17.067,17.067 0,9.413 -7.655,17.067 -17.067,17.067 z"
               id="path28"
               inkscape:connector-curvature="0"
               style="fill:#ffffff" />
          </g>
          <g
             id="g34"
             style="fill:#ffffff">
            <path
               d="m 241,242.14 -56.55,-44.075 c -3.721,-2.876 -9.079,-2.236 -11.981,1.485 -2.893,3.721 -2.236,9.079 1.485,11.981 l 56.55,44.075 c 1.562,1.212 3.405,1.801 5.24,1.801 2.543,0 5.052,-1.126 6.741,-3.285 2.893,-3.722 2.236,-9.081 -1.485,-11.982 z"
               id="path32"
               inkscape:connector-curvature="0"
               style="fill:#ffffff" />
          </g>
          <g
             id="g38"
             style="fill:#ffffff">
            <path
               d="m 409.6,221.87 c -51.755,0 -93.867,42.112 -93.867,93.867 0,51.755 42.112,93.867 93.867,93.867 51.755,0 93.867,-42.112 93.867,-93.867 0,-51.755 -42.112,-93.867 -93.867,-93.867 z m 0,170.67 c -42.351,0 -76.8,-34.449 -76.8,-76.8 0,-42.351 34.449,-76.8 76.8,-76.8 42.351,0 76.8,34.449 76.8,76.8 0,42.351 -34.449,76.8 -76.8,76.8 z"
               id="path36"
               inkscape:connector-curvature="0"
               style="fill:#ffffff" />
          </g>
          <g
             id="g42"
             style="fill:#ffffff">
            <path
               d="m 204.8,324.27 c -51.755,0 -93.867,42.112 -93.867,93.867 0,51.755 42.112,93.866 93.867,93.866 51.755,0 93.867,-42.112 93.867,-93.867 0,-51.755 -42.112,-93.866 -93.867,-93.866 z m 0,170.67 c -42.351,0 -76.8,-34.449 -76.8,-76.8 0,-42.351 34.449,-76.8 76.8,-76.8 42.351,0 76.8,34.449 76.8,76.8 0,42.351 -34.449,76.8 -76.8,76.8 z"
               id="path40"
               inkscape:connector-curvature="0"
               style="fill:#ffffff" />
          </g>
          <g
             id="g46"
             style="fill:#ffffff">
            <path
               d="M 93.867,110.93 C 42.112,110.93 0,153.042 0,204.797 c 0,51.755 42.112,93.867 93.867,93.867 51.755,0 93.867,-42.112 93.867,-93.867 -0.001,-51.755 -42.113,-93.867 -93.867,-93.867 z m 0,170.67 c -42.351,0 -76.8,-34.449 -76.8,-76.8 0,-42.351 34.449,-76.8 76.8,-76.8 42.351,0 76.8,34.449 76.8,76.8 0,42.351 -34.449,76.8 -76.8,76.8 z"
               id="path44"
               inkscape:connector-curvature="0"
               style="fill:#ffffff" />
          </g>
          <g
             id="g50"
             style="fill:#ffffff">
            <path
               d="m 298.67,0 c -51.755,0 -93.867,42.112 -93.867,93.867 0,51.755 42.112,93.867 93.867,93.867 51.755,0 93.867,-42.112 93.867,-93.867 C 392.536,42.112 350.424,0 298.67,0 Z m 0,170.67 c -42.351,0 -76.8,-34.449 -76.8,-76.8 0,-42.351 34.449,-76.8 76.8,-76.8 42.351,0 76.8,34.449 76.8,76.8 0,42.351 -34.449,76.8 -76.8,76.8 z"
               id="path48"
               inkscape:connector-curvature="0"
               style="fill:#ffffff" />
          </g>
          <g
             id="g54"
             style="fill:#ffffff">
            <path
               d="m 219.83,88.311 c -3.063,-3.567 -8.448,-3.994 -12.032,-0.93 l -59.136,50.603 c -3.584,3.063 -4.002,8.448 -0.939,12.032 1.69,1.971 4.079,2.987 6.485,2.987 1.963,0 3.934,-0.674 5.547,-2.057 l 59.136,-50.603 c 3.585,-3.063 4.003,-8.448 0.939,-12.032 z"
               id="path52"
               inkscape:connector-curvature="0"
               style="fill:#ffffff" />
          </g>
          <g
             id="g58"
             style="fill:#ffffff">
            <path
               d="m 407.89,225.29 -51.2,-68.267 c -2.825,-3.78 -8.175,-4.523 -11.947,-1.707 -3.772,2.825 -4.531,8.175 -1.707,11.938 l 51.2,68.267 c 1.681,2.236 4.241,3.413 6.835,3.413 1.775,0 3.576,-0.555 5.112,-1.707 3.772,-2.824 4.532,-8.174 1.707,-11.937 z"
               id="path56"
               inkscape:connector-curvature="0"
               style="fill:#ffffff" />
          </g>
          <g
             id="g62"
             style="fill:#ffffff">
            <path
               d="m 337.86,343.95 c -2.825,-3.772 -8.175,-4.531 -11.947,-1.707 l -47.667,35.746 c -3.772,2.825 -4.531,8.175 -1.707,11.938 1.681,2.236 4.241,3.413 6.835,3.413 1.783,0 3.575,-0.563 5.112,-1.707 l 47.667,-35.746 c 3.772,-2.823 4.532,-8.174 1.707,-11.937 z"
               id="path60"
               inkscape:connector-curvature="0"
               style="fill:#ffffff" />
          </g>
          <g
             id="g66"
             style="fill:#ffffff">
            <path
               d="M 119.47,409.6 H 59.736 c -4.71,0 -8.533,3.814 -8.533,8.533 0,4.719 3.823,8.533 8.533,8.533 h 59.733 c 4.71,0 8.533,-3.814 8.533,-8.533 0,-4.719 -3.822,-8.533 -8.532,-8.533 z"
               id="path64"
               inkscape:connector-curvature="0"
               style="fill:#ffffff" />
          </g>
          <g
             id="g70"
             style="fill:#ffffff">
            <path
               d="M 93.867,0 C 75.042,0 59.733,15.309 59.733,34.133 c 0,18.825 15.309,34.133 34.133,34.133 18.825,0 34.133,-15.309 34.133,-34.133 C 128,15.309 112.691,0 93.867,0 Z m 0,51.2 C 84.455,51.2 76.8,43.546 76.8,34.133 c 0,-9.412 7.654,-17.067 17.067,-17.067 9.412,0 17.067,7.654 17.067,17.067 -10e-4,9.413 -7.655,17.067 -17.067,17.067 z"
               id="path68"
               inkscape:connector-curvature="0"
               style="fill:#ffffff" />
          </g>
          <g
             id="g74"
             style="fill:#ffffff">
            <path
               d="m 93.867,51.2 c -4.71,0 -8.533,3.814 -8.533,8.533 v 59.733 c 0,4.719 3.823,8.533 8.533,8.533 4.71,0 8.533,-3.814 8.533,-8.533 V 59.733 c 0,-4.719 -3.823,-8.533 -8.533,-8.533 z"
               id="path72"
               inkscape:connector-curvature="0"
               style="fill:#ffffff" />
          </g>
        </g>
      </g>
    </g>
    <g
       id="g116">
      <flowRoot
         font-size="40px"
         letter-spacing="0px"
         word-spacing="0px"
         style="font-size:40px;line-height:1.25;font-family:sans-serif;letter-spacing:0px;word-spacing:0px;fill:#000000"
         xml:space="preserve"
         id="flowRoot88"><flowRegion
           id="flowRegion84"><rect
             x="495.98001"
             y="370.67001"
             width="457.60001"
             height="284.85999"
             id="rect82" /></flowRegion><flowPara
           id="flowPara86" /></flowRoot>      <g
         transform="matrix(0.4715,0,0,0.4715,-91.734,-53.969)"
         aria-label="MULTI"
         id="g100"
         style="fill:#354952">
        <path
           d="m 451.29,440.44 -5.4297,-24.316 h -0.21484 q 0.37109,2.8125 0.37109,5.1562 v 19.16 h -4.9219 v -28.555 h 8.1641 l 4.8828,22.441 h 0.15625 l 4.8438,-22.441 h 8.2812 v 28.555 h -5.0391 v -19.355 q 0,-2.4023 0.27344,-4.9219 h -0.15625 l -5.4102,24.277 z"
           id="path90"
           inkscape:connector-curvature="0" />
        <path
           d="m 490.02,411.89 v 18.477 q 0,5.0976 -2.3047,7.793 -2.3047,2.6758 -6.6602,2.6758 -4.2578,0 -6.4844,-2.6562 -2.2266,-2.6758 -2.2266,-7.8906 v -18.398 h 5.2734 v 18.789 q 0,5.4492 3.6133,5.4492 1.6797,0 2.5976,-1.3867 0.9179,-1.3867 0.91797,-3.9453 v -18.906 z"
           id="path92"
           inkscape:connector-curvature="0" />
        <path
           d="m 494.94,440.44 v -28.555 h 5.3125 v 23.906 h 7.3633 v 4.6484 z"
           id="path94"
           inkscape:connector-curvature="0" />
        <path
           d="m 518.42,440.44 h -5.293 v -23.887 h -5.4688 v -4.668 h 16.23 v 4.668 h -5.4688 z"
           id="path96"
           inkscape:connector-curvature="0" />
        <path
           d="m 527.89,440.44 v -28.555 h 5 v 28.555 z"
           id="path98"
           inkscape:connector-curvature="0" />
      </g>
      <g
         transform="matrix(0.28705,0,0,0.28705,-38.38,5.4607)"
         aria-label="TRAIN"
         id="g114"
         style="stroke:#354952">
        <g
           id="g110"
           style="fill:#354952">
          <path
             d="m 554.88,573.64 h -8.6499 v -39.036 h -8.9372 v -7.6286 h 26.524 v 7.6286 h -8.9372 z"
             id="path102"
             inkscape:connector-curvature="0" />
          <path
             d="m 577.48,555.47 v 18.162 h -8.6819 v -46.665 h 11.363 q 7.2136,0 10.629,3.4153 3.4472,3.4153 3.4472,10.437 0,8.8414 -5.9688,12.352 l 8.9691,20.46 h -9.2883 l -7.3732,-18.162 z m 0,-7.469 h 2.2343 q 3.0642,0 4.4048,-1.7236 1.3406,-1.7555 1.3406,-5.2027 0,-3.5749 -1.4363,-5.075 -1.4044,-1.5321 -4.3728,-1.5321 h -2.1705 z"
             id="path104"
             inkscape:connector-curvature="0" />
          <path
             d="m 623.57,573.64 -2.6812,-11.778 h -12.161 l -2.6812,11.778 h -8.6819 l 11.555,-46.857 h 11.778 l 11.586,46.857 z m -4.309,-19.47 -2.4896,-10.852 q -0.22343,-0.98948 -1.0214,-4.9474 -0.76605,-3.9898 -0.92564,-5.3304 -0.41494,2.745 -1.0533,6.0645 -0.63837,3.2876 -3.3195,15.066 z"
             id="path106"
             inkscape:connector-curvature="0" />
          <path
             d="m 637.96,573.64 v -46.665 h 8.1712 v 46.665 z"
             id="path108"
             inkscape:connector-curvature="0" />
        </g>
        <path
           d="m 688.68,573.64 h -10.597 l -14.427,-33.802 h -0.41494 q 0.79797,3.8622 0.79797,8.2988 v 25.503 h -8.0435 v -46.665 h 10.661 l 14.3,33.451 h 0.3511 q -0.60645,-3.3514 -0.60645,-7.9796 v -25.471 h 7.9796 z"
           id="path112"
           inkscape:connector-curvature="0"
           style="fill:none" />
      </g>
    </g>
    <g
       transform="matrix(0.40629,0,0,0.40629,-78.779,-73.017)"
       aria-label="MT"
       id="g122"
       style="fill:none;stroke:#354952">
      <path
         d="m 491.82,637.35 -6.2692,-28.076 h -0.24806 q 0.42847,3.2474 0.42847,5.9535 v 22.123 h -5.6829 v -32.97 h 9.4264 l 5.6378,25.911 h 0.18041 l 5.5927,-25.911 h 9.5617 v 32.97 h -5.8182 v -22.348 q 0,-2.7738 0.31571,-5.6829 h -0.1804 l -6.2467,28.031 z"
         id="path118"
         inkscape:connector-curvature="0" />
      <path
         d="m 526.39,637.35 h -6.1114 v -27.58 h -6.3143 v -5.3897 h 18.74 V 609.77 H 526.39 Z"
         id="path120"
         inkscape:connector-curvature="0" />
    </g>
  </g>
</svg>
