<?xml version="1.0" encoding="UTF-8" standalone="no"?>
<!-- Created with Inkscape (http://www.inkscape.org/) -->

<svg
   xmlns:dc="http://purl.org/dc/elements/1.1/"
   xmlns:cc="http://creativecommons.org/ns#"
   xmlns:rdf="http://www.w3.org/1999/02/22-rdf-syntax-ns#"
   xmlns:svg="http://www.w3.org/2000/svg"
   xmlns="http://www.w3.org/2000/svg"
   xmlns:sodipodi="http://sodipodi.sourceforge.net/DTD/sodipodi-0.dtd"
   xmlns:inkscape="http://www.inkscape.org/namespaces/inkscape"
   width="600"
   height="300"
   viewBox="0 0 98.748 49.374"
   version="1.1"
   id="svg8"
   inkscape:version="0.92.5 (2060ec1f9f, 2020-04-08)"
   sodipodi:docname="neural-bg.svg">
  <defs
     id="defs2" />
  <sodipodi:namedview
     id="base"
     pagecolor="#f8fffa"
     bordercolor="#666666"
     borderopacity="1.0"
     inkscape:pageopacity="0"
     inkscape:pageshadow="2"
     inkscape:zoom="0.7"
     inkscape:cx="430.13682"
     inkscape:cy="396.74355"
     inkscape:document-units="px"
     inkscape:current-layer="layer1"
     showgrid="false"
     units="px"
     inkscape:pagecheckerboard="false"
     scale-x="0.16458"
     inkscape:window-width="1848"
     inkscape:window-height="1016"
     inkscape:window-x="1992"
     inkscape:window-y="27"
     inkscape:window-maximized="1" />
  <metadata
     id="metadata5">
    <rdf:RDF>
      <cc:Work
         rdf:about="">
        <dc:format>image/svg+xml</dc:format>
        <dc:type
           rdf:resource="http://purl.org/dc/dcmitype/StillImage" />
        <dc:title></dc:title>
      </cc:Work>
    </rdf:RDF>
  </metadata>
  <g
     inkscape:label="Layer 1"
     inkscape:groupmode="layer"
     id="layer1"
     transform="translate(0,-217.62499)">
    <path
       d="m 25.38807,224.30286 c 0.108669,0.0825 0.237951,0.14247 0.380462,0.16954 0.01475,0.001 0.03025,0.002 0.04465,0.007 l 0.493145,9.34221 -17.4063841,9.20202 c -0.02439,-0.0316 -0.05215,-0.0607 -0.08101,-0.0887 L 25.388042,224.30301 m 24.446896,-11.93256 c 0.0958,0.0628 0.205578,0.10815 0.324311,0.13067 0.07727,0.0147 0.153201,0.018 0.226354,0.0125 l 4.316528,15.5276 -17.896296,0.64768 c -0.03886,-0.16814 -0.135217,-0.3228 -0.271091,-0.44039 l 13.300202,-15.87806 m 9.784405,5.91613 c -0.04444,0.0769 -0.07537,0.16289 -0.08705,0.25729 -0.05042,0.41131 0.268181,0.81296 0.711469,0.89688 0.112637,0.0212 0.222365,0.0199 0.324435,-4.3e-4 l 3.58136,7.63341 c -0.02213,0.0115 -0.04362,0.0233 -0.06507,0.0351 L 50.845062,212.31616 c 0.0139,-0.0132 0.02763,-0.0262 0.04048,-0.0397 l 8.734237,6.01029 m 5.761977,-24.26447 c 0.262919,0.0448 0.508677,-0.0331 0.674019,-0.19017 l 9.986074,7.82942 c -0.06002,0.0864 -0.100738,0.18769 -0.114362,0.30034 -0.03074,0.25035 0.07586,0.49671 0.263354,0.67033 l -15.357806,15.50952 c -0.09555,-0.0778 -0.208142,-0.13817 -0.332544,-0.17313 l 4.88143,-23.94657 m -6.817346,-10.17112 9.079672,9.17741 -1.40792,0.11305 c -0.08415,-0.29757 -0.349315,-0.54718 -0.688002,-0.61137 -0.184615,-0.0351 -0.361594,-0.009 -0.509158,0.063 l -6.474598,-8.74222 m 12.229825,-10.79105 c 0.120521,0.11105 0.273875,0.19261 0.446559,0.22554 0.09572,0.0181 0.188956,0.0191 0.277544,0.007 l 2.438406,6.97363 -15.273109,2.64064 c -0.02846,-0.073 -0.06741,-0.1425 -0.116377,-0.20577 l 12.226846,-9.6405 m 8.95752,-6.49389 c 0.123632,0.12268 0.285928,0.21317 0.470576,0.2477 0.118078,0.0223 0.23282,0.0194 0.339111,-0.004 l 4.376098,10.86073 c -0.16098,0.0627 -0.292416,0.17673 -0.369842,0.32639 l -12.45374,-5.20389 c 0.0085,-0.0327 0.01658,-0.0656 0.0209,-0.10038 0.02338,-0.19073 -0.03321,-0.37882 -0.144117,-0.53464 l 7.760963,-5.59177 m 2.41038,-29.43978 c 0.06868,-0.0363 0.130137,-0.0828 0.183411,-0.13713 l 9.727094,8.25036 -3.431355,3.31367 c -0.108197,-0.0809 -0.236144,-0.14086 -0.377858,-0.16691 -0.138986,-0.0269 -0.273411,-0.0192 -0.394862,0.018 l -5.706504,-11.27868 m 17.006645,-14.60027 c 0.0139,0.11268 0.0534,0.22161 0.11447,0.31957 l -5.726072,4.35892 -5.978824,-4.79573 c 0.05123,-0.0809 0.0846,-0.17534 0.09808,-0.27703 0.005,-0.0432 0.006,-0.087 0.0028,-0.12925 l 11.489516,0.52359 m 10.652917,6.41276 c -0.0371,0.0704 -0.0632,0.14882 -0.0738,0.2334 -0.0234,0.19166 0.0332,0.38066 0.14549,0.53667 l -4.47855,3.24958 -5.08097,-9.74639 c 0.1025,-0.0394 0.19338,-0.10141 0.26534,-0.17874 l 9.22251,5.90555 m 3.38328,18.71832 c -0.039,0.006 -0.077,0.0112 -0.11314,0.0235 l -7.60694,-14.58839 4.5062,-3.26956 c 0.12324,0.12217 0.28508,0.2112 0.46837,0.24656 0.0439,0.009 0.0871,0.0121 0.13,0.0135 l 2.61524,17.57521 M 98.388513,164.2626 c -0.0227,-0.0249 -0.0476,-0.0477 -0.0732,-0.0699 l 5.935807,-7.75229 c 0.0885,0.055 0.18871,0.0941 0.29651,0.11367 0.29627,0.0563 0.57295,-0.0446 0.73913,-0.23989 l 2.00987,1.3131 c -0.0395,0.0725 -0.067,0.15319 -0.0777,0.24068 -0.0221,0.17991 0.0271,0.35726 0.12521,0.50826 l -8.955517,5.88603 m 15.486237,23.0356 c -0.12006,0.0874 -0.20991,0.21008 -0.25248,0.35722 l -13.15518,-3.17239 c 0.0325,-0.40113 -0.28046,-0.78603 -0.713397,-0.86803 -0.0308,-0.004 -0.0595,-0.009 -0.0887,-0.0118 l -1.71514,-18.11061 c 0.093,-0.008 0.18038,-0.0327 0.25995,-0.0695 l 15.664917,21.87536 m -20.082264,23.22202 4.088797,-17.98442 15.796527,-4.34741 c 0.0421,0.0833 0.0989,0.16031 0.16774,0.22707 l -20.052805,22.10471 m 5.715988,24.59601 -8.470541,1.78106 -2.003256,-13.05717 c 0.107742,-0.0144 0.207523,-0.0517 0.294449,-0.10561 l 10.179328,11.38166 m 0.008,0.14493 -6.248431,14.49587 c -0.043,-0.0138 -0.08593,-0.0277 -0.131207,-0.036 -0.04516,-0.009 -0.08943,-0.0128 -0.133303,-0.0141 l -1.943387,-12.66764 8.456398,-1.77805 m 2.075517,24.139 c -0.13855,0.0101 -0.26635,0.0558 -0.37249,0.1282 l -8.006924,-8.30815 c 0.331025,-0.0381 0.595313,-0.27335 0.635678,-0.60232 0.03927,-0.32123 -0.146822,-0.63576 -0.441177,-0.79847 l 6.186516,-14.35241 1.998427,23.93319 m -20.204035,5.79925 c -0.09074,-0.0568 -0.19384,-0.0967 -0.304369,-0.11785 -0.183716,-0.0347 -0.35982,-0.009 -0.50701,0.0628 l -8.049562,-10.93558 19.763799,-3.53505 c 0.04951,0.12496 0.130887,0.2387 0.235975,0.33009 L 81.38802,265.19929 m -9.843091,-10.59196 c 0.0094,-0.0757 0.0061,-0.14965 -0.0081,-0.22185 l 0.836425,-0.15021 7.728401,10.49946 -8.762271,-9.72158 c 0.110443,-0.1043 0.185728,-0.24362 0.205325,-0.40596 M 54.81886,245.49765 c -0.241915,0.0865 -0.421009,0.28682 -0.458627,0.54823 l -9.418184,-0.74345 9.876843,0.19525 m -20.02676,-5.41935 c 0.0098,-0.0807 0.0055,-0.16139 -0.01112,-0.23913 l 5.151063,-1.03746 2.272339,5.64953 c -0.126089,0.05 -0.233255,0.13083 -0.311004,0.23545 l -7.166848,-4.38959 c 0.03374,-0.0671 0.0561,-0.14011 0.06546,-0.21887 m -7.617845,10.19217 c -0.275238,0.0135 -0.512068,0.16232 -0.624216,0.3901 L 9.0523429,243.68061 c 0.0062,-0.0293 0.01364,-0.0578 0.01773,-0.0883 0.01888,-0.15541 -0.01483,-0.31015 -0.08843,-0.44607 l 17.3331911,-9.16302 0.85964,16.28749 m 8.201837,-21.07767 c 0.07252,0.095 0.165995,0.17617 0.274219,0.23731 l -8.163393,20.88218 c -0.03388,-0.0129 -0.07021,-0.0211 -0.107282,-0.028 -0.01844,-0.004 -0.03763,-0.006 -0.05641,-0.008 l -0.863977,-16.36931 8.916585,-4.71337 M 56.5246,234.5978 c -0.223523,0.0589 -0.403657,0.21169 -0.483502,0.42146 l -19.227772,-6.04083 c 0.0027,-0.012 0.0048,-0.0259 0.0069,-0.0387 0.0045,-0.0371 0.005,-0.0736 0.0038,-0.11002 l 17.916688,-0.64832 1.783791,6.41649 m 7.256441,-6.74364 c 0.03183,0.13641 0.101291,0.26399 0.199204,0.36996 l -6.699316,6.53589 c -0.109774,-0.0843 -0.24107,-0.14636 -0.385932,-0.17396 -0.07731,-0.0146 -0.153402,-0.0182 -0.226377,-0.0125 l -1.778434,-6.39761 8.890854,-0.32175 m -2.950329,-8.51919 5.645678,5.38374 -1.631403,2.34822 c -0.05811,-0.0256 -0.120017,-0.0444 -0.184624,-0.0568 -0.132434,-0.0248 -0.260474,-0.0183 -0.376918,0.0145 l -3.576898,-7.62407 c 0.04421,-0.0177 0.08538,-0.0395 0.124344,-0.0646 M 76.457903,202.8053 70.35248,218.83191 c -0.03351,-0.009 -0.06637,-0.0196 -0.101246,-0.0262 -0.443264,-0.0839 -0.843542,0.18142 -0.893898,0.59282 l -7.93e-4,0.0175 -8.214097,-0.66008 c -0.0019,-0.18608 -0.07674,-0.36472 -0.201263,-0.50789 l 15.369357,-15.5212 c 0.04656,0.0297 0.09632,0.0552 0.147635,0.078 M 77.4443,192.3838 c 0.07499,0.26493 0.29361,0.49106 0.579903,0.58296 l -1.195316,8.40513 -0.0067,-0.002 c -0.22904,-0.0436 -0.446191,0.007 -0.609956,0.12216 l -8.257102,-8.34586 9.49022,-0.76249 m -18.795241,-8.87286 18.799122,8.46572 c -0.01225,0.0392 -0.0221,0.0795 -0.02732,0.12208 -0.006,0.0489 -0.0066,0.0978 -0.0022,0.14574 l -9.594447,0.77092 -9.272234,-9.37197 c 0.03798,-0.0396 0.07013,-0.0841 0.0975,-0.13224 m 19.246794,8.02119 c -0.169196,0.0567 -0.308889,0.16874 -0.393314,0.31889 l -18.799205,-8.4665 c 0.01173,-0.0396 0.02221,-0.0795 0.02743,-0.12197 0.0089,-0.0731 0.0057,-0.14624 -0.0075,-0.21712 l 15.28101,-2.64261 3.891072,11.12807 m 6.648044,-12.95015 c 0.06501,0.16735 0.187707,0.31483 0.347674,0.416 l -6.517763,12.52191 c -0.01953,-0.007 -0.03989,-0.009 -0.05913,-0.014 -0.09567,-0.018 -0.189001,-0.019 -0.277528,-0.007 l -3.888205,-11.12 10.394957,-1.79718 m -3.658156,-11.92975 8.057191,7.63989 -3.199919,3.49097 c -0.102536,-0.0716 -0.221516,-0.12479 -0.352188,-0.14898 -0.109013,-0.0206 -0.215225,-0.0201 -0.314472,-10e-4 L 80.699406,166.7675 c 0.06897,-0.0297 0.132123,-0.0685 0.187247,-0.1162 m 7.195512,-16.77482 c 0.154584,0.0289 0.303005,0.0155 0.434136,-0.0319 l 6.210739,10.04729 -13.766034,5.7791 c -0.07342,-0.0987 -0.169351,-0.18274 -0.281205,-0.24525 l 7.235874,-15.59807 c 0.05393,0.0196 0.108878,0.0372 0.166469,0.0486 m 4.107195,-4.5379 11.781011,9.9926 c -0.0248,0.033 -0.0479,0.0679 -0.0663,0.10532 L 88.956874,149.3793 c 0.0083,-0.031 0.01553,-0.0629 0.01936,-0.0953 0.02846,-0.23089 -0.05988,-0.45826 -0.220874,-0.6285 l 3.434063,-3.31639 M 82.529401,136.606 c 0.01068,-0.0862 0.0042,-0.17252 -0.01554,-0.25512 l 19.663529,-1.39008 c 0.0344,0.12466 0.0996,0.2417 0.18974,0.34022 l -10.193913,9.84376 -9.741593,-8.26226 c 0.05125,-0.081 0.08385,-0.17466 0.09758,-0.27628 m 19.746076,-2.23282 c -0.0633,0.0882 -0.10555,0.19153 -0.11958,0.30763 -0.005,0.0463 -0.006,0.092 -0.002,0.13775 l -19.687012,1.39282 c -0.04038,-0.0902 -0.09745,-0.17454 -0.168692,-0.24654 l 11.26788,-8.57812 8.709934,6.98635 m -2.394787,-11.12346 c 0.0386,0.008 0.0772,0.0111 0.1152,0.0132 l 2.703727,10.83108 c -0.12785,0.0305 -0.24199,0.0905 -0.33325,0.17564 l -8.687811,-6.96952 5.695824,-4.3361 c 0.1272,0.14211 0.30361,0.24713 0.50651,0.28552 m 3.637917,11.08381 c -0.12377,-0.12126 -0.28516,-0.21131 -0.46881,-0.24601 -0.0699,-0.0136 -0.13854,-0.0174 -0.20531,-0.0136 l -2.69965,-10.81529 c 0.0174,-0.004 0.034,-0.004 0.0505,-0.006 l 5.10451,9.79007 -1.78112,1.29187 m -0.0108,1.09918 c 0.13697,-0.10793 0.23078,-0.26289 0.2533,-0.44777 0.0234,-0.19166 -0.0332,-0.38072 -0.14537,-0.53665 l 1.75402,-1.27262 7.58735,14.55192 -9.44924,-12.29492 m 4.60564,21.84183 c -0.062,-0.0115 -0.12265,-0.0162 -0.18205,-0.0147 l -0.7627,-3.49091 5.70384,-4.82262 c 0.0293,0.0248 0.0603,0.0485 0.0927,0.0697 l -4.64984,8.32303 c -0.0635,-0.0286 -0.13072,-0.051 -0.20185,-0.0641 m -2.67129,-1.31387 c 0.0259,-0.21029 -0.045,-0.41697 -0.17885,-0.58141 l 1.77913,-1.50422 0.74263,3.40087 c -0.16475,0.034 -0.30812,0.11773 -0.4103,0.23773 l -2.00992,-1.31298 c 0.0394,-0.0724 0.0666,-0.15233 0.0774,-0.23988 m -7.546667,8.02974 c -0.15926,-0.0301 -0.31271,-0.0147 -0.44666,0.0357 l -2.512703,-4.06478 9.02992,-3.79086 c 0.0452,0.0659 0.0998,0.12713 0.16178,0.18132 l -5.935347,7.75162 c -0.0902,-0.0523 -0.19026,-0.0912 -0.29713,-0.11297 m 1.22751,19.76199 -9.976532,-9.45981 8.214272,-8.96185 c 0.10262,0.072 0.22118,0.12584 0.35232,0.14944 0.0308,0.004 0.0594,0.009 0.0886,0.0122 l 1.71519,18.11033 c -0.14869,0.0148 -0.28441,0.0666 -0.394,0.14983 m -9.494932,10.90496 c -0.03783,-0.0748 -0.08696,-0.14479 -0.146184,-0.20691 l 9.705566,-9.51899 c 0.0712,0.0543 0.15097,0.0992 0.23874,0.13016 l -1.67298,7.35837 -8.124252,2.23586 m -0.457465,1.01025 c 0.28309,-0.0697 0.499669,-0.28888 0.535939,-0.58403 0.0121,-0.099 0.0023,-0.19761 -0.02506,-0.29131 l 8.034518,-2.21118 -4.136188,18.19276 c -0.05232,-0.006 -0.10382,-0.006 -0.153887,-0.001 l -4.255511,-15.10418 m -0.234504,26.67672 c -0.149753,-0.0283 -0.294021,-0.016 -0.422005,0.0278 l -4.338253,-7.54834 8.686661,-2.97667 c 0.08048,0.13893 0.202596,0.257 0.351865,0.33644 l -4.160605,10.1928 c -0.03871,-0.0118 -0.07726,-0.0238 -0.117638,-0.0315 m -1.807393,15.37499 1.699439,-13.87473 c 0.01982,9.5e-4 0.03922,0.002 0.05868,0.004 l 2.00677,13.0797 -3.764857,0.79159 m 5.631019,12.01494 -5.38211,-10.50107 c 0.201739,-0.10137 0.346576,-0.28908 0.375524,-0.52539 0.04454,-0.36363 -0.199453,-0.71925 -0.562803,-0.85496 l 3.724989,-0.78322 1.940043,12.64515 c -0.03268,0.004 -0.0645,0.0119 -0.09559,0.0193 m -26.082517,-3.47356 c 0.128374,-0.0964 0.221262,-0.23363 0.256262,-0.3984 l 25.266293,4.5062 0.03819,0.0392 c 5.49e-4,0.0426 0.0044,0.0847 0.01243,0.12645 l -19.818026,3.54486 -5.754832,-7.81845 m 4.156194,7.44832 c -0.137718,-0.0262 -0.271466,-0.0181 -0.391842,0.0165 l -3.811259,-7.29302 5.648292,7.67318 -0.78216,0.13989 c -0.104468,-0.26408 -0.353144,-0.47828 -0.663057,-0.53739 m -14.967131,-7.07132 7.586049,4.02566 -3.040229,5.85414 c -0.05692,-0.0247 -0.117852,-0.0431 -0.18101,-0.055 -0.1213,-0.0228 -0.238586,-0.0198 -0.347355,0.006 l -4.330672,-9.56404 c 0.13025,-0.0573 0.239918,-0.14925 0.313209,-0.26672 m -12.61531,-1.82907 12.980769,-8.99234 c 0.12477,0.12786 0.291177,0.22203 0.480903,0.2571 0.215109,0.0408 0.419751,-0.001 0.579487,-0.10148 l 8.251383,9.12082 c -0.109932,0.10435 -0.184774,0.24328 -0.204541,0.40556 -0.0026,0.0219 -0.0038,0.0441 -0.0045,0.066 l -21.963746,-0.43462 c -0.01496,-0.11348 -0.05591,-0.22396 -0.118908,-0.3219 m 21.226468,-16.30923 c 0.02821,0.006 0.05581,0.009 0.08346,0.0118 l 0.49037,5.58139 -7.483527,1.05789 c -0.03742,-0.10576 -0.09716,-0.20438 -0.175448,-0.28917 l 6.699291,-6.53583 c 0.109866,0.0844 0.24104,0.14636 0.385871,0.17404 m 2.109833,-3.67506 7.779308,7.41841 c -0.0454,0.0511 -0.08256,0.10927 -0.110873,0.17299 l -8.907914,-4.40034 c 0.01029,-0.0357 0.01873,-0.0712 0.02347,-0.10886 0.03701,-0.30269 -0.126025,-0.5995 -0.391146,-0.76907 l 1.607008,-2.31323 m 12.249404,-32.03212 4.28336,5.48298 -5.753928,3.42599 c -0.09826,-0.12606 -0.233513,-0.22823 -0.391702,-0.28858 l 1.196332,-8.41307 c 0.261983,0.0376 0.505454,-0.0443 0.665909,-0.20729 m 10.157225,1.39458 c -0.06717,-0.0125 -0.133032,-0.0163 -0.197039,-0.014 l -1.187183,-5.47852 11.355109,-4.01137 c 0.0306,0.0528 0.0672,0.1018 0.10955,0.14713 l -9.707122,9.52037 c -0.107044,-0.0796 -0.234058,-0.1373 -0.373225,-0.16376 m 4.131751,16.66968 -9.792797,-12.53549 4.954969,-2.95026 c 0.128291,0.15213 0.311317,0.26556 0.523595,0.30584 0.07287,0.0138 0.144276,0.0173 0.213283,0.0131 l 4.256453,15.1069 c -0.05461,0.0149 -0.106871,0.0342 -0.155307,0.0596 m -9.024134,3.83828 -6.867141,-11.94871 c 0.07577,-0.0501 0.139529,-0.11459 0.189387,-0.1895 l 15.388695,8.63112 c -0.02591,0.059 -0.04442,0.1222 -0.05285,0.18998 -0.01409,0.11528 0.0017,0.22958 0.04021,0.33654 l -8.698575,2.98087 m 3.95213,8.17395 -17.086889,-3.23708 c 0.0021,-0.0916 -0.01397,-0.18173 -0.04469,-0.26716 l 13.11686,-4.49477 4.344827,7.55975 c -0.165103,0.0938 -0.286954,0.2477 -0.330089,0.43928 m -21.105061,22.85597 c 9.72e-4,-0.0883 -0.01527,-0.17492 -0.04491,-0.25735 l 15.555072,-5.30454 9.961716,9.76976 c -0.07923,0.084 -0.137671,0.18736 -0.165733,0.30539 L 66.950791,245.7247 m 3.119675,-25.43107 c 0.09912,0.0188 0.195804,0.0192 0.287173,0.005 l 4.273253,11.75723 c -0.05818,0.0239 -0.111786,0.0553 -0.160598,0.0923 l -7.801226,-7.43911 3.134756,-4.51221 c 0.08156,0.0442 0.171441,0.0772 0.266579,0.0966 m 0.792126,-1.06182 c -0.0836,-0.14367 -0.210926,-0.26549 -0.367359,-0.34496 l 2.348264,-6.16418 3.761103,-9.87301 c 0.01132,0.002 0.0227,0.008 0.03629,0.007 0.169191,0.0321 0.332213,0.0126 0.471882,-0.0449 l 6.855831,11.92834 -13.104811,4.49066 m 15.380067,18.90279 -10.465814,-5.08061 c 0.01624,-0.0456 0.0279,-0.0942 0.03402,-0.14499 0.0248,-0.20192 -0.03976,-0.40129 -0.163976,-0.56213 l 3.550097,-2.46554 7.164186,8.1097 c -0.04542,0.0428 -0.08588,0.0903 -0.118546,0.14354 m -10.602978,-4.85479 c 0.02742,-0.0306 0.05301,-0.0633 0.07547,-0.0982 l 6.339135,3.07443 4.128902,2.00246 c -0.01655,0.0457 -0.02787,0.0942 -0.03399,0.14464 -0.01403,0.11517 0.0015,0.22889 0.03981,0.33562 l -3.697548,1.26089 -6.851478,-6.71968 m -8.795461,12.05553 c -0.05528,-0.0954 -0.129692,-0.1809 -0.219402,-0.25096 l 8.028196,-11.6773 c 0.08064,0.0438 0.169323,0.0762 0.263371,0.0948 0.233915,0.0442 0.455099,-0.0101 0.619907,-0.12972 l 6.808369,6.6772 -15.500516,5.28597 m 7.681395,-12.01155 -8.028171,11.67724 c -0.08107,-0.0431 -0.169317,-0.0762 -0.263384,-0.0948 -0.02814,-0.006 -0.0558,-0.009 -0.08333,-0.0117 l -0.938448,-10.68129 9.031321,-1.2767 c 0.0528,0.14978 0.151536,0.28478 0.282167,0.38702 m 0.573349,-1.31177 c -0.100061,-0.019 -0.197552,-0.0194 -0.28969,-0.005 l -4.309137,-11.74422 c 0.04969,-0.0178 0.09681,-0.0399 0.14085,-0.0668 l 8.455944,9.57202 -3.552509,2.46743 c -0.120641,-0.10999 -0.273426,-0.19125 -0.445628,-0.22377 m 17.527996,17.772 c -0.0349,0.017 -0.06837,0.0361 -0.0991,0.059 l -9.920401,-9.72923 3.642858,-1.24233 c 0.12333,0.21302 0.343876,0.37846 0.610262,0.42905 0.135373,0.0258 0.266675,0.0183 0.385219,-0.0162 l 1.668814,3.25618 3.712494,7.24331 M 88.03949,223.00538 c -0.0038,0.16236 0.04848,0.32005 0.141079,0.45457 l -8.96786,6.22841 -8.459565,-9.57612 c 0.09775,-0.0903 0.168748,-0.20731 0.19952,-0.34392 l 17.086644,3.23707 m -4.824995,-24.6132 9.796428,12.5401 c -0.04911,0.0386 -0.09143,0.0846 -0.127483,0.13537 l -14.046178,-7.87763 -1.347118,-0.75547 c 0.02146,-0.0532 0.03678,-0.10946 0.04429,-0.16943 0.01881,-0.15342 -0.01385,-0.30545 -0.085,-0.44019 l 5.765264,-3.43252 m -4.186558,-5.99196 c 0.0077,-0.0624 0.006,-0.12491 -0.0028,-0.18604 l 9.077739,2.56314 -2.61e-4,8.8e-4 c -0.02014,0.16491 0.0196,0.32774 0.102121,0.46957 l -4.9613,2.95408 -4.31467,-5.52319 c 0.05183,-0.0818 0.08633,-0.17573 0.09922,-0.27894 m 6.509297,-13.27988 c 0.218074,-0.0445 0.39963,-0.1769 0.496481,-0.36443 l 10.129778,4.21935 2.71856,1.1323 c -0.009,0.032 -0.0165,0.0651 -0.0205,0.0994 -0.0144,0.11786 0.002,0.23458 0.0425,0.34354 l -11.32309,4.00002 -2.043718,-9.43026 m 2.596451,15.52315 -2.077282,-0.58656 -7.070076,-1.99631 c -0.03489,-0.0959 -0.08856,-0.18525 -0.157721,-0.26394 l 8.644348,-3.05366 1.180819,5.44827 c -0.24496,0.055 -0.442154,0.22136 -0.520077,0.45229 m -2.923673,-15.52198 c 0.06166,0.0115 0.121958,0.0162 0.181016,0.0146 l 2.05094,9.46359 -8.731553,3.08462 c -0.05758,-0.0455 -0.121148,-0.0843 -0.189879,-0.11535 l 6.507795,-12.50299 c 0.05725,0.025 0.118376,0.0434 0.181746,0.0554 m -19.911509,49.02077 8.917411,4.40491 c -0.004,0.019 -0.0078,0.0379 -0.01024,0.0577 -0.008,0.0649 -0.0058,0.12975 0.0038,0.19317 l -9.009139,1.27357 -0.488483,-5.56011 c 0.25595,-0.021 0.474642,-0.15975 0.586747,-0.36891 m -7.690205,7.33965 c 0.0078,-0.0651 0.0057,-0.12972 -0.0038,-0.19304 l 7.461535,-1.05482 0.936587,10.66002 c -0.128004,0.0105 -0.246535,0.0506 -0.347431,0.11397 l -8.251518,-9.12053 c 0.109887,-0.10424 0.184824,-0.24319 0.204583,-0.4056 m -1.679785,11.03338 c 0.01707,-0.0472 0.02987,-0.0983 0.03645,-0.15141 0.0065,-0.0523 0.0068,-0.10327 0.002,-0.15473 l 9.390432,-0.44997 c 0.05075,0.20627 0.18822,0.39155 0.377974,0.5115 l -2.218196,4.2713 -7.588845,-4.02726 m 14.122138,7.49444 -6.398827,-3.39569 2.219068,-4.2728 c 0.05696,0.0249 0.117831,0.0429 0.181077,0.0552 0.137724,0.0262 0.271338,0.0183 0.391594,-0.0164 l 3.867534,7.40057 c -0.105869,0.0544 -0.1954,0.13274 -0.260323,0.2296 m -9.501359,2.57878 3.039676,-5.85334 6.397799,3.39496 c -0.02204,0.0543 -0.03805,0.1118 -0.04551,0.17284 -0.01168,0.0954 -0.0028,0.18998 0.02197,0.28042 l -9.092592,2.36123 c -0.06905,-0.14301 -0.180791,-0.26748 -0.321482,-0.35602 m 26.419385,-18.78954 c -0.183982,-0.019 -0.356805,0.021 -0.496506,0.10741 l -7.160545,-8.10559 8.963613,-6.2253 c 0.108233,0.11063 0.247665,0.19575 0.406256,0.23985 l -1.713414,13.98549 m 2.085442,-63.40544 9.968682,9.45235 c -0.0358,0.0404 -0.0664,0.085 -0.0912,0.13367 l -12.848334,-5.35169 c 0.009,-0.032 0.0165,-0.065 0.02056,-0.0994 0.02949,-0.24108 -0.06823,-0.47817 -0.243046,-0.65067 l 3.193514,-3.48393 m -7.936693,-8.17309 c 0.0079,-0.0642 0.0059,-0.12771 -0.0034,-0.19018 l 15.910099,-1.16821 c 0.0382,0.13823 0.11514,0.26618 0.22091,0.37035 l -8.207954,8.95472 -8.055155,-7.63799 c 0.0716,-0.0925 0.119638,-0.20378 0.134989,-0.32913 m 13.688043,-6.20453 2.517327,4.07192 c -0.17261,0.10631 -0.29403,0.28018 -0.32037,0.49412 -0.006,0.0471 -0.006,0.0943 -0.003,0.14041 l -15.920124,1.16848 c -0.01158,-0.0327 -0.02472,-0.0646 -0.04041,-0.0959 l 13.765999,-5.77922 m -5.897184,-10.51051 14.948056,6.05797 c -0.008,0.0301 -0.0145,0.0602 -0.0183,0.0916 -0.0162,0.13274 0.006,0.26486 0.0586,0.3855 l -9.037585,3.79409 -6.213889,-10.05208 c 0.112281,-0.067 0.204584,-0.16155 0.263188,-0.27727 m 13.959856,-13.9289 c 0.026,0.006 0.0519,0.008 0.0774,0.0111 l 1.56021,19.46233 c -0.16948,0.0118 -0.32272,0.0765 -0.44049,0.17901 l -11.775883,-9.98886 10.189573,-9.8397 c 0.11025,0.086 0.24274,0.14828 0.38915,0.17582 m 1.8638,19.48596 c -0.0264,-0.003 -0.0517,-0.008 -0.0777,-0.0107 l -1.53432,-19.14107 3.88696,17.79761 -1.84712,1.56165 c -0.11772,-0.10133 -0.2641,-0.17638 -0.42777,-0.2077 m 7.85805,-6.80687 c -0.0259,0.21025 0.0448,0.41695 0.1788,0.58138 l -5.63531,4.76437 -3.93713,-18.02587 c 0.0687,-0.0143 0.1337,-0.0366 0.19402,-0.0676 l 9.45281,12.29994 c -0.13644,0.10767 -0.23077,0.26285 -0.25323,0.44779 m -51.458985,70.63663 8.226491,0.66112 c 0.02183,0.21674 0.140906,0.41871 0.319337,0.55945 l -3.119151,4.48955 -5.616475,-5.35594 c 0.09607,-0.0936 0.163336,-0.21454 0.189938,-0.35411 m -24.780929,10.6114 c 0.195547,-0.0664 0.351827,-0.20689 0.427521,-0.39449 l 19.230238,6.04148 c -0.0012,0.009 -0.0034,0.0179 -0.0046,0.0265 -0.0099,0.0807 -0.0053,0.16087 0.0114,0.23842 l -15.991622,3.2219 -3.672903,-9.13387 m -1.61038,10.19819 c -0.09406,-0.22405 -0.292759,-0.40892 -0.543373,-0.49122 l 1.732384,-9.67955 c 0.09656,0.0183 0.190823,0.0193 0.280183,0.006 l 3.671015,9.12881 -5.140164,1.03582 m -0.69078,-0.52569 c -0.429246,-0.0651 -0.810616,0.19604 -0.860041,0.5969 -0.03541,0.28899 0.111755,0.57233 0.355627,0.74527 l -5.858432,9.70712 8.088244,-20.69043 -1.725573,9.64087 m 8.613271,5.23546 c -0.110391,-0.02 -0.21734,-0.0197 -0.31759,-4.9e-4 l -2.267379,-5.63857 15.980387,-3.21961 c 0.02173,0.0515 0.04936,0.10068 0.0814,0.14742 l -12.977169,8.98996 c -0.126441,-0.1386 -0.300141,-0.24132 -0.499564,-0.27903 m 12.742361,1.09737 8.659383,0.17066 -8.123818,0.39001 c -0.07355,-0.24784 -0.27281,-0.4612 -0.535468,-0.55931 m 58.194776,-57.71868 c -0.007,0.0896 0.002,0.17787 0.0269,0.26237 l -15.706847,4.32271 1.65317,-7.2718 4.6e-4,2.6e-4 c 0.40348,0.0765 0.770237,-0.1368 0.871087,-0.4858 l 13.1551,3.17249 M 86.626816,122.68072 c 0.05037,0.0177 0.102155,0.0338 0.155989,0.0441 0.279951,0.0526 0.542267,-0.0346 0.710656,-0.20778 l 5.95125,4.7739 -11.26318,8.57431 c -0.06326,-0.0458 -0.133312,-0.0834 -0.208604,-0.11184 l 2.787823,-7.83118 1.865783,-5.24103 m -14.562448,50.24069 12.453632,5.20402 c -0.0091,0.0321 -0.01654,0.0656 -0.02086,0.10028 -0.009,0.0732 -0.0059,0.14608 0.0074,0.21712 l -10.403165,1.79869 -2.441149,-6.98174 c 0.176499,-0.0589 0.321513,-0.17841 0.404261,-0.33852 m -5.805293,20.50583 c 0.0059,-0.0487 0.0064,-0.0976 0.0022,-0.14574 l 1.512051,-0.12153 8.137012,8.22449 -9.765923,-7.65694 c 0.06015,-0.0865 0.100727,-0.18768 0.114578,-0.30019 m -15.524359,18.97463 13.239408,14.7925 c -0.111651,0.10473 -0.187677,0.24485 -0.207863,0.40855 -0.0044,0.0371 -0.0048,0.074 -0.0037,0.11072 l -8.911074,0.32262 -4.3218,-15.54653 c 0.07372,-0.0195 0.142815,-0.0491 0.205201,-0.0877 m -24.152303,11.72234 8.665069,4.37101 c -0.01466,0.0449 -0.02655,0.0912 -0.03264,0.14022 -0.01858,0.15087 0.01307,0.30035 0.08183,0.43342 l -8.846172,4.6766 -0.488442,-9.25841 c 0.268758,-0.0106 0.501471,-0.14805 0.620405,-0.36277 m -19.1182411,19.1648 c -0.05027,0.41099 0.268316,0.81252 0.711652,0.89657 0.359332,0.0682 0.690554,-0.0937 0.829791,-0.37647 l 17.4975351,6.98034 c -0.0065,0.0291 -0.01352,0.0578 -0.01737,0.0884 -0.05034,0.41091 0.268309,0.81249 0.711553,0.89652 0.443241,0.0839 0.843779,-0.18187 0.894055,-0.59283 0.03538,-0.28904 -0.111941,-0.57246 -0.35573,-0.74536 l 5.938145,-9.83898 c 0.06974,0.0341 0.145062,0.0595 0.224694,0.0738 0.305185,0.0589 0.590574,-0.05 0.754827,-0.2578 l 7.169959,4.39189 c -0.02817,0.0616 -0.0483,0.12841 -0.05718,0.20014 -0.0505,0.41191 0.267978,0.81338 0.711231,0.89739 0.439971,0.0834 0.837409,-0.17774 0.892427,-0.58426 l 10.984982,0.86672 c 0.02051,0.3644 0.316888,0.69571 0.7145,0.77148 0.121182,0.0227 0.238915,0.0187 0.347218,-0.006 l 4.331246,9.56329 c -0.219917,0.0969 -0.379794,0.29244 -0.410413,0.54213 -0.05026,0.41101 0.268331,0.81253 0.711651,0.8966 0.443279,0.084 0.843301,-0.1811 0.894001,-0.5929 0.01159,-0.0953 0.0029,-0.18998 -0.02198,-0.28043 l 9.092023,-2.36043 c 0.115991,0.23769 0.350267,0.42657 0.638314,0.48043 0.214137,0.0413 0.418635,-9.7e-4 0.57798,-0.10047 l 9.165431,10.16916 c -0.110805,0.10506 -0.186243,0.2444 -0.20592,0.40672 -0.05061,0.41187 0.267978,0.81337 0.711218,0.89738 0.443355,0.084 0.843799,-0.18187 0.893967,-0.59286 0.03182,-0.25952 -0.08331,-0.51554 -0.284037,-0.68997 l 11.138763,-14.19564 c 0.09073,0.0567 0.193961,0.0967 0.304673,0.11732 0.02251,0.003 0.04403,0.007 0.06571,0.009 l 8.093096,8.39683 c -0.0998,0.10236 -0.16721,0.23504 -0.18598,0.3881 -0.0504,0.41142 0.26811,0.81292 0.71138,0.89683 0.44338,0.0839 0.84357,-0.18143 0.89412,-0.59266 0.0504,-0.41134 -0.26819,-0.81296 -0.71157,-0.89693 -0.0268,-0.006 -0.0536,-0.008 -0.0801,-0.0115 l -2.019357,-24.18314 0.0546,-0.0108 -0.0611,-0.0683 -0.0234,-0.2823 -0.0745,0.17262 -10.176663,-11.37874 c 0.111695,-0.10473 0.18787,-0.24482 0.208108,-0.4086 0.03993,-0.32587 -0.152117,-0.64491 -0.453803,-0.80552 l 4.160636,-10.19265 c 0.03871,0.0118 0.07729,0.0236 0.117639,0.0314 0.443319,0.0839 0.843545,-0.18143 0.893978,-0.59274 0.04709,-0.38492 -0.228744,-0.76106 -0.627503,-0.87683 l 20.223415,-22.29284 c 0.10192,0.0707 0.21878,0.12461 0.34886,0.14715 0.44327,0.0839 0.84348,-0.18152 0.89391,-0.59283 0.0504,-0.4114 -0.26813,-0.813 -0.71151,-0.897 -0.17985,-0.0338 -0.35208,-0.0101 -0.49729,0.0578 L 98.331203,165.35205 c 0.14845,-0.10731 0.25136,-0.26907 0.27527,-0.46408 0.022,-0.17992 -0.0265,-0.35796 -0.1251,-0.5083 l 8.955627,-5.88645 c 0.12603,0.13519 0.2975,0.23462 0.49352,0.27165 0.44336,0.084 0.84336,-0.18099 0.89397,-0.59286 0.0364,-0.29687 -0.11996,-0.5882 -0.37617,-0.75924 l 4.64986,-8.32306 c 0.0625,0.0305 0.1308,0.0511 0.2015,0.0648 0.44324,0.0839 0.84373,-0.18185 0.89397,-0.59284 0.0506,-0.41184 -0.26798,-0.81338 -0.71126,-0.89738 -0.0436,-0.009 -0.0872,-0.0124 -0.12978,-0.0139 l -2.61566,-17.57427 c 0.32171,-0.0445 0.57689,-0.27692 0.6164,-0.59938 0.0506,-0.41182 -0.26795,-0.81335 -0.71128,-0.89745 -0.29934,-0.0566 -0.57873,0.0468 -0.7441,0.24566 l -9.21554,-5.90198 c 0.0472,-0.0776 0.079,-0.1667 0.0913,-0.26491 0.0501,-0.41101 -0.26838,-0.81255 -0.71163,-0.8966 -0.443347,-0.084 -0.843347,0.1811 -0.894047,0.59284 -0.002,0.0124 -8.1e-4,0.0211 -0.002,0.0315 l -11.508938,-0.52481 c -0.07942,-0.30422 -0.347692,-0.56118 -0.691924,-0.62673 -0.443695,-0.0833 -0.843799,0.18185 -0.894045,0.59281 -0.03862,0.3135 0.136934,0.62015 0.417734,0.78635 l -4.662372,13.09684 -0.0099,-0.002 c -0.443326,-0.084 -0.843341,0.18099 -0.893561,0.59204 -0.05061,0.41184 0.267974,0.81332 0.711243,0.89739 0.139514,0.0262 0.274234,0.0183 0.395739,-0.0184 l 5.706777,11.27786 c -0.19757,0.10247 -0.338344,0.28808 -0.366702,0.52113 -0.03808,0.30961 0.13271,0.61373 0.408183,0.78125 l -7.238127,15.60223 c -0.04417,-0.0145 -0.0887,-0.0289 -0.135504,-0.0375 -0.443369,-0.084 -0.843609,0.18132 -0.893977,0.59276 -0.02335,0.1907 0.0332,0.37874 0.144072,0.53451 l -7.761007,5.59193 c -0.123556,-0.12275 -0.285887,-0.21304 -0.470481,-0.24769 -0.443376,-0.084 -0.84352,0.18133 -0.89398,0.59278 -0.02464,0.20145 0.03944,0.40029 0.16313,0.5608 l -12.226794,9.64069 c -0.120408,-0.11107 -0.273718,-0.19267 -0.446478,-0.22551 -0.443306,-0.084 -0.84362,0.18133 -0.893984,0.59276 -0.05034,0.41134 0.268196,0.81295 0.711575,0.89697 0.1847,0.0351 0.36148,0.008 0.509109,-0.063 l 6.572713,8.87525 c -0.142895,0.10763 -0.241671,0.26604 -0.26484,0.45646 -0.04522,0.36964 0.207656,0.73054 0.580971,0.86105 l -4.881835,23.94825 0.07305,0.0189 c -0.288555,-0.0545 -0.558172,0.0392 -0.725489,0.22501 l -8.734294,-6.01111 c 0.04447,-0.077 0.07556,-0.16271 0.087,-0.25724 0.05043,-0.41127 -0.268149,-0.8128 -0.711495,-0.8969 -0.443286,-0.0839 -0.843468,0.18152 -0.893868,0.59279 -0.03091,0.25194 0.07691,0.49979 0.266836,0.67373 l -13.302841,15.8802 c -0.09021,-0.0564 -0.192831,-0.0961 -0.303063,-0.11656 -0.338563,-0.0642 -0.651384,0.076 -0.803075,0.32864 l -8.669512,-4.37342 c 0.01101,-0.0387 0.02101,-0.0769 0.02621,-0.11784 0.05024,-0.41141 -0.268188,-0.81299 -0.711491,-0.89691 -0.443364,-0.084 -0.843533,0.18132 -0.893984,0.59276 -0.02796,0.22974 0.05885,0.45623 0.218366,0.62621 L 8.7009609,242.83809 c -0.09984,-0.07 -0.216598,-0.11844 -0.342545,-0.14322 -0.443326,-0.084 -0.843449,0.18101 -0.89396,0.59286"
       style="fill:#c2c2c2;fill-opacity:1;fill-rule:nonzero;stroke:none;stroke-width:0.00977524"
       id="path104"
       inkscape:connector-curvature="0" />
  </g>
</svg>
