<?xml version="1.0" encoding="UTF-8" standalone="no"?>
<!-- Created with Inkscape (http://www.inkscape.org/) -->

<svg
   xmlns:dc="http://purl.org/dc/elements/1.1/"
   xmlns:cc="http://creativecommons.org/ns#"
   xmlns:rdf="http://www.w3.org/1999/02/22-rdf-syntax-ns#"
   xmlns:svg="http://www.w3.org/2000/svg"
   xmlns="http://www.w3.org/2000/svg"
   xmlns:sodipodi="http://sodipodi.sourceforge.net/DTD/sodipodi-0.dtd"
   xmlns:inkscape="http://www.inkscape.org/namespaces/inkscape"
   width="273.06653mm"
   height="273.06653mm"
   viewBox="0 0 273.06653 273.06653"
   version="1.1"
   id="svg992"
   inkscape:version="0.92.5 (2060ec1f9f, 2020-04-08)"
   sodipodi:docname="nile-resurrect.svg">
  <defs
     id="defs986">
    <mask
       maskUnits="userSpaceOnUse"
       id="mask2686">
      <path
         style="fill:#ffffff;fill-opacity:1;stroke:#000000;stroke-width:5.07070541;stroke-linejoin:round;stroke-miterlimit:4;stroke-dasharray:none;stroke-opacity:1"
         id="path2688"
         sodipodi:type="arc"
         sodipodi:cx="110.77232"
         sodipodi:cy="130.21252"
         sodipodi:rx="133.99791"
         sodipodi:ry="133.99791"
         sodipodi:start="0"
         sodipodi:end="6.2809019"
         d="M 244.77023,130.21252 A 133.99791,133.99791 0 0 1 110.84882,264.21041 133.99791,133.99791 0 0 1 -23.225499,130.36551 133.99791,133.99791 0 0 1 110.54284,-3.7851886 133.99791,133.99791 0 0 1 244.76988,129.90655"
         sodipodi:open="true" />
    </mask>
    <mask
       maskUnits="userSpaceOnUse"
       id="mask2705">
      <circle
         style="display:inline;fill:#ffffff;fill-opacity:1;stroke:#000000;stroke-width:4.00366116;stroke-linejoin:round;stroke-miterlimit:4;stroke-dasharray:none;stroke-opacity:1"
         id="circle2707"
         cx="109.96951"
         cy="105.30479"
         r="105.80032" />
    </mask>
  </defs>
  <sodipodi:namedview
     id="base"
     pagecolor="#ffffff"
     bordercolor="#666666"
     borderopacity="1.0"
     inkscape:pageopacity="0.0"
     inkscape:pageshadow="2"
     inkscape:zoom="0.49497475"
     inkscape:cx="333.5659"
     inkscape:cy="464.91357"
     inkscape:document-units="mm"
     inkscape:current-layer="layer1"
     showgrid="false"
     inkscape:window-width="1848"
     inkscape:window-height="1016"
     inkscape:window-x="72"
     inkscape:window-y="27"
     inkscape:window-maximized="1"
     fit-margin-top="0"
     fit-margin-left="0"
     fit-margin-right="0"
     fit-margin-bottom="0" />
  <metadata
     id="metadata989">
    <rdf:RDF>
      <cc:Work
         rdf:about="">
        <dc:format>image/svg+xml</dc:format>
        <dc:type
           rdf:resource="http://purl.org/dc/dcmitype/StillImage" />
        <dc:title></dc:title>
      </cc:Work>
    </rdf:RDF>
  </metadata>
  <g
     inkscape:groupmode="layer"
     id="layer3"
     inkscape:label="Circle"
     transform="translate(25.760939,6.3207378)"
     style="display:inline">
    <circle
       style="display:inline;fill:#ffffff;fill-opacity:1;stroke:#000000;stroke-width:5.07070541;stroke-linejoin:round;stroke-miterlimit:4;stroke-dasharray:none;stroke-opacity:1"
       id="path2340-3"
       cx="110.77232"
       cy="130.21252"
       r="133.99791" />
  </g>
  <g
     inkscape:label="Nile"
     inkscape:groupmode="layer"
     id="layer1"
     style="display:inline"
     transform="translate(25.760939,6.3207378)">
    <g
       id="g2393"
       mask="url(#mask2705)"
       transform="matrix(1.2665171,0,0,1.2665171,-28.197208,-1.328379)">
      <g
         style="fill:none;fill-rule:evenodd;stroke:none;stroke-width:1"
         transform="matrix(0.26458333,0,0,0.26458333,-14.454872,135.35613)"
         id="body/mono/Striped-Tee">
        <path
           style="fill:#ffffff"
           inkscape:connector-curvature="0"
           d="m 47.4686,592.4648 c -2.994,27.446 -9.776,57.68 3.152,83.575 -8.142,0.365 -1.537,2.72 2.857,3.53 2.509,1.942 5.881,2.711 9.052,2.441 16.464,3.48 33.46,4.741 50.177,6.71 208.718,17.336 418.835,12.732 627.943,5.262 6.801,-0.295 11.364,-5.235 11.885,-11.889 7.664,-97.922 11.478,-196.147 11.283,-294.368 -3.405,-34.517 22.684,-21.048 8.767,-66.532 -11.188,-47.975 -27.747,-94.672 -48.863,-139.168 -14.596,-28.955 -28.349,-59.422 -50.596,-83.433 -7.03,-0.971 -13.015,-7.954 -18.956,-11.854 -6.017,-1.172 -10.477,-6.281 -16.575,-7.852 -11.621,-3.023 -37.627,-9.452 -47.524,-1.72 -0.391,-0.107 -0.787,-0.198 -1.178,-0.309 -1.937,2.148 -4.598,0.537 -6.043,-1.393 -4.945,-3.839 -26.5594,-4.233775 -29.0124,-10.125775 -12.788,-11.6 -16.2095,-36.013323 -16.2095,-50.296025 -4.782,-5.373 -5.1131,-4.3752 -11.6041,-7.2152 -6.364,-8.027 -14.052,-15.019 -22.633,-20.531 -48.291,-31.708 -118.368,1.704 -129.673,56.817 -17.871,14.15 -36.266,28.524 -58.155,35.897 -10.682,-5.495 -22.851,-7.249 -34.188,-7.26 -8.451,-0.307 -20.129,-5.194 -25.621,3.7 -92.397,30.247 -148.161,118.218 -187.813,201.571 -5.558,11.868 -12.207,24.294 -10.506,37.815 1.169,16.193 18.743,25.831 15.422,42.992 -4.827,47.206 -10.318,94.364 -15.343,141.556 -3.349,30.693 -6.697,61.387 -10.045,92.08 z"
           id="ðŸŽ¨-Background-1" />
        <path
           style="fill:#000000"
           inkscape:connector-curvature="0"
           d="m 723.4177,367.271 c -5.974,2.163 -14.348,4.271 -18.62,9.158 -0.492,-4.554 -0.99,-9.107 -1.49,-13.661 12.518,-0.297 25.063,-0.405 37.588,-0.755 -5.912,1.446 -11.755,3.187 -17.478,5.258 m -27.503,286.448 c -4.308,0.04 -8.63,0.34 -12.935,0.508 -8.292,0.321 -16.584,0.638 -24.877,0.949 -16.917,0.634 -33.834,1.245 -50.753,1.834 -33.504,1.165 -67.012,2.24 -100.523,3.227 -67.021,1.971 -134.076,3.165 -201.088,5.419 -18.591,0.625 -37.181,1.111 -55.755,2.123 -9.625,0.524 -19.295,0.975 -28.874,2.09 -8.081,0.94 -16.047,2.526 -24.083,3.708 0.539,-10.471 1.044,-20.944 1.569,-31.414 0.497,-9.906 0.961,-19.813 1.422,-29.721 31.369,1.641 62.775,2.304 94.186,2.584 33.226,0.297 66.442,1.121 99.67,1.185 65.781,0.131 131.568,-0.697 197.347,-1.357 18.604,-0.188 37.21,-0.374 55.815,-0.561 9.302,-0.093 18.605,-0.187 27.907,-0.281 4.644,-0.046 9.315,0.053 13.954,-0.139 4.952,-0.206 7.959,-1.614 11.553,-4.946 1.917,-1.777 1.997,-5.396 0,-7.159 -2.884,-2.547 -5.561,-4.501 -9.559,-4.787 -3.926,-0.281 -8.023,0.105 -11.961,0.157 -8.638,0.113 -17.276,0.228 -25.914,0.341 -16.612,0.219 -33.223,0.437 -49.835,0.655 -33.224,0.437 -66.448,0.884 -99.67,1.39 -32.56,0.497 -65.123,0.867 -97.677,1.685 -33.239,0.837 -66.439,2.348 -99.67,3.416 -35.372,1.136 -70.726,2.493 -106.018,5.147 0.848,-18.365 1.629,-36.734 2.364,-55.105 70.075,3.814 140.198,6.529 210.39,6.648 73.128,0.125 146.252,-1.125 219.353,-3.033 10.301,-0.27 20.602,-0.542 30.901,-0.865 5.316,-0.167 10.632,-0.321 15.948,-0.513 3.908,-0.142 7.924,-0.309 11.457,-2.178 6.972,-3.688 8.175,-14.457 -0.097,-17.403 -4.522,-1.61 -9.319,-0.036 -10.419,4.041 -0.338,0.033 -0.66,0.06 -0.941,0.071 -3.987,0.15 -7.975,0.261 -11.961,0.387 -8.639,0.274 -17.277,0.555 -25.916,0.826 -15.949,0.499 -31.899,0.96 -47.85,1.382 -32.566,0.863 -65.136,1.566 -97.709,2.109 -64.49,1.074 -128.975,2.067 -193.457,3.541 -33.206,0.76 -66.402,1.745 -99.604,2.587 0.793,-19.969 1.542,-39.938 2.217,-59.909 0.079,-2.34 0.165,-4.682 0.25,-7.023 4.758,1.046 9.63,1.625 14.477,2.311 8.411,1.19 16.848,2.071 25.295,2.962 15.916,1.679 31.884,2.709 47.859,3.591 32.569,1.796 65.147,3.063 97.75,4.056 64.493,1.964 129.066,2.392 193.585,2.171 35.035,-0.119 70.283,0.342 105.301,-1.185 2.158,0.59 4.382,0.529 6.533,-0.174 1.766,31.22 3.631,62.433 5.464,93.649 1.237,21.061 2.328,42.193 3.847,63.261 -2.967,-1.461 -5.698,-2.289 -9.268,-2.258 M 88.7827,336.541 c -6.144,-3.006 -12.92,-5.749 -18.344,-10.007 -5.929,-4.656 -7.385,-10.122 -5.563,-17.428 0.136,-0.546 0.296,-1.089 0.438,-1.633 43.691,0.107 87.271,-1.816 130.943,-2.853 44.37,-1.053 88.724,-1.938 133.106,-2.188 88.511,-0.498 177.011,1.498 265.48,3.983 31.861,0.894 63.721,1.776 95.583,2.646 -0.727,7.768 -0.447,15.727 -0.612,23.44 -0.145,6.775 -0.107,13.56 -0.006,20.344 -16.668,-0.041 -33.332,-0.401 -50.002,-0.589 -41.269,-0.465 -82.516,0.72 -123.775,1.664 -82.515,1.888 -165.052,3.373 -247.551,5.858 -22.407,0.674 -44.958,1.029 -67.468,1.988 -0.774,-3.66 -1.633,-7.302 -2.602,-10.92 -1.54,-5.748 -3.278,-11.656 -7.883,-15.649 -0.221,-0.193 -0.527,-0.109 -0.626,0.165 -1.749,4.847 -1.307,9.782 -0.795,14.861 0.405,4.012 0.679,8.035 0.882,12.063 -13.997,0.736 -27.965,1.771 -41.86,3.322 -3.973,-1.963 -7.948,-3.922 -11.929,-5.871 -15.803,-7.737 -31.611,-15.464 -47.416,-23.196 m 507.231,144.328 c -32.599,0.263 -65.2,0.291 -97.798,0.082 -64.527,-0.414 -129.033,-2.001 -193.546,-3.283 -17.955,-0.355 -35.886,-0.708 -53.844,-0.709 -9.297,0 -18.625,0.062 -27.912,0.465 -5.845,0.254 -11.771,0.291 -17.589,0.993 0.702,-18.795 1.433,-37.609 1.41,-56.413 61.546,9.321 123.753,11.881 185.907,13.715 62.969,1.858 125.953,2.821 188.949,2.913 17.903,0.027 35.806,-0.013 53.708,-0.119 8.619,-0.05 17.239,-0.116 25.858,-0.197 4.633,-0.044 9.294,0.05 13.923,-0.145 4.895,-0.206 7.852,-1.366 11.271,-4.848 1.75,-1.781 1.839,-4.855 0,-6.629 -6.103,-5.887 -13.283,-4.609 -21.216,-4.511 -7.956,0.099 -15.912,0.184 -23.869,0.256 -15.912,0.145 -31.826,0.237 -47.74,0.278 -31.163,0.079 -62.327,-0.041 -93.489,-0.359 -62.98,-0.644 -125.946,-2.044 -188.911,-3.519 -34.81,-0.815 -69.613,-0.591 -104.395,1.097 -0.013,-3.122 -0.042,-6.245 -0.103,-9.367 -0.229,-11.824 -1.381,-23.648 -3.183,-35.341 17.046,-0.059 34.091,-0.423 51.06,-0.641 41.263,-0.529 82.517,-1.36 123.775,-2.188 40.926,-0.82 81.852,-1.641 122.778,-2.462 40.9,-0.82 81.926,-0.879 122.777,-3.087 22.046,-1.192 44.1,-2.812 66.163,-3.663 0.043,2.025 0.086,4.051 0.129,6.075 0.531,24.845 1.502,49.666 2.755,74.485 0.602,11.925 1.237,23.85 1.89,35.773 -0.316,-0.031 -0.639,-0.05 -0.971,-0.053 -32.573,-0.216 -65.208,1.138 -97.787,1.402 M 80.1777,265.097 c 3.732,-9.602 7.786,-19.139 12.168,-28.547 18.604,5.251 38.449,7.96 57.649,9.763 20.44,1.921 40.92,3 61.444,3.419 40.462,0.826 80.924,-1.093 121.343,-2.763 83.136,-3.433 166.264,-5.94 249.478,-6.101 23.239,-0.046 46.477,0.062 69.714,0.324 11.618,0.131 23.236,0.288 34.853,0.487 5.975,0.103 11.949,0.216 17.924,0.339 2.645,0.054 5.322,0.25 7.965,0.17 3.535,-0.107 6.117,-1.17 9.398,-2.449 3.767,-1.467 5.989,-7.765 1.288,-9.852 -4.696,-2.086 -8.464,-3.308 -13.673,-3.421 -5.642,-0.121 -11.285,-0.233 -16.927,-0.337 -10.29,-0.188 -20.58,-0.346 -30.87,-0.474 -20.912,-0.261 -41.827,-0.371 -62.741,-0.368 -41.165,0.005 -82.33,0.492 -123.483,1.46 -82.62,1.943 -165.055,7.702 -247.645,10.173 -22.764,0.682 -45.571,0.815 -68.336,0.132 -22.05,-0.661 -44.053,-2.517 -66.076,-3.298 7.607,-16.036 16.214,-31.653 25.926,-46.502 36.713,1.29 73.347,0.336 110.068,-0.782 19.269,-0.587 38.538,-1.182 57.805,-1.843 9.634,-0.33 19.268,-0.66 28.902,-0.99 4.651,-0.16 9.302,-0.319 13.953,-0.478 5.01,-0.172 10.283,0.152 15.149,-1.165 0.881,-0.239 1.581,-0.749 2.108,-1.399 12.952,6.663 26.651,11.919 40.738,15.814 30.578,8.455 63.466,11.627 95.091,9.025 25.38,-2.088 50.673,-8.37 72.987,-20.67 50.393,4.639 101.492,2.459 151.992,2.129 4.825,-0.031 6.832,-4.451 6.025,-8.097 16.207,34.927 26.943,72.792 36.992,109.622 6.244,22.889 11.798,45.921 17.085,69.036 -0.22,0.019 -0.439,0.039 -0.658,0.06 0.613,-2.532 -0.765,-5.517 -4.232,-5.597 -20.438,-0.469 -40.942,0.705 -61.388,0.894 -0.575,-5.114 -1.15,-10.229 -1.756,-15.341 -0.828,-6.964 -1.814,-13.911 -2.657,-20.874 -0.305,-2.525 -0.589,-4.963 -0.936,-7.361 16.188,0.44 32.375,0.885 48.563,1.312 10.506,0.278 10.487,-15.992 0,-16.312 -88.956,-2.724 -177.916,-5.476 -266.902,-6.986 -89.04,-1.512 -178.387,-2.444 -267.359,2.121 -48.485,2.486 -96.85,5.811 -144.732,14.013 3.719,-12.978 8.907,-25.792 13.763,-38.286 m 75.719,-123.626 c 1.611,1.208 2.127,1.97 4.535,2.393 2.611,0.457 5.296,0.603 7.932,0.861 5.64,0.552 11.294,0.758 16.953,1.026 11.3,0.537 22.599,1.105 33.907,1.449 22.447,0.681 45.375,1.646 67.812,0.648 5.489,-0.244 7.986,-4.77 7.487,-8.894 4.208,5.211 8.809,10.103 13.709,14.563 7.878,7.169 16.382,13.524 25.347,19.132 -5.816,0.213 -11.738,0.942 -17.227,1.178 -9.302,0.398 -18.604,0.797 -27.906,1.197 -19.602,0.842 -39.202,1.746 -58.801,2.662 -36.273,1.695 -72.422,3.805 -108.557,7.265 10.32,-15.509 21.88,-30.138 34.809,-43.48 m 590.37,75.333 c -15.326,-42.068 -35.085,-85.767 -70.643,-114.661 -18.277,-14.852 -38.639,-25.126 -61.699,-29.993 -0.708,-0.15 -0.99,0.858 -0.299,1.085 39.878,13.083 69.389,47.701 89.352,83.179 3.617,6.429 6.969,13.012 10.139,19.694 -1.032,-1.258 -2.611,-2.095 -4.747,-2.059 -47.156,0.792 -94.867,-0.007 -141.917,4.6 1.201,-0.8 2.402,-1.599 3.58,-2.44 12.853,-9.16 24.418,-20.368 33.978,-33.062 5.758,1.46 11.82,1.816 17.695,2.375 7.841,0.745 15.736,1.086 23.602,1.509 7.854,0.421 15.738,0.461 23.601,0.651 5.404,0.131 15.967,1.028 15.973,-7.238 0.006,-8.275 -10.568,-7.399 -15.973,-7.291 -7.864,0.155 -15.744,0.178 -23.601,0.547 -7.532,0.352 -15.109,0.637 -22.619,1.311 -4.581,0.411 -9.294,0.681 -13.9,1.409 7.495,-11.183 13.462,-23.364 17.445,-36.212 0.401,-1.293 0.533,-2.501 0.467,-3.62 1.69,-1.783 2.768,-4.226 2.768,-6.464 0,-5.322 -4.147,-8.44 -8.994,-8.995 -19.184,-2.193 -40.32,-5.318 -55.78,-17.931 -6.977,-5.692 -12.589,-12.421 -17.871,-19.662 -5.935,-8.139 -8.16,-18.393 -8.183,-28.356 -0.001,-0.559 -0.928,-0.728 -1.013,-0.137 -2.905,20.199 1.285,43.257 15.782,58.391 14.234,14.859 33.569,20.425 53.19,23.676 -8.09,23.107 -21.443,43.404 -40.19,59.365 -20.89,17.785 -47.334,27.297 -74.294,30.887 -29.086,3.873 -59.571,1.99 -88.174,-4.332 -27.554,-6.092 -54.508,-16.986 -76.934,-34.371 -11.314,-8.772 -21.722,-19.112 -30.791,-30.178 -7.485,-9.133 -13.224,-19.318 -19.649,-29.102 23.971,6.572 52.953,-2.406 73.032,-15.088 11.827,-7.468 22.188,-16.792 30.7,-27.884 4.198,-5.471 7.933,-11.246 11.013,-17.421 1.602,-3.212 3.042,-6.516 4.367,-9.851 0.819,-2.06 1.622,-4.176 1.622,-6.441 -0.005,-1.668 -0.425,-3.222 -1.261,-4.662 -1.718,-1.823 -2.06,-2.351 -1.026,-1.587 -1.687,-3.454 -6.564,-4.331 -9.684,-2.539 -1.163,0.669 -3.898,1.964 -5.243,4.126 -0.909,1.462 -1.398,3.21 -1.98,4.814 -0.919,2.532 -1.845,5.035 -2.999,7.473 -2.68,5.664 -5.894,11.07 -9.56,16.151 -6.701,9.288 -15.314,17.687 -24.696,24.242 -9.849,6.881 -20.464,12.506 -31.977,16.019 -12.16,3.709 -24.196,4.817 -36.742,6.176 -0.134,-0.186 -0.264,-0.373 -0.398,-0.558 -0.242,-0.334 -0.765,-0.226 -0.786,0.213 -0.01,0.21 -0.005,0.419 -0.011,0.629 -1.789,0.839 -1.937,3.36 0.056,4.328 0.739,11.605 5.747,23.034 11.204,33.077 2.273,4.183 4.841,8.236 7.623,12.151 -0.823,-0.314 -1.748,-0.513 -2.786,-0.553 -22.445,-0.86 -45.367,0.248 -67.812,1.069 -10.977,0.402 -21.942,1.017 -32.91,1.605 -5.653,0.302 -11.32,0.495 -16.953,1.08 -2.817,0.293 -5.651,0.523 -8.453,0.945 -0.203,0.031 -0.392,0.063 -0.57,0.095 6.932,-6.827 14.239,-13.294 21.953,-19.328 25.306,-19.796 54.37,-35.925 85.38,-44.697 0.294,-0.083 0.251,-0.586 -0.074,-0.552 -61.678,6.307 -113.055,45.174 -148.995,93.975 -19.942,27.079 -35.067,57.056 -48.082,87.967 -6.56,15.581 -12.767,31.439 -17.965,47.532 -2.642,8.178 -3.833,16.853 -0.049,24.877 2.902,6.156 8.257,10.731 13.87,14.365 0.373,0.243 0.757,0.467 1.134,0.704 -5.738,19.99 -9.582,40.502 -13.27,60.952 -4.006,22.216 -7.501,44.524 -10.503,66.897 -6,44.721 -10.596,89.535 -12.603,134.625 -0.555,12.471 -0.926,24.951 -1.088,37.434 -0.081,6.244 -0.04542,12.487 0.04,18.731 0.097,6.987 -0.849,14.872 2.708,21.108 4.753,8.332 13.984,5.464 18.044,-0.234 0.059,0.077 0.12,0.156 0.18,0.234 0.368,-0.724 0.676,-1.447 0.939,-2.169 0.437,-0.961 0.722,-1.965 0.826,-2.989 0.765,-3.87 0.477,-7.8 0.446,-12.005 -0.045,-5.916 -0.011,-11.832 0.006,-17.748 0.033,-11.169 0.16,-22.334 0.478,-33.501 0.637,-22.326 1.881,-44.633 3.582,-66.904 3.38,-44.24 8.366,-88.277 12.633,-132.43 2.172,-22.481 4.792,-45.02 5.244,-67.621 5.267,2.773 10.702,5.286 15.959,7.962 9.754,4.965 19.507,9.93 29.26,14.895 9.459,4.815 18.932,9.6 28.409,14.382 9.556,4.82 19.048,11.194 29.799,12.38 5.747,0.633 7.827,-7.109 4.441,-10.723 -4.422,-4.722 -10.294,-7.656 -16.197,-10.404 7.843,0.287 15.696,0.441 23.553,0.501 0.108,9.886 -0.241,19.793 -0.737,29.657 -1.22,24.194 -2.916,48.345 -4.522,72.516 -3.338,50.243 -6.569,100.513 -9.09,150.803 -0.617,12.319 -1.235,24.635 -1.853,36.952 -0.3,5.988 -0.717,11.984 -0.887,17.977 -0.19,6.724 -0.025,15.152 6.198,19.304 4.396,2.931 9.127,1.55 12.427,-2.482 4.413,-5.391 4.406,-13.202 4.761,-19.818 0.082,-1.529 0.155,-3.058 0.234,-4.587 6.74,0.873 13.431,2.08 20.2,2.74 8.268,0.806 16.588,1.281 24.892,1.494 16.933,0.436 33.839,0.592 50.777,0.592 33.52,10e-4 67.037,-0.572 100.552,-1.113 67.032,-1.082 134.056,-2.959 201.065,-5.039 18.577,-0.577 37.153,-1.182 55.729,-1.813 9.619,-0.328 19.238,-0.662 28.858,-1.004 9.105,-0.324 19.052,0.854 27.066,-3.873 0.232,2.877 0.468,5.755 0.721,8.629 0.481,5.447 4.31,10.126 10.125,10.126 5.464,0 10.16,-4.634 10.125,-10.126 -2.041,-49.683 -6.458,-99.37 -9.957,-148.969 -3.213,-45.558 -6.225,-91.179 -10.82,-136.628 1.304,0.843 2.897,1.365 4.776,1.373 6.003,0.025 11.995,-3.698 17.611,-5.677 5.667,-1.996 11.427,-3.724 17.265,-5.141 3.456,-0.839 6.926,-1.542 10.407,-2.141 -0.421,7.111 -0.313,14.285 -0.445,21.37 -0.203,10.891 -0.541,21.778 -0.806,32.667 -0.521,21.455 -0.706,42.911 -1.116,64.367 -0.826,43.254 -2.186,86.485 -4.498,129.686 -0.635,11.871 -1.349,23.738 -2.142,35.599 -0.418,6.26 -0.858,12.52 -1.321,18.776 -0.453,6.15 -1.513,12.685 0.802,18.58 0.074,-0.043 0.147,-0.084 0.22,-0.127 1.615,5.08241 8.714,7.511 12.068,1.734 5.227,-9.006 4.022,-21.913 4.622,-32.045 0.645,-10.871 1.223,-21.747 1.735,-32.626 1.024,-21.761 1.734,-43.528 2.146,-65.31 0.824,-43.571 0.684,-87.205 -1.98,-130.712 -0.729,-11.896 -1.749,-23.77 -2.796,-35.64 -0.785,-8.898 -1.218,-18.039 -2.606,-26.942 6.788,-1.001 13.629,-1.582 20.536,-1.753 6.685,-0.167 10.996,-6.196 9.579,-12.577 -11.097,-49.983 -26.535,-99.119 -44.05,-147.199"
           id="ðŸ–-Ink-2" />
      </g>
      <g
         style="display:inline;fill:none;fill-rule:evenodd;stroke:none;stroke-width:1"
         transform="matrix(0.26458333,0,0,0.26458333,50.691071,11.811529)"
         id="head/mono/Bangs-2">
        <path
           style="fill:#ffffff"
           inkscape:connector-curvature="0"
           d="m 389.5309,161.6855 c -60.132,-39.803 -180.6,-35.48 -246.794,-11.094 -64.588,20.483 -87.201,77.558 -97.925,139.221 -13.035,69.303 -11.283,169.206 82.451,167.997 13.178,6.373 27.777,9.137 41.412,14.415 18.662,6.452 36.96,13.942 55.897,19.593 37.298,12.012 78.802,10.967 114.183,-6.61 19.54741,-9.44244 27.63817,-24.14729 40.42151,-39.81626 37.19012,-45.58518 55.90342,-110.82343 54.22749,-168.78674 -2.941,-40.815 -9.692,-88.063 -43.873,-114.919 z"
           id="ðŸŽ¨-Background" />
        <path
           style="fill:#000000"
           inkscape:connector-curvature="0"
           d="m 465.6238,329.6952 c -6.17,-38.3 -7.88,-77.25 -15.96,-115.25 -7.6,-35.759 -21.81,-69.55 -46.64,-96.81 -22.22,-24.39 -50.95,-42.3 -81.79,-53.65 -60.08,-22.11 -129.18,-17.11 -187.3,8.701 -54.4,24.149 -97.79,68.829 -123.08,122.449 -16.43,34.84 -24.69,71.88 -28.36,110.11 -4.07,42.47 -4.51,85.38 -6.17,128 -0.2,5.26 -0.49,10.52 -0.56,15.781 -0.08,5.759 2.25,10.809 4.15,16.169 0.13,0.38 0.32,0.741 0.55,1.081 -1.43,0.179 -2.86,0.389 -4.29,0.619 -1.6,0.25 -1.53,2.85 0,3.16 12.95,2.64 26.26,3.01 39.43,3.66 13.65,0.68 27.32,1.051 40.99,1.51 13.33,0.45 26.66,0.9 39.99,1.35 7,0.24 14,0.48 21,0.71 3.33,0.11 6.66,0.231 10,0.34 1.66,0.061 3.33,0.109 4.99,0.17 1.35,0.04 3.55,0.9 3.69,-0.09 0.25,0.151 0.52,0.279 0.81,0.37 0.32,0.17 0.63,0.37 0.93,0.59 1.63,1.12 4.1,0.98 5.75,0 0.15,-0.09 0.31,-0.19 0.47,-0.29 1.23,-0.73 2.09,-1.79 2.57,-2.99 6.84,8.26 18.95,-1.02 11.95,-9.76 -3.76,-4.7 -41.16,-119.93 -25.68,-207.71 l 62.08,-8.22 c 7.56667,-0.76667 18.39,-1.91333 32.47,-3.44 3.44667,-11.24667 5.66333,-18.68 6.65,-22.3 0.11,-0.4 0.22,-0.81 0.34,-1.21 1.48,2.611 2.97,5.21 4.47,7.81 l 7.66,15.57 c 75.37333,-1.26 122.3,-1.83 140.78,-1.71 0.47,0 2.7,33.7 1.69,48.54 -2.04,29.8 -4.21,59.58 -7.23,89.3 -1.92752,19.03044 -6.57354,37.69331 -13.49448,55.23308 -10.93276,27.70692 -42.675,54.04222 -73.62552,54.04222 -19.26566,0 -62.8,-15.6033 -69.14,-18.7543 -6.34,-3.151 -10.11773,5.449 -4.34,8.889 11.70378,6.96831 43.9655,21.75 73.48,21.75 42.86285,0 75.22,-40.67 79.19,-46.5 39.03,-2.139 78.95,-1.15 117.93,2.72 3.27,0.32 6.09,-3.62 5.04,-6.63 -14,-40.069 -24.65,-81.399 -31.39,-123.31 z"
           id="ðŸ–-Ink" />
      </g>
      <g
         style="display:inline;fill:none;fill-rule:evenodd;stroke:none;stroke-width:1"
         transform="matrix(0.26458333,0,0,0.26458333,81.201776,68.066274)"
         id="face/Smile">
        <g
           style="display:inline;fill:none;fill-rule:evenodd;stroke:none;stroke-width:1"
           transform="translate(10.057684,-12.742181)"
           id="face/Smile-Big">
          <path
             sodipodi:nodetypes="ccccccccccccccccccccccccccccccccccccccccccccccccccccccccccccc"
             style="fill:#000000"
             inkscape:connector-curvature="0"
             d="m 155.2009,145.0937 c 12.272,-7.028 43.063,-14.211 45.013,7.874 0.89679,10.16296 -6.65879,18.58375 -15.48157,22.34128 l -0.33143,0.13872 c -8.275,3.402 -22.942,7.244 -30.103,-0.133 -5.96,-6.14 1.945,-17.149 9.351,-12.119 3.80602,2.58402 11.81719,0.68005 16.06411,-0.54949 l 0.26589,-0.0775 c 4.583,-1.347 10.693,-5.658 8.798,-11.301 -1.677,-4.992 -8.813,-5.904 -13.282,-6.066 -6.671,-0.239 -13.163,1.31 -19.773,1.814 -1.047,0.08 -1.37,-1.436 -0.521,-1.922 z m 50.835,-35.5127 c 16.656,-0.78 27.017,17.406 23.187,32.307 -0.662,2.571 -3.538,5.095 -6.314,4.806 l -0.69946,-0.0644 c -0.35534,-0.0341 -0.71234,-0.079 -1.04054,-0.16963 -2.636,-0.73 -4.999,-3.472 -4.807,-6.314 l 0.051,-0.82812 c 0.38861,-7.03913 -0.37424,-15.14917 -8.74001,-16.85388 -7.095,-1.446 -11.056,5.383 -11.14,11.669 -0.016,1.116 -1.27,1.895 -2.257,1.295 -5.129,-3.121 -6.017,-9.33 -4.058,-14.677 2.483,-6.775 8.697,-10.837 15.818,-11.17 z m -123.603,3.9004 c 12.121,-4.044 25.198,2.417 31.067,13.133 2.059,0.596 4.115,2.183 3.829,4.613 -0.413,3.496 -1.035,5.7 -3.459,8.351 -3.79141,4.1471 -10.8923,2.02669 -12.46816,-3.07843 l -0.0668,-0.23057 c -1.79,-6.599 -9.054,-10.953 -15.671,-8.643 -7.73,2.698 -7.506,10.862 -12.928,15.618 -0.637,0.559 -1.401,0.648 -2.165,0.279 -5.759,-2.783 -4.724,-11.159 -2.671,-15.953 2.693,-6.291 7.927,-11.886 14.533,-14.089 z M 65.9254,76.6741 c 9.822,-10.022 35.434,-19.72 42.153,-1.213 1.28,3.525 -1.445,8.278 -5.115,9.009 -6.01,1.196 -11.342,-1.413 -17.312,-0.945 -4.833,0.381 -9.874,1.996 -13.738,4.99 -10.702,8.292 -13.056,22.317 -20.513,32.871 -0.363,0.514 -1.068,0.298 -1.135,-0.308 -1.698,-15.365 4.902,-33.428 15.66,-44.404 z m 128.0952,-9.8659 c 6.518,-2.302 13.899,-2.105 20.451,-0.063 6.6,2.058 12.659,5.966 17.327,11.072 2.118,2.318 4.078,4.876 5.65,7.599 0.835,1.443 1.713,4.424 2.662,6.199 5.13449,2.964406 7.32909,9.7195 2.73222,14.52526 l -0.20722,0.21074 -0.615,0.61 c -2.471,2.446 -6.197,3.506 -9.57,2.529 -7.548,-2.184 -8.465,-8.129 -11.078,-14.439 -1.726,-4.168 -4.683,-7.856 -8.268,-10.565 -8.473,-6.4 -22.366,-8.439 -32.567,-5.423 -0.543,0.161 -1.181,-0.531 -0.794,-1.033 1.933,-2.504 3.047,-4.559 5.635,-6.579 2.627,-2.05 5.494,-3.531 8.642,-4.643 z"
             id="ðŸ–-Ink-5" />
        </g>
        <g
           style="display:inline;fill:none;fill-rule:evenodd;stroke:none;stroke-width:1"
           transform="translate(-27.723606,-19.922131)"
           id="face/Smile-6">
          <path
             sodipodi:nodetypes="cccscccscccccccsccc"
             style="fill:#000000"
             inkscape:connector-curvature="0"
             d="m 197.0942,247.99762 c -6.72228,-2.74235 -12.72025,-7.31677 -17.10534,-13.1603 -1.52454,-2.03145 -1.91983,-4.17663 -1.60001,-6.13867 0.35961,-2.20617 1.66482,-4.20568 3.44483,-5.54689 1.78552,-1.34536 4.01898,-2.00886 6.17828,-1.67063 1.8763,0.29391 3.74407,1.32123 5.22226,3.45185 l 0.30884,0.42607 c 2.60701,3.52695 6.00419,6.42077 9.87504,8.28601 3.73087,1.79779 7.90347,2.63688 12.22143,2.14893 8.22383,-0.92898 13.89211,-5.37652 19.91687,-11.4162 0.74679,-0.76253 1.49406,-1.54895 2.24494,-2.34804 0.4742,-0.72437 1.13228,-1.18992 1.86291,-1.43419 0.81125,-0.27122 1.72895,-0.25587 2.5695,0.0375 0.81071,0.28292 1.53545,0.81904 2.02141,1.53259 0.46186,0.67816 0.72372,1.51595 0.63875,2.4796 -0.55145,6.25914 -3.82381,11.84516 -8.47205,16.23136 -5.16246,4.87144 -12.00568,8.24153 -18.44827,9.42353 -7.09785,1.30202 -14.33037,0.3692 -20.87939,-2.30248 z"
             id="ðŸ–-Ink-29" />
        </g>
      </g>
      <g
         transform="matrix(0.85422309,0,0,0.90038301,81.034871,101.25384)"
         id="mask/medical-mask"
         style="display:inline;fill-rule:evenodd">
        <g
           transform="matrix(1.1346281,0,0,0.96209692,-11.09016,2.2301307)"
           id="mask/medical-mask-7"
           style="fill-rule:evenodd">
          <path
             id="ðŸŽ¨-Color"
             d="M 83.082549,14.869804 C 82.68431,9.8221245 76.321986,7.6838935 73.152972,7.0498427 62.600577,4.5681675 53.622972,10.935306 41.040296,11.065498 39.770366,11.085365 36.138676,10.871056 34.449803,10.424896 25.881,8.4770912 17.32107,6.4052243 8.9134648,3.8506333 7.677338,4.1401832 7.3116338,5.7542654 8.1602958,6.6738505 16.212972,9.5306724 28.53262,12.088856 35.038394,12.380097 34.913535,20.787612 30.476915,29.241623 24.350155,33.89133 34.094451,44.671252 56.820296,48.216442 70.194803,42.55796 76.773887,40.58268 83.716352,22.901115 83.082549,14.869804"
             inkscape:connector-curvature="0"
             style="fill:#ffffff" />
          <path
             id="path21"
             d="M 8.2335422,4.1050779 C 7.8712183,4.0909174 8.0824859,3.0341659 8.8986127,3.1848587 19.429035,5.6485691 32.548753,10.341391 43.372627,10.306941 51.335091,10.046135 58.46981,5.609892 66.476218,5.5830505 c 5.382043,0.1031389 12.24486,0.868861 16.011338,5.1892835 4.967958,15.762082 -6.219295,37.200611 -23.821479,37.324673 L 55.334436,47.855861 C 43.978046,47.018867 31.536853,45.67972 24.216993,36.041164 l -0.05704,0.04903 v 0 c -1.094578,-0.734653 -1.033521,-2.32126 -0.10331,-3.137284 l 0.02768,0.04354 v 0 c 0.01775,-0.02874 0.03739,-0.05622 0.05641,-0.08433 l -0.01183,-0.03699 v 0 c 0.357888,-0.375781 0.764789,-0.727257 1.134719,-1.041957 l 0.0019,0.0061 v 0 C 30.761852,27.258291 34.350655,20.331285 34.557275,13.158268 32.737627,13.658323 2.1659366,7.3178137 7.6231901,5.7705182 11.52657,7.0906121 15.452979,8.2828391 19.458613,9.231802 c 0.06718,-0.037832 0.163521,-0.027898 0.200493,0.046708 4.90014,1.206388 9.899155,1.895813 14.904718,2.453989 -0.0053,-0.239249 -0.01437,-0.478497 -0.02662,-0.718169 C 25.636922,9.2810466 16.91157,6.7076454 8.2335422,4.1050779 Z M 80.301782,10.502017 c -18.255423,-9.2256514 -27.317113,4.404118 -44.972535,0.651382 1.847112,8.243929 -2.713944,17.131421 -8.908944,22.517894 9.001267,7.793754 12.897042,8.973934 24.704789,10.238865 l 1.542549,0.183749 c 2.31926,0.274773 4.660287,0.531076 6.986746,0.571194 12.067606,-0.878583 21.186127,-13.438708 22.550704,-24.818865 l 0.0074,-0.31437 c 0.06117,-2.888125 -0.07144,-5.945239 -1.350424,-8.591086 -0.235563,-0.082 -0.440281,-0.229737 -0.560281,-0.438763 z m -25.414691,7.242066 c 0.630846,-0.142027 1.274578,0.546552 0.883522,1.149534 -1.263592,1.949707 -4.353803,2.705073 -6.515071,3.011531 -2.502887,0.354857 -4.929084,0.07503 -7.30669,-0.779038 -0.127394,-0.04586 -0.11831,-0.271162 0.03422,-0.252986 2.257606,0.268838 4.58493,0.07207 6.778522,-0.525628 2.224225,-0.43348 4.020211,-1.913354 6.125492,-2.603413 z m 17.1526,-1.404402 c -0.01047,-0.370497 1.810232,0.701472 2.098189,0.845824 2.223803,1.335734 4.797888,1.433589 7.250493,1.957949 0.57169,0.219382 0.570845,0.946427 -2.11e-4,1.165809 -3.061056,0.814332 -7.70662,-1.322842 -9.348471,-3.969582 z"
             inkscape:connector-curvature="0"
             style="fill:#000000" />
        </g>
      </g>
      <path
         sodipodi:nodetypes="cccccccccccccccccccccccccccccccccccccsscsccccc"
         style="display:inline;fill:#000000;fill-rule:evenodd;stroke:none;stroke-width:0.26458332"
         inkscape:connector-curvature="0"
         d="M 173.88733,99.043273 C 172.25486,88.909726 171.80242,78.604205 169.66458,68.550039 167.65375,59.088803 163.89402,50.148267 157.32442,42.935725 151.44538,36.482538 143.8439,31.74385 135.68415,28.740829 c -15.89617,-5.849937 -34.17888,-4.527021 -49.556459,2.30214 -14.393339,6.389423 -25.87361,18.211006 -32.564923,32.397965 -4.347104,9.218084 -6.532562,19.01825 -7.503583,29.133269 -1.076854,11.236857 -1.193271,22.590127 -1.632479,33.866677 -0.05292,1.39171 -0.129646,2.78342 -0.148167,4.17539 -0.02117,1.52373 0.595313,2.85988 1.098021,4.27805 0.0344,0.10054 0.08467,0.19605 0.145521,0.28601 -0.378354,0.0474 -0.756708,0.10291 -1.135063,0.16378 -0.423333,0.0661 -0.404812,0.75406 0,0.83608 3.426355,0.6985 6.947959,0.7964 10.432521,0.96838 3.611563,0.17991 7.228417,0.27807 10.845271,0.39952 l 10.58069,0.35718 c 1.852081,0.0635 3.704164,0.127 5.55625,0.18786 0.881057,0.0291 1.762128,0.0611 2.645828,0.09 0.439211,0.0161 0.881071,0.0288 1.320279,0.045 0.357184,0.0106 0.939274,0.23812 0.976314,-0.0238 0.0662,0.04 0.13758,0.0738 0.21431,0.0979 0.0847,0.045 0.16669,0.0979 0.24606,0.1561 0.43127,0.29634 1.08479,0.2593 1.52136,0 0.0397,-0.0238 0.082,-0.0503 0.12435,-0.0767 0.32544,-0.19314 0.55298,-0.4736 0.67998,-0.7911 1.80975,2.18546 5.01385,-0.26987 3.16177,-2.58233 -0.99483,-1.24354 -10.890251,-31.73149 -6.794503,-54.95661 l 16.425332,-2.174875 c 2.00202,-0.202848 4.86569,-0.506235 8.59103,-0.910166 0.91193,-2.975682 1.49842,-4.942417 1.75947,-5.900209 0.0291,-0.105833 0.0582,-0.214312 0.09,-0.320145 0.39159,0.690827 0.78582,1.378479 1.18269,2.066395 l 2.02671,4.119563 c 19.94253,-0.333375 32.35854,-0.484188 37.24804,-0.452438 0.12436,0 0.71438,8.916459 0.44715,12.842875 -0.53975,7.884586 -1.1139,15.76387 -1.91294,23.62728 -0.50999,5.03514 -1.73925,9.97303 -3.57041,14.61377 -2.89263,7.33079 -11.2911,14.29867 -19.48009,14.29867 -5.09737,0 -18.15263,-0.58706 -19.83009,-1.42076 -1.67746,-0.8337 -1.52869,-0.91016 0,0 3.09662,1.8437 12.02105,4.56525 19.83009,4.56525 11.3408,0 19.90196,-10.7606 20.95235,-12.30312 10.32669,-0.56595 20.88886,-0.30427 31.20232,0.71966 0.86518,0.0847 1.61131,-0.95779 1.3335,-1.75418 -3.70417,-10.60159 -6.52198,-21.53681 -8.30528,-32.625763 z"
         id="ðŸ–-Ink-7" />
    </g>
  </g>
  <g
     inkscape:groupmode="layer"
     id="layer2"
     inkscape:label="Mask"
     style="display:inline"
     transform="translate(25.760939,6.3207378)" />
</svg>
