<?xml version="1.0" encoding="UTF-8" standalone="no"?>
<!-- Created with Inkscape (http://www.inkscape.org/) -->

<svg
   xmlns:dc="http://purl.org/dc/elements/1.1/"
   xmlns:cc="http://creativecommons.org/ns#"
   xmlns:rdf="http://www.w3.org/1999/02/22-rdf-syntax-ns#"
   xmlns:svg="http://www.w3.org/2000/svg"
   xmlns="http://www.w3.org/2000/svg"
   xmlns:sodipodi="http://sodipodi.sourceforge.net/DTD/sodipodi-0.dtd"
   xmlns:inkscape="http://www.inkscape.org/namespaces/inkscape"
   width="170.47913mm"
   height="62.752522mm"
   viewBox="0 0 170.47913 62.752522"
   version="1.1"
   id="svg8"
   inkscape:version="0.92.4 5da689c313, 2019-01-14"
   sodipodi:docname="people.svg">
  <defs
     id="defs2" />
  <sodipodi:namedview
     id="base"
     pagecolor="#ffffff"
     bordercolor="#666666"
     borderopacity="1.0"
     inkscape:pageopacity="0.0"
     inkscape:pageshadow="2"
     inkscape:zoom="0.98994949"
     inkscape:cx="279.16982"
     inkscape:cy="-7.613817"
     inkscape:document-units="mm"
     inkscape:current-layer="layer1"
     showgrid="false"
     showguides="true"
     inkscape:guide-bbox="true"
     fit-margin-top="0"
     fit-margin-left="0"
     fit-margin-right="0"
     fit-margin-bottom="0"
     inkscape:window-width="1920"
     inkscape:window-height="1017"
     inkscape:window-x="1920"
     inkscape:window-y="30"
     inkscape:window-maximized="1">
    <sodipodi:guide
       position="43.175721,0.25447507"
       orientation="0,1"
       id="guide4747"
       inkscape:locked="false" />
  </sodipodi:namedview>
  <metadata
     id="metadata5">
    <rdf:RDF>
      <cc:Work
         rdf:about="">
        <dc:format>image/svg+xml</dc:format>
        <dc:type
           rdf:resource="http://purl.org/dc/dcmitype/StillImage" />
        <dc:title></dc:title>
      </cc:Work>
    </rdf:RDF>
  </metadata>
  <g
     inkscape:label="Layer 1"
     inkscape:groupmode="layer"
     id="layer1"
     transform="translate(-5.2000623,-22.022674)">
    <g
       id="Introduction"
       transform="matrix(0.25078873,0,0,0.27239453,5.6716467,9.2372073)"
       style="fill:none;fill-rule:evenodd;stroke:none;stroke-width:1">
      <g
         transform="translate(-2286,-1406)"
         id="variations">
        <g
           transform="translate(126,110)"
           id="images">
          <g
             transform="translate(2160,1296)"
             id="a-person/bust">
            <g
               transform="translate(31.056338,135.05284)"
               id="body/Whatever"
               style="fill-rule:evenodd">
              <path
                 id="ðŸŽ¨-Background"
                 d="m 214.85742,59.887415 c 2.16402,-1.129996 4.2769,-2.357773 6.35641,-3.635711 1.46472,-0.876439 0.16796,-3.084152 -1.33394,-2.286446 -0.76796,0.408059 -1.53296,0.82014 -2.30071,1.22566 0.60423,-0.520657 1.1643,-1.087454 1.66648,-1.705258 l -0.0346,-0.0345 c 1.93606,-1.735313 -0.55077,-5.009526 -2.7526,-3.584068 -1.94176,1.408102 -3.90127,2.844777 -6.13014,3.772012 -4.61662,1.95839 -9.70881,2.282425 -14.66388,2.338936 -1.81331,-0.136302 -3.54528,0.177997 -5.30471,0.528276 0.68978,-2.768372 2.41605,-4.858831 3.33169,-7.540004 0.67563,-2.706993 -3.23029,-4.550881 -4.61451,-1.948866 -0.33972,0.638969 -0.66359,1.285346 -0.98028,1.934897 -2.99197,2.722445 -7.98803,2.482646 -11.00557,5.405734 -1.71875,1.526104 -2.55999,3.596858 -2.89219,5.675107 -0.22558,1.411277 0.12511,2.826011 -0.72788,4.075996 -4.12373,5.834958 -10.63959,15.057785 -13.94867,21.479222 -2.34296,-15.259063 -8.59886,-34.132671 -15.06175,-48.085224 -2.13718,-4.462201 -4.58218,-8.822386 -7.79176,-12.60477 0.3638,-1.261429 -0.92028,-3.500467 -1.73683,-2.811125 -2.51345,-3.071665 -6.95641,-3.866831 -10.52894,-5.393881 C 119.58038,14.630459 115.57918,10.342446 113.61228,5.4687989 111.0851,-3.81202 104.8639,-4.9909062 96.235944,-4.58073 87.978761,-4.5911008 81.869535,-1.0580401 80.067845,7.3507839 76.407634,13.733067 67.765521,12.677572 61.548127,14.367168 c -4.55662,1.041314 -8.978662,2.65133 -13.181197,4.695226 -4.675141,-4.436379 -21.419155,14.182404 -22.941127,18.974142 0.895986,0.173764 1.786479,0.382874 2.668943,0.6377 0.785916,0.227311 0.455916,1.414875 -0.33676,1.224814 -0.986409,-0.237048 -1.979155,-0.400229 -2.976549,-0.513462 -0.03042,0.09545 -0.05704,0.190273 -0.0769,0.284034 -0.111972,-0.0076 -0.223732,-0.01714 -0.335704,-0.02476 0.248239,0.129318 0.487183,0.279377 0.72,0.472824 0.562817,0.467533 -0.169859,1.369794 -0.767958,0.997291 C 23.757424,40.69316 23.019467,40.75983 22.343622,40.618237 22.303482,42.008561 17.344396,40.45315 16.574115,39.99239 13.150521,39.564009 9.6284789,40.023711 6.4324225,38.372 2.1798169,37.476089 -2.1046901,36.485359 -6.3095493,35.344358 c -1.113169,0.434093 -2.1593662,1.987598 -1.2752113,3.127541 0.497324,0.518752 -0.1419718,1.365772 -0.768169,0.997079 -2.1002114,-1.236666 -3.7244364,-3.167119 -5.1014794,-5.246784 -0.648169,-0.654208 -1.798732,-0.513461 -2.669577,-0.785007 -0.116408,0.209321 -0.18507,0.442558 -0.184014,0.681722 -3.694014,0.60828 -1.058873,4.644431 0.798169,5.90205 -0.985141,0.641721 -1.022535,1.898282 -0.936338,2.947639 -0.208732,0.373773 -0.278451,0.837073 -0.09676,1.255927 0.694648,1.601338 2.196972,2.949967 3.339296,4.247377 1.261268,1.432865 2.385845,2.873561 3.9204931,4.035092 5.8495775,4.46072 12.908662,6.954582 20.1504929,7.929862 2.571338,0.395149 6.27,0.999831 7.862113,3.17495 -0.390634,2.581486 -1.107888,5.057147 -1.758592,7.574503 -0.909929,3.341306 -0.848028,6.839445 -0.86007,10.245939 -0.127183,-0.102226 -0.371409,-0.08106 -0.407747,0.113656 -0.21169,1.412124 -0.369084,2.855995 -1.227042,4.0425 -0.752113,2.206444 -1.252605,4.559771 -1.533803,6.877754 -1.126479,10.989252 -1.395422,22.302542 1.144437,33.120562 0.98007,4.0133 2.574084,7.82743 4.745915,11.33953 0.647536,1.04746 1.688662,1.35435 2.623521,1.14862 3.128874,1.62611 7.070493,2.1474 10.442958,1.73426 11.497395,-3.25601 7.491338,4.58453 23.61169,2.18358 27.825423,-3.54597 55.945987,3.42237 83.712257,-0.66881 0.68387,5.28425 9.63612,3.76842 12.74577,1.53446 9.32408,-6.93427 13.9538,-28.88843 18.63317,-40.02562 3.21655,-8.778155 8.6026,-24.325907 15.6562,-30.216317 2.115,-1.654885 4.67155,-2.526034 7.22957,-3.229344 9.54676,-2.461057 19.13029,-4.788352 28.69521,-7.181047 1.62212,-0.399594 1.33057,-3.167119 -0.40394,-2.989545 -2.30197,0.235565 -4.61176,0.448908 -6.92155,0.670928 z"
                 inkscape:connector-curvature="0"
                 style="fill:#ffffff" />
              <path
                 id="ðŸ–-Ink"
                 d="M 2.3334084,58.241335 C 1.6869296,58.161128 1.0531268,57.930756 0.4235493,57.748995 -0.53771831,57.467899 -1.4799718,57.140306 -2.4074366,56.766216 -4.3215211,55.999226 -6.1785634,55.092322 -7.9194084,53.982733 -10.73138,52.188369 -13.215887,49.888877 -15.089831,47.120189 l -0.128654,-0.193095 c -1.069825,-1.630189 -3.043233,-5.250021 -0.830501,-6.487688 -1.42612,-1.192079 -2.774007,-3.333058 -2.697951,-4.985817 0.107747,-2.337534 2.972536,-2.30562 4.453521,-1.314599 0.969719,0.648846 1.696479,1.557652 2.425353,2.451875 0.807042,0.993135 1.669014,1.939984 2.5647883,2.850904 0.2376761,0.240939 0.4777289,0.477123 0.7219411,0.709444 l 0.2456435,0.231044 c -0.038007,-0.09078 -0.07181,-0.183769 -0.1013874,-0.279088 -0.4943662,-1.540533 0.09507,-3.546247 1.6352113,-4.252157 0.9425112,-0.432237 1.9213425,-0.168384 2.834667,0.19855 l 0.1399809,0.05718 c 1.2295774,0.509143 2.4739437,0.95953 3.75422534,1.320939 5.21830986,1.473112 10.66478896,1.718278 16.01197196,2.453777 2.059859,0.285323 4.157746,0.644407 6.207042,1.172783 0.781648,-3.32025 2.697845,-6.502974 4.776718,-9.121604 9.95493,-12.526943 26.372536,-16.667084 41.39155,-19.347006 1.369014,-0.243053 2.503605,1.570248 3.300084,1.141207 1.510564,-0.811585 2.839437,-1.96133 4.005634,-3.210411 2.48662,-2.6651269 4.250704,-5.7994517 6.323239,-8.7689234 1.024648,-1.466771 3.382395,-0.1542857 2.431691,1.420274 L 83.9092,3.9372901 c -1.917631,3.1520228 -4.041159,6.4003709 -6.791306,8.8448159 -1.461971,1.297691 -3.084507,2.32274 -4.939436,2.96292 -1.40493,0.484204 -3.376057,0.89211 -4.914085,0.422701 l -0.184585,-0.268971 c 0.06107,0.08994 0.122571,0.179647 0.184543,0.269119 4.014042,5.818452 9.050662,10.742914 14.357704,15.390507 5.356833,4.688549 11.13567,8.887102 16.949265,12.992206 l 0.484538,0.341884 c 9.471062,-6.910896 17.471722,-15.925121 23.085092,-26.224133 -1.17656,-0.141774 -2.34064,-0.896083 -3.34627,-1.458486 -1.21057,-0.680337 -2.3493,-1.492133 -3.23662,-2.574247 -1.9331,-2.356555 -1.68169,-5.3936592 -2.03029,-8.2532287 -0.0211,-0.1775343 0.21338,-0.2219178 0.32113,-0.1331507 1.04789,0.8707632 1.41549,2.2973777 1.85282,3.5295499 0.48169,1.3547555 1.02676,2.4708965 2.13169,3.4238745 1.02887,0.887883 2.2838,1.540744 3.50281,2.121957 0.62866,0.298222 3.74939,1.064622 4.10487,1.699362 5.39161,-1.26603 10.64373,0.921445 14.6388,4.611621 3.85985,3.56548 6.69295,8.200392 9.19436,12.776126 2.66831,4.882191 4.85493,9.971295 6.73944,15.202215 1.90986,5.309331 3.37394,10.734693 4.17887,16.322794 0.67944,4.711252 1.09602,9.49652 1.36565,14.260441 l 0.0329,0.595372 c 3.98867,-6.262352 8.0767,-12.459142 12.24924,-18.600982 -0.9486,-2.53409 0.1014,-5.121018 1.87816,-7.078121 1.96902,-2.166341 4.69226,-3.172368 7.29719,-4.343249 l 0.34239,-0.154941 c 1.25552,-0.572926 2.5069,-1.203865 3.59141,-2.062124 1.04366,-0.828493 1.81056,-1.969784 2.90916,-2.732759 1.59718,-1.111702 4.49577,-0.87499 4.56971,1.553425 0.038,1.333832 -0.5345,2.796164 -1.05845,3.99452 -0.59366,1.354967 -1.39436,2.582701 -2.34507,3.711312 -0.0439,0.05258 -0.0919,0.09408 -0.14075,0.126965 l -0.0367,0.02309 c 1.31408,0.217691 2.63873,0.393112 3.98873,0.454403 2.72324,0.124697 5.47606,-0.07609 8.14225,-0.650959 2.72958,-0.587553 5.37465,-1.542645 7.82958,-2.874364 2.09789,-1.137064 4.04155,-2.608062 6.42465,-2.954677 0.2197,-0.03377 0.44153,-0.05491 0.6697,-0.06759 0.38028,-0.02113 0.76056,0.426927 0.61056,0.802919 -0.0824,0.207335 -0.16901,0.412345 -0.26408,0.619468 -0.82393,1.815388 -2.0877,3.576582 -3.66403,4.913298 l -0.12187,0.101981 c 0.55568,-0.192286 1.10286,-0.407864 1.64159,-0.650916 3.1669,-1.426615 6.04014,-3.582388 9.43521,-4.448924 0.16057,-0.04229 0.32324,-0.08033 0.48592,-0.116264 1.05,-0.226145 1.60352,0.915147 0.98662,1.697143 -0.0993,0.12681 -0.19859,0.251507 -0.30211,0.376203 -1.51479,1.880955 -3.18592,3.626708 -5.02817,5.194927 -0.63169,0.53683 -1.2824,1.056752 -1.94578,1.553636 -0.27955,0.210531 -0.56067,0.416507 -0.84468,0.619142 l -0.13989,0.09924 c 0.33169,-0.234388 0.65916,-0.473214 0.98451,-0.71838 2.07887,-0.630035 4.12817,-1.376102 6.1331,-2.20227 0.79648,-0.327804 1.41549,0.479554 1.5,1.143194 0.2831,2.223616 -2.18451,3.831992 -3.79014,4.901213 -1.60986,1.073871 -3.3824,1.889683 -5.19719,2.544658 -3.4893,1.26151 -7.15413,1.834369 -10.81323,2.347739 l -1.77721,0.247632 c -7.03454,0.984027 -14.38186,2.160496 -19.42927,7.636308 -2.82888,3.068595 -4.74296,6.881354 -6.49437,10.632822 -1.7493,3.747452 -3.28521,7.594027 -4.74296,11.461737 -1.51056,4.002766 -2.82676,8.079716 -4.22535,12.122846 -1.28451,3.71247 -2.81879,7.37745 -4.33839,11.00526 l -0.23978,0.57251 c -3.22605,7.71027 -7.07958,14.97205 -12.45,21.40978 -0.88521,1.06309 -2.31549,-0.44574 -1.49789,-1.49847 5.61761,-7.24509 9.52606,-15.794 12.75212,-24.32219 1.46831,-3.88018 2.69788,-7.85378 4.10915,-11.75531 l 0.83977,-2.31773 c 1.1213,-3.08966 2.25234,-6.17538 3.43206,-9.240805 1.49366,-3.878489 3.13521,-7.71027 5.01338,-11.417354 l 0.19925,-0.390311 c 1.83883,-3.576305 4.02347,-7.100926 7.03033,-9.807341 5.41209,-4.873404 12.61376,-6.042611 19.57682,-6.968651 l 2.19053,-0.288781 c 2.94386,-0.391247 5.89603,-0.82337 8.75871,-1.610826 1.65211,-0.452079 3.26619,-1.03139 4.7831,-1.830294 0.60422,-0.317025 1.19366,-0.665542 1.76408,-1.045972 -1.62676,0.477651 -3.27676,0.868438 -4.95634,1.174896 -0.82183,0.150058 -1.63521,0.262286 -2.44648,0.340485 -2.08935,0.206849 -4.16188,0.198395 -6.30203,0.08659 -0.18169,-0.01078 -0.24084,-0.29589 -0.0465,-0.33182 1.49039,-0.265148 2.98254,-0.596671 4.46849,-0.956459 l 0.44557,-0.108894 c 0.008,-0.247069 0.10563,-0.509354 0.30845,-0.758536 0.73944,-0.900352 2.14437,-1.361307 3.11831,-1.997472 1.02042,-0.665753 2.00915,-1.384133 2.95141,-2.153659 0.86197,-0.703586 1.69014,-1.44775 2.48662,-2.225308 l 0.23877,-0.234741 c -0.0793,0.07854 -0.15884,0.156767 -0.23877,0.234615 -2.1507,0.993557 -4.18944,2.267788 -6.43521,3.054223 -1.78521,0.627499 -3.65705,1.050199 -5.54578,1.200258 l -0.11725,0.0092 -0.11725,0.0077 c -1.97115,0.141626 -3.95496,0.08456 -5.8965,0.511489 -0.21761,0.04861 -0.28522,-0.243053 -0.0909,-0.32548 1.69648,-0.70591 3.46056,-0.978551 5.24366,-1.308258 0.038,-0.139555 0.13519,-0.264251 0.30421,-0.344564 l 0.45621,-0.217894 c 1.35858,-0.652743 2.62491,-1.311648 3.75435,-2.371147 0.99718,-0.936282 1.82747,-2.030865 2.4507,-3.244227 -2.49507,0.547418 -4.68591,2.439003 -6.95493,3.502095 -2.47183,1.160313 -5.08732,1.993033 -7.77464,2.466669 l -0.30618,0.05247 c -5.02194,0.838009 -11.06099,0.731167 -15.56002,-1.880865 -0.14366,-0.08454 -0.0401,-0.276658 0.10775,-0.25362 1.27605,0.209237 2.53943,0.456516 3.80281,0.676321 -0.2472,-0.226145 -0.35706,-0.631938 -0.0718,-0.957417 1.13471,-1.300827 2.03199,-2.787713 2.60569,-4.414685 l 0.10972,-0.318157 c 0.26422,-0.754659 0.71051,-1.926609 0.25501,-2.607354 -0.43521,-0.648845 -1.45986,-0.560078 -2.07253,-0.285323 -1.27395,0.574873 -2.12113,2.010153 -3.19437,2.876478 -1.17042,0.946849 -2.50141,1.648532 -3.86408,2.276242 l -0.28775,0.130789 c -2.35696,1.060621 -4.87522,1.953457 -6.72845,3.825689 -0.99718,1.006027 -1.85493,2.263561 -2.14225,3.673268 -0.13099,0.646732 -0.13099,1.312485 0.0422,1.952877 0.13732,0.5009 0.42465,0.809683 0.25986,1.318825 -0.21549,0.6573 -0.97817,1.443523 -1.37113,2.028963 -0.45634,0.676533 -0.91056,1.354756 -1.36479,2.03319 -0.90633,1.356869 -1.80845,2.717965 -2.71056,4.076947 -1.80423,2.722192 -3.58944,5.457065 -5.35986,8.200392 -0.57606,0.893307 -1.15023,1.787554 -1.72253,2.682739 l -0.85698,1.343526 -0.45291,0.708288 -0.77247,1.21481 c 0.0275,0.112226 0.0254,0.230583 -0.0106,0.333933 -0.13169,0.375264 -0.37833,0.631761 -0.68475,0.817742 l -0.0547,0.03203 c -4.50845,7.128845 -8.94507,14.304186 -13.42605,21.450156 -0.23874,2.18085 -0.46268,4.3641 -0.65705,6.54735 -0.44155,4.94137 -0.74366,9.89563 -0.84084,14.85581 -0.0465,2.40115 0.14577,4.81668 0.24929,7.2155 0.0507,1.14492 0.12004,2.28844 0.21066,3.43162 l 0.0667,0.81029 c 0.0893,1.11353 0.13987,2.2188 -0.26041,3.28026 -0.35493,0.93184 -1.43662,1.14108 -2.07677,0.43116 -8.35138,-0.33618 -16.70913,-0.59191 -25.06687,-0.75042 -14.95986,-0.28744 -29.926061,-0.24306 -44.888033,0.0465 -7.514789,0.14583 -15.03169,0.35084 -22.544367,0.60446 -3.701408,0.12259 -7.404929,0.29589 -11.10845,0.34662 -1.995338,0.0272 -5.135737,-0.69961 -5.296742,-2.94534 l -0.004,-0.0686 c -0.249295,0.0676 -0.507042,0.12258 -0.771126,0.16274 -0.117569,0.0181 -0.230492,0.013 -0.334791,-0.0114 l -0.05183,-0.0138 c -2.974377,0.90691 -6.736805,-0.38711 -9.563115,-1.14121 l -0.233322,-0.0615 c -2.697887,-0.70379 -4.865493,-1.70982 -6.633802,-3.94591 -3.095071,-3.91611 -4.151409,-9.17471 -4.700705,-14.02098 -0.515493,-4.56094 -0.54507,-9.2062 0.0824,-13.75869 -0.36974,-3.70917 -0.0085,-7.53673 0.41195,-11.225001 0.207043,-1.823953 0.45,-3.645792 0.74155,-5.459178 0.162676,-1.012368 0.376056,-2.014168 0.593662,-3.013855 0.08688,-0.399452 0.15921,-0.829487 0.269345,-1.245222 l 0.04965,-0.177165 c -0.338028,0.04438 -0.707747,-0.02959 -1.064789,-0.225934 -0.849296,-0.467084 -1.096479,-1.412031 -1.111268,-2.316399 -0.04648,-2.72663 0.278874,-5.531037 0.566198,-8.240548 0.289436,-2.705284 0.686619,-5.421346 1.206338,-8.092814 L 13.66911,67.836935 C 14.062915,65.838564 14.51352,63.77558 15.307158,61.897769 12.326366,61.390666 9.353831,60.851723 6.4615775,59.934251 5.0503099,59.484075 3.660169,58.924208 2.3334084,58.241335 Z M 157.92346,86.615197 c -0.0464,0.01061 -0.0908,0.02329 -0.13519,0.03597 -1.19155,0.333933 -2.39577,0.617142 -3.59577,0.921487 -2.07465,0.522035 -4.10282,1.105362 -6.03169,2.012055 -0.40407,5.102043 -1.00309,10.187453 -1.57251,15.275481 l -0.11343,1.01768 c 0.87465,-1.62338 1.77043,-3.23387 2.70634,-4.82512 2.85,-4.850706 5.76549,-9.663152 8.74225,-14.437555 z M 14.665035,87.120472 c 0.0064,0.606364 -0.120401,1.236399 -0.188007,1.819515 -0.109859,0.94706 -0.198591,1.898137 -0.310563,2.844775 -0.228169,1.902152 -0.422535,3.806418 -0.564085,5.717025 -0.09084,1.219703 -0.15,2.443421 -0.202817,3.667143 1.197909,-4.478749 2.784528,-8.859829 4.292979,-13.247673 -0.252141,-0.02662 -0.509897,-0.08818 -0.775784,-0.158837 l -0.447603,-0.120607 c -0.263928,-0.06799 -1.12011,-0.278661 -1.80412,-0.521341 z m 147.031755,-4.170026 0.008,0.200783 c 0.0317,0.71225 -0.39507,1.113816 -0.91268,1.217378 0.3,-0.473425 0.60212,-0.94685 0.90423,-1.418161 z M 24.626303,49.193662 c 1.261267,0.111804 2.497183,0.38043 3.676056,0.845401 l 0.11375,0.04442 c 0.871949,0.336684 2.146813,0.759726 2.432025,1.690769 0.08028,0.264188 -0.135212,0.481667 -0.382395,0.503014 -0.946478,0.07609 -2.061971,-0.938607 -2.938732,-1.280995 -0.976056,-0.38043 -1.998592,-0.663639 -3.033803,-0.813698 -2.326056,-0.340274 -4.751408,-0.08221 -6.940141,0.765299 -0.128873,0.05072 -0.209154,-0.154497 -0.09296,-0.215788 2.205633,-1.20047 4.65845,-1.760337 7.166197,-1.538419 z m -26.7274016,6.044491 c -0.1458592,-0.128987 -0.2916338,-0.264251 -0.4352958,-0.399304 -1.1326961,-1.071999 -2.1357376,-2.32303 -2.8784172,-3.69776 l -0.195461,-0.372071 c -0.6048915,-1.171558 -1.3476728,-2.840694 0.073878,-3.684822 0.8492958,-0.504916 1.871831,-0.378317 2.8183099,-0.07186 0.061268,0.01902 0.1225352,0.04037 0.1838028,0.06129 0.4225352,0.148157 0.8302817,0.32548 1.193662,0.49456 1.578169,0.724931 2.9704225,1.779569 4.428169,2.709722 1.5795134,1.008128 3.1391611,1.652769 4.9621203,2.030088 l 0.1716825,0.03459 c 1.7112676,0.338372 3.5661971,0.555851 4.7598591,1.963444 0.3,0.35528 0.02535,1.020822 -0.492253,0.845401 C 9.1889578,54.037832 5.6967042,53.792454 2.6671268,51.964274 1.4121972,51.20764 0.22487324,50.339202 -1.0575211,49.622513 -1.7378028,49.2418 -2.440169,48.908957 -3.1886673,48.680687 l -0.4089084,-0.120613 c -0.2395164,-0.06996 -0.5254384,-0.139029 -0.7176919,-0.07019 -0.36597,0.126811 -0.2491683,0.3227 -0.1359407,0.664672 l 0.011293,0.03469 c 0.8894366,2.751992 3.4246479,5.055499 5.7739437,6.579334 0.5387324,0.350842 1.0901408,0.672306 1.6521127,0.97031 3.8039767,2.028345 8.0603239,2.972372 12.2407269,4.093002 1.611388,0.449984 2.683984,0.759516 3.217787,0.928596 0.891549,-0.07418 1.907746,0.240939 2.579577,0.617143 0.652817,0.365424 1.178874,0.855968 1.576057,1.432955 0,0 0.382394,0.319139 0.452112,0.813698 0.200705,0.458631 0.335916,0.952979 0.403521,1.468885 0.03803,0.302231 -0.03803,0.534505 -0.18169,0.699358 0.432118,6.634872 -1.359326,13.232395 -3.379016,19.537908 l -0.200121,0.621766 -0.128609,0.394142 c -2.178169,6.685052 -4.677465,13.321657 -5.792958,20.291787 -0.745775,4.65604 -0.722535,9.47483 -0.175352,14.15201 l 0.03858,0.32259 c 0.539136,4.42221 1.576461,9.38298 4.387477,12.94197 1.433791,1.81629 3.132507,2.62343 5.304308,3.20831 l 0.118932,0.0317 c 1.964789,0.51759 3.992958,1.25119 6.019014,1.47311 1.880282,0.2048 3.456338,-0.49456 5.148591,-1.14996 l 0.0021,-0.002 c 3.564105,-3.15548 5.182415,-7.75024 6.37819,-12.38748 3.099296,-12.00025 2.714789,-24.45724 0.957042,-36.63313 C 41.035479,83.233656 39.789,76.926963 38.546746,70.622384 37.92562,67.471151 37.255901,64.326258 36.700268,61.164458 l -0.329999,-1.86084 C 36.188175,58.269818 36.012063,57.235192 35.861535,56.195613 35.658718,54.798587 35.597451,53.42481 35.527732,52.019331 33.82069,49.189329 31.342521,46.858135 28.471394,45.186355 26.415761,43.987998 24.239704,43.157392 21.99393,42.555043 15.573486,40.824084 8.5741901,40.946668 2.1136268,39.615161 -0.05673454,39.168385 -2.1169172,38.505032 -4.1760073,37.710188 l -0.2807885,-0.109195 c -0.9443662,-0.36775 -1.9077465,-0.57276 -2.3767605,0.541056 -0.3338028,0.792564 -0.1352113,1.61683 0.3654929,2.282584 1.2274648,1.631624 3.6950704,2.388258 5.5521127,2.975812 1.11760563,0.355068 2.2584507,0.636164 3.4119718,0.845401 1.1535212,0.209237 2.3112676,0.262074 3.4183099,0.66998 0.4267605,0.156399 0.5112676,0.834834 0,0.955092 -1.4028169,0.327805 -2.8140845,0.04671 -4.2084507,-0.225933 -1.53169016,-0.302443 -3.0401409,-0.731272 -4.5063381,-1.274443 -0.2704225,-0.09976 -0.5503098,-0.204925 -0.8353352,-0.316694 l -0.2146648,-0.08496 c 0.221831,0.160838 0.443662,0.319351 0.6676057,0.477863 0.059155,0.04206 0.023239,0.154075 -0.05493,0.126599 -3.4474717,-1.286603 -6.5842591,-3.608068 -9.0142999,-6.354782 l -0.120911,-0.137687 c -0.855634,-0.980877 -2.805634,-3.948235 -4.449296,-3.121856 -1.543436,0.775064 1.087586,3.762834 2.087453,4.984365 l 0.116111,0.143163 c 1.136619,0.02959 2.237324,0.737401 3.15845,1.308047 1.5992957,0.991444 3.2704225,1.845299 4.9732394,2.643992 3.384507,1.591467 6.978169,2.713949 10.3267606,4.385518 0.044366,0.02346 0.010563,0.08031 -0.03169,0.07418 -2.1316901,-0.340485 -4.24014083,-0.883655 -6.3,-1.557651 l -0.091901,-0.02882 -0.091901,-0.03057 c -1.2866197,-0.4227 -2.556338,-0.900141 -3.8049296,-1.409706 -1.3880281,-0.566208 -2.7443662,-1.202372 -4.0605634,-1.923077 -1.191549,-0.650959 -2.514084,-1.823953 -3.895774,-1.99726 -0.147887,-0.01902 -0.278873,-0.02135 -0.392958,-0.01057 -1.586598,0.133045 -0.274627,2.762242 0.169035,3.548465 0.724648,1.291351 1.599296,2.483366 2.602817,3.57182 2.034507,2.210724 4.4999998,3.962818 7.1683096,5.326028 0.9105634,0.46497 1.8422535,0.87499 2.7887324,1.251193 z"
                 inkscape:connector-curvature="0"
                 style="fill:#000000" />
            </g>
            <g
               transform="translate(78.591549,38.043053)"
               id="head/Flat-Top"
               style="fill-rule:evenodd">
              <path
                 id="path4623"
                 d="m 51.135456,15.906142 c 11.995911,0 27.480439,7.527838 28.800867,15.237769 1.55609,9.085952 9.888655,43.949783 8.007058,55.130034 -1.881598,11.18025 -12.021142,19.228685 -28.246176,19.228685 -16.225034,0 -28.335236,-8.851585 -31.115836,-11.890838 C 26.727635,91.585624 24.083085,86.955556 20.647719,79.721587 14.856231,78.951063 11.946563,76.2044 11.918715,71.4816 11.891652,66.758799 13.774547,63.538253 17.567402,61.819961 16.215063,43.181789 17.241836,31.43646 20.647719,26.583976 25.756543,19.305249 39.139546,15.906142 51.135456,15.906142 Z"
                 inkscape:connector-curvature="0"
                 style="fill:#ffffff" />
              <path
                 id="path4625"
                 d="m 79.202197,29.899874 c -0.0087,-0.162528 0.227958,-0.18155 0.272324,-0.03783 2.588028,8.553347 4.18331,15.219124 5.862676,23.988259 l 0.495944,2.579595 C 87.15852,63.31 88.497549,70.200124 89.628253,77.113627 l 0.06637,0.412765 c 0.566405,3.578662 0.892938,7.192167 0.182922,10.778233 -0.66338,3.352016 -2.476056,6.425049 -4.829577,8.872486 -4.548592,4.730229 -10.86993,7.684699 -17.228873,9.005639 -3.215493,0.66786 -6.532395,0.92571 -9.809155,0.69323 -1.63331,-0.11435 -3.264085,-0.34472 -4.863381,-0.68478 l -0.176561,-0.0378 c -1.612056,-0.34817 -3.042812,-0.76349 -3.899002,-2.28096 -0.215282,-0.38234 -0.128662,-1.03752 0.323451,-1.23408 0.853521,-0.36796 1.480986,-0.52203 2.412465,-0.41636 0.889436,0.10124 1.757957,0.36986 2.636831,0.53683 1.679577,0.31914 3.386619,0.47956 5.095774,0.51781 3.357042,0.074 6.722535,-0.34661 9.93169,-1.34842 5.513873,-1.7225 11.116902,-5.017451 14.338733,-9.94614 3.789887,-5.797951 2.280815,-12.834626 1.276539,-19.237709 l -0.03027,-0.193836 C 84.039486,66.005848 83.034245,59.461123 82.058463,52.912149 L 81.642127,50.105173 C 80.547972,42.688892 79.514873,37.394567 79.202197,29.899874 Z M 23.218352,11.747188 c 2.752069,-1.8146216 6.171842,-2.2605292 9.404255,-2.2354884 l 0.404774,0.00511 c 4.139015,0.063111 24.973546,0.5591124 31.949144,0.7117384 l 1.659433,0.03496 c 2.19637,0.04146 6.626129,0.08474 8.908399,0.126471 l 0.131742,0.0025 c 1.119718,0.02114 2.239436,0.02959 3.359154,0.06552 l 0.164129,0.0059 c 0.838774,0.03582 1.536704,0.161379 2.193618,0.752833 0.334067,0.299765 0.464404,0.75695 0.433777,1.192418 l -0.0049,0.05666 1.662676,0.145831 c 1.128974,0.09984 1.725952,1.112816 1.27745,2.137871 l -0.02252,0.04961 c -0.796479,1.699256 -1.40493,6.644853 -1.83169,8.473033 -0.223944,0.961644 -0.403733,1.938082 -0.509367,2.920861 -0.08429,0.773753 -0.09275,1.549198 -0.523732,2.229746 -0.919225,1.451976 -3.504929,1.439295 -3.551408,-0.617143 -0.0021,-0.06552 0,-0.128924 0.0063,-0.190215 -6.507043,-0.285323 -15.390845,-0.257848 -21.889437,0.131037 -6.069718,0.363522 -12.111972,1.187788 -18.059155,2.44955 -1.506338,0.319138 -3.008451,0.667866 -4.5,1.046184 -1.223239,0.308571 -2.725352,0.492446 -3.819718,1.153972 -1.225352,0.743953 -1.202113,2.077573 -1.069014,3.347789 0.142859,1.346301 0.381082,0.652645 0.718645,1.879553 l 0.02079,0.07755 c 0.348592,1.331507 0.779578,2.64822 1.35,3.899413 0.325352,0.714364 0.849507,1.401253 0.650705,2.223405 -0.111972,0.462858 -0.477676,0.957417 -0.813381,1.280783 -1.529788,1.468885 -4.115493,0.532603 -5.154929,2.544658 -1.087825,2.103951 -1.114842,4.954012 -1.207162,7.282063 l -0.0055,0.136332 c -0.0674,1.604149 -0.04859,3.212525 0.05704,4.812446 0.09507,1.458106 0.483591,2.90184 -0.01479,4.303092 -0.363591,1.018709 -1.550704,1.113816 -2.171831,0.285323 -0.0713,-0.09511 -0.136664,-0.192593 -0.197865,-0.290672 l -0.05988,-0.09821 -0.004,0.0021 c 0.05894,0.09299 0.113873,0.188313 0.16669,0.285323 0.05704,0.107789 -0.08451,0.226145 -0.171127,0.133151 -1.461972,-1.591468 -3.597887,-1.274443 -5.252113,-0.160626 -1.675352,1.132837 -2.336619,3.284383 -2.423239,5.214223 -0.09718,2.140555 0.09296,4.649706 0.984507,6.627733 0.376056,0.836948 0.912465,1.606263 1.802113,1.925402 0.403732,0.143718 0.788028,0.124696 1.20845,0.158512 0.437113,0.0336 0.963381,0.253621 1.387817,0.224032 0.551822,-0.03928 1.047235,0.590917 0.890506,1.118931 l -0.01142,0.03504 c -0.0082,0.02536 -0.0169,0.05072 -0.02514,0.07397 0.02091,0.01902 0.04204,0.04227 0.05683,0.07609 1.605634,3.28227 3.807042,6.203131 6.240845,8.912642 1.219225,1.354755 2.571127,2.599609 3.984507,3.751468 0.697183,0.568532 1.432394,1.137276 2.207746,1.595694 0.257747,0.149848 0.494155,0.251507 0.784015,0.334145 0.135,0.03783 0.289225,0.05685 0.420211,0.101237 l 0.136022,0.0466 c 0.0093,0.003 0.0182,0.0058 0.02665,0.0084 0.388732,0.04438 0.716197,0.302231 0.84507,0.70591 0.335916,1.052524 -0.274648,1.982466 -1.31831,2.272016 -1.130718,0.316336 -2.196333,-0.239073 -3.092612,-0.876749 l -0.0595,-0.04263 c -1.827465,-1.316501 -3.511268,-2.794051 -4.969014,-4.518669 -2.883803,-3.404854 -4.690352,-7.346537 -5.52655,-11.706693 -0.207253,0.445949 -0.486126,0.834833 -0.969929,1.105362 -0.752113,0.4227 -1.65,0.4227 -2.473944,0.281096 -1.65845,-0.281096 -3.071831,-1.293464 -4.016197,-2.663014 -0.980493,-1.420274 -1.345775,-3.144892 -1.567606,-4.825127 -0.219718,-1.68256 -0.327464,-3.371037 -0.107746,-5.057613 0.315,-2.422074 1.330986,-4.816673 3.306338,-6.143953 -1.478873,-3.223092 -1.738733,-6.837182 -1.633099,-10.366732 0.128874,-4.345362 0.878874,-8.739334 1.455634,-13.04454 l 1.639648,-12.239295 v 0 l 0.06708,-0.493412 c 0.395671,-2.879318 0.877358,-5.773867 1.954538,-8.486862 1.062676,-2.673581 2.67676,-5.091429 5.110563,-6.695577 z m -6.899958,57.901484 c 2.708451,-1.314599 5.634507,-0.103562 7.092254,2.447436 1.267479,2.21791 -2.501031,3.683886 -3.129803,1.39771 l -0.01808,-0.07043 c -0.414085,-1.730959 -2.100212,-3.227319 -3.85986,-3.459804 -0.145774,-0.02092 -0.253732,-0.232274 -0.08451,-0.314912 z"
                 inkscape:connector-curvature="0"
                 style="fill:#000000" />
            </g>
            <g
               transform="translate(112.1831,77.354207)"
               id="face/Smiling"
               style="fill:#000000;fill-rule:evenodd">
              <path
                 id="path4628"
                 d="m 30.968993,50.919898 c -1.420199,-0.579597 -2.687376,-1.546402 -3.613804,-2.781433 -0.322085,-0.429348 -0.405596,-0.882732 -0.33803,-1.29741 0.07597,-0.466276 0.351722,-0.888873 0.72778,-1.172337 0.377224,-0.284343 0.849082,-0.424574 1.305271,-0.353088 0.396402,0.06212 0.791,0.279241 1.103296,0.729548 l 0.06525,0.09005 c 0.550778,0.745422 1.268492,1.357032 2.086277,1.75125 0.788212,0.379963 1.669747,0.557306 2.581992,0.454177 1.737429,-0.19634 2.934953,-1.136329 4.20779,-2.412817 0.157772,-0.16116 0.315645,-0.327372 0.474284,-0.496259 0.100183,-0.153096 0.239212,-0.251491 0.393572,-0.303117 0.171389,-0.05732 0.365271,-0.05408 0.542852,0.0079 0.171277,0.0598 0.32439,0.173105 0.427057,0.323913 0.09758,0.14333 0.152899,0.320396 0.134948,0.524065 -0.116505,1.322871 -0.807846,2.503477 -1.789869,3.430502 -1.090661,1.02958 -2.536412,1.741851 -3.897523,1.991666 -1.499545,0.275182 -3.027542,0.07803 -4.411139,-0.486629 z M 36.087529,30.51204 c 1.595362,0.970108 4.026203,3.232209 2.309961,5.637224 -2.020181,2.120581 -4.928786,-0.31081 -6.362095,-1.410433 -1.329032,-0.852215 -2.822274,1.339617 -1.589198,2.334721 10.357127,7.671008 14.560269,-6.307842 6.448244,-7.70212 -0.893164,-0.153644 -1.224887,0.840495 -0.806912,1.140608 z M 17.527458,21.588672 c 0.176266,-2.188802 3.508521,-2.68584 3.84,-0.519922 0.296831,1.940196 -0.05261,3.722513 -0.926197,5.469323 -0.834719,1.668822 -2.932715,0.890238 -3.091377,-0.629371 -0.21268,-2.036972 0.06793,-2.95847 0.177574,-4.32003 z m 25.36557,-0.96902 c 0.464578,-0.608689 1.135352,-1.024204 1.939014,-0.789394 2.510916,0.73402 1.770845,4.300133 0.889014,6.035953 -0.479155,0.942623 -2.027957,1.18166 -2.727887,0.351687 -1.140845,-1.353487 -1.687183,-4.056446 -0.236831,-5.389644 0.0393,-0.0689 0.08303,-0.138434 0.13669,-0.208602 z m -22.487134,-8.608509 0.396628,-0.06945 c 1.227,-0.21229 2.752633,-0.416276 3.620626,0.57056 0.460352,0.523304 0.618803,1.495938 0,1.996838 -1.088451,0.881331 -2.291831,0.539789 -3.596197,0.614395 -1.07493,0.06171 -2.108028,0.239672 -3.143451,0.535773 -2.271549,0.64948 -4.122465,1.835155 -6.062535,3.137073 -0.254578,0.170771 -0.514437,-0.15492 -0.392958,-0.393112 1.11993,-2.19445 3.290282,-3.997057 5.464225,-5.095867 1.160282,-0.586497 2.43,-1.073025 3.713662,-1.29621 z m 20.198235,-0.983014 0.303576,0.06215 c 3.303642,0.690821 7.595846,2.070794 9.160279,5.317019 0.05961,0.459028 -0.0034,0.557407 -0.05459,0.621682 l -0.01705,0.02139 c -0.0422,0.05489 -0.07588,0.130549 -0.274764,0.193024 -0.05519,-0.01316 -0.110931,-0.02709 -0.167261,-0.04186 -0.717109,-0.188001 -1.284481,-0.447 -1.833757,-0.715742 L 47.125001,16.192275 C 46.434039,15.85335 45.736976,15.52676 44.998249,15.285659 43.421742,14.771244 41.80017,14.408871 40.153474,14.215372 c -0.356909,-0.0419 -0.700589,-0.162408 -0.971729,-0.368932 -0.257365,-0.196032 -0.453976,-0.467444 -0.543619,-0.828209 -0.116178,-0.466887 -0.08279,-0.820359 0.167616,-1.24156 0.188291,-0.316313 0.457705,-0.535559 0.767061,-0.661458 0.315374,-0.128348 0.674425,-0.158606 1.031326,-0.08708 z"
                 inkscape:connector-curvature="0" />
            </g>
            <g
               transform="translate(104.57745,109.47938)"
               id="facial-hair/*-None" />
            <g
               transform="translate(88.521127,88.978474)"
               id="accessories/*-None" />
          </g>
        </g>
      </g>
    </g>
    <g
       id="Introduction-3"
       transform="matrix(0.26458333,0,0,0.26458333,121.09166,9.1052346)"
       style="fill:none;fill-rule:evenodd;stroke:none;stroke-width:1">
      <g
         transform="translate(-2526,-758)"
         id="variations-6">
        <g
           transform="translate(126,110)"
           id="images-7">
          <g
             transform="translate(2400,648)"
             id="a-person/bust-5">
            <g
               transform="translate(31.056338,135.05284)"
               id="body/Blazer-Black-Tee"
               style="fill-rule:evenodd">
              <path
                 id="ðŸŽ¨-Background-3"
                 d="m 155.39909,48.06763 c -2.9326,-13.898818 -13.33299,-24.683982 -27.3206,-30.056717 -2.68869,-1.521309 -5.295,-8.049034 -8.90845,-9.2444975 -0.57923,-0.1916329 0.33504,1.3334575 0,1.4245365 -1.19502,0.324863 -2.53402,0.358786 -3.85344,-0.8143821 -2.3581,-2.0967146 -3.09791,-8.2223296 -4.53165,-10.9909047 -7.56147,-14.6013462 -26.440858,-8.8882742 -28.970154,7.2531818 -1.763584,1.1499347 -4.25664,2.1629374 -6.176345,3.0895861 -1.976784,0.9542004 -3.715607,3.2653789 -5.752765,4.0916739 -1.817661,0.737264 -4.812647,0.214973 -6.644209,0.857704 -8.424101,2.956179 -15.559058,6.686346 -21.152808,14.24412 -1.178662,1.594004 -2.507324,3.553644 -3.57993,5.163922 -5.529718,6.368195 -9.370563,13.505918 -12.908028,21.163773 -9.897042,22.477315 -12.589014,47.364654 -15.004225,71.582444 0.05493,4.23736 -2.7557747,15.98717 1.401338,18.01867 -0.248451,0.25763 -0.158451,0.77523 0.302535,0.77079 10.540775,-0.10652 21.057042,0.83716 31.434296,2.67189 5.006831,0.88535 9.986831,2.09934 15.086831,2.29886 10.586831,-0.0731 21.135634,-1.84784 31.708521,-0.16845 12.710333,0 28.157283,-0.3705 42.297363,-0.91429 13.2153,-0.50822 26.50141,0.6396 39.55299,-1.6086 1.0331,-0.16358 1.5376,-1.42407 1.32105,-2.32739 -1.53126,-5.58176 -2.28295,-11.32668 -3.14218,-17.03969 0.17113,-3.66439 -0.135,-7.48983 -1.49007,-10.90293 -3.54042,-23.040983 -8.08035,-45.9317 -13.67007,-68.5633 z"
                 inkscape:connector-curvature="0"
                 style="fill:#ffffff" />
              <path
                 id="ðŸ–-Ink-5"
                 d="m 151.13417,78.35345 c -0.27887,1.354756 -0.66972,2.709511 -1.18944,3.992619 -0.5007,1.238301 -1.25493,2.34789 -1.77443,3.571608 -0.0697,0.164854 -0.18381,0.28955 -0.32134,0.384658 l 0.0429,0.332877 v 0 l 0.0395,0.332876 c 0.25914,2.246352 0.55056,4.486493 0.80295,6.732534 l 0.12261,1.123568 c 0.49627,4.689652 1.28008,9.35627 1.88853,14.03345 0.59577,4.57996 1.20232,9.15992 1.8507,13.73354 0.66972,4.71522 1.35211,9.42411 2.14859,14.12031 0.33627,1.98335 0.68721,3.96508 1.05282,5.9452 l 0.28239,1.51547 c 2.90705,0.69957 3.70141,4.75327 0.74155,6.24963 -1.34345,0.67632 -3.0695,0.51358 -4.17676,-0.5493 -1.15061,-1.10771 -1.19838,-3.10534 -1.46542,-4.60569 l -0.25725,-1.39422 c -1.92492,-10.48373 -3.59558,-21.08822 -4.37662,-31.71999 -0.20071,-2.74523 -0.36972,-5.49278 -0.47958,-8.24266 -0.10439,-2.5864 -0.0545,-5.172623 -0.0944,-7.759155 l -0.0133,-0.705426 c -0.061,-2.758122 -0.0106,-5.512016 0.0613,-8.270137 0.008,-0.336047 0.0232,-0.672094 0.0401,-1.010255 -0.097,-0.114129 -0.1669,-0.249393 -0.19627,-0.38043 l -0.0382,-0.173307 c -0.0951,-0.445949 0.0127,-0.967985 0.35515,-1.287124 0.14767,-1.878904 0.34204,-3.755694 0.39485,-5.632485 0.004,-0.154286 0.22606,-0.149847 0.23895,0 0.12465,1.597808 0.37373,3.199843 0.62303,4.799765 1.60352,-1.289237 2.78873,-3.415421 3.48802,-5.19499 0.0507,-0.128924 0.23895,-0.08243 0.20916,0.05706 z M 113.19469,3.6579029 c 0.2662,1.2173777 0.79225,2.3102701 1.49789,3.326865 0.33612,0.4861057 0.71831,0.9383953 1.17676,1.3167123 0.39317,0.3231546 0.84105,0.5345049 1.25915,0.8158122 0.60845,-0.095319 1.24437,0.1352642 1.67113,0.5831154 l -0.0674,-0.6549745 c -0.0213,-0.2113503 0.32957,-0.2536204 0.36971,-0.048822 1.8483,9.3251277 3.53401,18.6562717 4.99315,28.0488667 l 0.63959,4.147913 0.60181,3.894019 c 0.99923,6.488811 1.96577,12.975033 2.69362,19.511237 0.96972,8.722638 1.785,17.468313 2.38078,26.226457 0.59789,8.81986 0.9657,17.645636 1.22767,26.482406 0.0653,2.22763 0.13521,4.45315 0.20261,6.68057 l 0.45127,-2.66316 c 0.45038,-2.66371 0.89202,-5.3299 1.27056,-8.00559 1.35845,-9.57628 2.44458,-19.220409 2.97465,-28.878907 0.48612,-8.838669 0.32345,-17.852759 -1.92444,-26.463381 -0.56641,-2.166341 -1.25937,-4.298865 -2.09577,-6.376439 -0.81148,-2.020297 -1.91831,-3.893072 -2.79106,-5.88378 -1.01408,-2.316399 -1.31831,-4.501762 -0.79627,-6.995695 0.45634,-2.172681 1.25704,-4.216438 1.4005,-6.452525 0.26852,-4.150919 -1.0817,-8.171013 -2.98923,-11.803913 -0.50303,-0.957417 -1.03331,-1.902153 -1.58683,-2.838646 -1.67514,-2.829769 -3.56408,-5.556399 -5.52444,-8.1705913 -0.10563,-0.1394912 0.1181,-0.2937769 0.2324,-0.1796477 1.78711,1.766889 3.74134,3.504188 5.34929,5.433816 0.78148,0.938395 1.54416,1.895601 2.26669,2.878591 7.92697,1.325166 14.73824,6.264211 19.39437,12.786693 5.2838,7.401487 7.95634,16.309902 9.93401,25.082841 2.1993,9.749801 4.05423,19.588157 6.02958,29.386145 2.04486,10.138685 4.07937,20.277159 6.13711,30.413519 1.02254,5.03204 2.04528,10.0645 3.0655,15.09886 0.5176,2.54889 1.06077,5.09143 1.62887,7.63186 0.29176,1.30192 0.60444,2.60173 0.87486,3.90787 0.30401,1.47311 0.0209,2.41552 -0.97606,3.49785 -0.36782,0.40156 -0.9488,0.39522 -1.40514,0.18176 l -0.14265,-0.0672 -0.13788,-0.0666 c -0.56467,-0.27762 -1.00737,-0.5653 -1.35869,-1.18313 -0.38684,-0.67823 -0.4481,-1.43063 -0.58099,-2.18516 -0.24528,-1.38878 -0.48803,-2.77714 -0.7331,-4.16782 -0.36618,-2.07969 -0.76433,-4.15343 -1.16957,-6.22667 l -2.03319,-10.361 c -0.54217,-2.76261 -1.08513,-5.52496 -1.63125,-8.28615 -1.95,-9.87428 -3.90212,-19.746457 -5.85402,-29.618629 -1.87415,-9.479272 -3.5326,-19.02364 -5.66619,-28.447961 l -0.12131,-0.530928 -0.12337,-0.53022 C 151.3015,45.77978 148.6358,37.920903 143.79891,31.036431 140.07638,25.742106 134.90687,21.0142 128.81793,18.621504 c 0.42908,0.617354 0.84106,1.247178 1.23401,1.889683 2.46761,4.032563 4.26951,8.819647 3.84697,13.621526 -0.20683,2.345988 -1.09838,4.65182 -1.01408,7.01683 0.0782,2.100822 1.37768,3.94591 2.27556,5.773879 2.03852,4.142677 3.51338,8.545103 4.46409,13.061448 1.90774,9.069041 1.90141,18.400368 1.24415,27.606575 -0.71408,10.007648 -2.07021,20.012975 -3.61457,29.922975 -0.79226,5.08297 -1.84648,10.12389 -2.65374,15.19841 -0.39908,2.50218 -0.94225,4.99843 -1.4176,7.48814 l -0.22655,1.18949 c -0.12684,0.66013 -0.25844,1.31813 -0.41045,1.96914 l -0.0938,0.38973 v 0.0698 c -0.004,0.47997 -0.13542,0.87731 -0.34669,1.19434 -0.28922,0.92761 -0.64838,1.8324 -1.12584,2.70105 -0.24507,0.44384 -0.60021,0.69302 -0.98683,0.78411 -0.38874,0.88979 -1.26972,1.57435 -2.32162,1.57039 l -13.83613,-0.0529 c -8.03662,-0.0319 -16.073239,-0.0847 -24.109858,-0.12914 -2.027958,-0.0104 -4.054014,-0.0484 -6.080071,-0.10123 -1.899295,-0.0528 -3.720422,-0.2811 -5.598591,-0.51781 -2.121338,-0.2663 -3.270423,-1.769 -2.953521,-3.88885 0.06972,-0.46729 0.145563,-0.93205 0.217605,-1.39702 -0.422535,0.13949 -0.925352,0.074 -1.265493,-0.25785 L 73.725985,143.412 c -0.442048,-0.43747 -0.837411,-0.86705 -1.117723,-1.45065 -0.289437,-0.60003 -0.524155,-1.23408 -0.779789,-1.84699 -0.551409,-1.31883 -1.087817,-2.64188 -1.609859,-3.97127 -1.045564,-2.65879 -2.091338,-5.32815 -3.063381,-8.01462 -1.924436,-5.31969 -3.627464,-10.71969 -5.108239,-16.18077 -2.640845,-9.74324 -4.550915,-19.674595 -5.755141,-29.694712 L 56.003942,79.864833 55.920222,79.1594 c -0.456653,-3.883692 -0.840969,-7.827675 -0.659359,-11.703046 0.112183,-2.426513 0.488029,-4.871624 1.394578,-7.137511 0.836408,-2.090043 2.127253,-3.878066 3.354718,-5.746403 l 0.140463,-0.215667 0.141214,-0.220924 c 1.07348,-1.696976 1.92764,-3.471115 1.970436,-5.531941 0.04337,-2.09134 -0.565662,-4.126657 -1.246621,-6.084538 L 60.845958,42.036478 60.732049,41.716892 C 59.28339,37.670416 57.634785,33.681163 58.178493,29.277997 58.981521,22.79377 62.910887,17.567077 67.854761,13.536627 63.45807,14.40739 59.106169,16.12757 55.265324,18.308917 50.729197,20.88739 46.645394,24.29013 43.123563,28.130365 36.468634,35.387923 31.717225,44.095766 27.828,53.086607 c -4.071338,9.409315 -7.090352,19.268807 -9.365493,29.257222 -2.288028,10.045479 -3.819718,20.251581 -4.865704,30.497851 -0.52162,5.09988 -0.93169,10.21223 -1.27162,15.32712 -0.173239,2.62074 -0.304225,5.24571 -0.507042,7.86223 -0.202817,2.6144 -0.293873,5.26875 -0.931902,7.81362 -0.297887,1.18568 -2.3070418,1.30614 -2.5223235,0 C 7.88614,140.92764 8.0196651,137.91109 8.1530081,134.9573 l 0.012105,-0.26834 c 0.1311972,-2.942 0.3023239,-5.88188 0.5049296,-8.82177 0.4142957,-6.00868 0.9676056,-12.00892 1.6901403,-17.99013 2.533099,-20.995541 7.204437,-41.881177 16.367113,-61.046421 4.314084,-9.026771 9.851408,-17.797809 17.554225,-24.315852 3.667394,-3.10072 7.801901,-5.575632 12.257535,-7.367671 3.984719,-1.604148 8.032606,-2.362896 12.266409,-2.360782 2.123239,-1.627398 4.402817,-3.0455583 6.68007,-4.2568068 0.137324,-0.073761 0.280986,0.103773 0.167113,0.2179022 -0.05916,0.057065 -0.116409,0.1160313 -0.175352,0.1711937 0.257746,0.016908 0.523732,0.1373777 0.762465,0.3888845 0.836831,0.8768924 1.542464,1.9740114 2.173943,3.1129784 0.961268,1.200681 1.878169,2.441096 2.837535,3.628885 1.535705,1.902152 3.107536,3.776829 4.698592,5.636712 2.671979,3.125737 5.430991,6.192292 8.308113,9.135509 l 0.480619,0.489383 c 1.491338,1.511366 3.002113,3.320313 4.765986,4.516556 l 0.09418,0.06267 c 0.744201,0.485029 1.271921,0.573118 1.906531,-0.151222 0.57696,-0.659413 1.05719,-1.424522 1.5508,-2.151493 l 0.1142,-0.167019 c 2.52043,-3.662701 4.85705,-7.460666 6.97183,-11.370646 0.96396,-1.779378 1.88095,-3.584606 2.75097,-5.40981 l 0.2596,-0.548155 c 0.47324,-1.006027 0.98662,-1.993033 1.37725,-3.028861 0.0909,-0.242842 0.17958,-0.485894 0.2662,-0.726834 -1.33099,-0.872876 -2.36176,-2.762348 -2.73571,-4.2418 -0.38873,-1.5365167 -0.19225,-3.1134012 0.5005,-4.5186693 0.13098,-0.2641879 0.57042,-0.1988806 0.6338,0.082215 z M 47.535237,66.097162 c -0.184188,5.841934 -0.295948,11.689997 -0.570807,17.527492 l -0.09486,1.992821 c 0.428662,0.477864 0.680071,1.029276 0.479367,1.786122 -0.07796,0.28955 -0.308451,0.551624 -0.595775,0.648845 l -0.08958,1.852882 c -0.40772,8.33666 -0.885674,16.656016 -1.759011,24.971696 -1.092253,10.40689 -2.355633,20.79666 -3.61669,31.18474 -0.179577,1.47099 -1.202324,2.63744 -2.793169,2.42207 -1.609648,-0.2179 -2.262464,-1.61915 -2.051197,-3.07958 0.830282,-5.7295 1.628662,-11.46364 2.328169,-17.21216 l 0.79646,-6.5495 c 0.998709,-8.1871 2.020905,-16.37293 3.19861,-24.533999 0.492254,-3.410982 1.003522,-6.820063 1.516691,-10.229354 l -0.179366,-0.232486 c -0.73331,-0.952978 -1.491761,-1.885033 -2.241761,-2.823428 -1.440634,-1.809159 -2.862465,-3.603734 -4.182887,-5.497433 -0.06571,-0.09511 0.0676,-0.234598 0.162464,-0.162528 1.850705,1.367436 3.602324,2.829769 5.364296,4.315773 l 1.542254,1.305933 c 0.887324,-5.890332 1.766197,-11.782778 2.549788,-17.687906 0.01923,-0.147733 0.241057,-0.158512 0.237005,0 z m 26.621636,-55.90621 c -1.113591,1.0502 -2.252112,2.077573 -3.374155,3.121644 l -0.410982,0.384249 -0.409081,0.386019 c -1.971894,1.870702 -3.861153,3.818019 -5.435359,6.054233 -2.890141,4.106536 -4.611972,9.113213 -3.410071,14.126653 0.997395,4.152822 3.285423,7.917182 3.900212,12.173777 0.308239,2.132525 0.15845,4.275617 -0.644578,6.289574 -0.819718,2.054536 -2.129577,3.815084 -3.306338,5.668626 -2.556338,4.028336 -2.90493,8.449784 -2.651197,13.116399 0.266197,4.873738 0.825845,9.749378 1.516901,14.578943 1.398381,9.785519 3.506831,19.469591 6.297676,28.952881 1.396691,4.74904 3.046479,9.39663 4.68824,14.06324 0.817394,2.32274 1.770422,4.59053 2.752606,6.84754 0.517605,1.188 1.048098,2.36924 1.58683,3.54857 -0.198802,-1.66523 -0.198802,-3.37505 -0.295986,-5.02992 -0.139436,-2.37135 -0.316901,-4.73848 -0.479577,-7.10771 -0.331479,-4.80822 -0.627253,-9.62067 -0.891338,-14.43311 -0.935915,-17.161647 -1.624648,-34.338086 -1.574155,-51.527205 0.02556,-8.595616 0.200916,-17.191233 0.570634,-25.778607 0.173324,-4.043835 0.508969,-8.083805 0.812322,-12.12197 l 0.06444,-0.865294 c 0.26831,-3.624657 0.589437,-7.257769 1.140634,-10.850724 -0.163192,-0.368407 -0.304851,-0.74149 -0.40999,-1.124147 l -0.03769,-0.143955 0.02746,0.0042 c -0.02535,-0.112227 -0.0338,-0.224031 -0.02746,-0.333933 z m 9.62962,-14.7692009 c 0.02303,-0.099335 0.164577,-0.090881 0.189929,0 0.627465,2.1135029 0.405634,4.43835614 -0.135,6.5645401 -0.291549,1.1518591 -0.705633,2.2699021 -1.206337,3.3477886 l -0.175219,0.3772108 c -0.429009,0.9179803 -0.912061,1.8638069 -1.747528,2.4358617 -0.34838,0.2388258 -0.971831,0.2536203 -1.320423,0 L 79.214138,8.0122012 C 79.184873,7.989344 79.156,7.9660955 79.127831,7.9421425 78.80269,7.6695006 78.641915,7.0671523 78.791916,6.6698137 c 0.386619,-1.0250489 1.263591,-1.777456 1.869718,-2.6904892 0.536831,-0.8115852 1.012183,-1.6675538 1.407042,-2.5573386 0.851409,-1.92540116 1.233803,-3.9691585 1.717817,-6.0002348 z"
                 inkscape:connector-curvature="0"
                 style="fill:#000000" />
            </g>
            <g
               transform="translate(78.591549,38.043053)"
               id="head/hat-beanie"
               style="fill-rule:evenodd">
              <path
                 id="Path"
                 d="m 51.718537,12.407562 c 9.458775,0 20.807594,4.587268 21.7725,4.679013 l 0.02605,0.0014 c 0.507662,0 2.49131,1.511835 5.950944,4.535505 l -3.747175,7.311453 0.303244,0.289672 c 1.451113,1.391814 2.689929,2.660411 3.66777,3.660448 7.984151,8.165377 9.419167,40.225004 7.53757,51.405254 -1.881598,11.180251 -5.366683,22.120333 -21.591717,22.120333 -16.225034,0 -34.275753,-9.75959 -37.056353,-12.798843 -1.853734,-2.026168 -3.93596,-2.996878 -6.24668,-2.91213 -0.09497,-0.119881 -0.189173,-0.239411 -0.282611,-0.35859 L 21.7121,90.292892 C 18.514111,89.829551 16.222677,89.2059 14.837883,88.422148 12.132992,86.891258 9.1599888,78.843192 9.1599888,77.070306 c 0,-1.755158 -4.4393184,-14.523325 -4.5281048,-15.874491 l -0.00135,-0.03743 c 0,-1.129527 -5.7995232,-6.321886 -5.7995232,-7.970878 0,-1.648991 -1.168989,-1.548946 0,-7.359736 l 0.33962447,-1.70704 C 0.41462332,37.933954 2.8494475,27.689542 12.132992,23.238036 22.334689,18.346271 42.164219,12.407562 51.718537,12.407562 Z"
                 inkscape:connector-curvature="0"
                 style="fill:#ffffff" />
              <path
                 id="path4667"
                 d="M 10.558289,23.008227 C 15.646192,17.605733 44.53106,9.2493597 59.144717,11.020712 l 0.438431,0.05679 c 1.166197,0.147945 2.315493,0.371977 3.449789,0.676321 3.666338,0.856603 7.453521,2.153659 10.482887,4.320211 2.529085,1.772384 10.507183,4.666826 8.155775,9.303429 0.871901,1.652548 1.197253,3.694192 0.608028,5.3218 -0.07416,0.562192 -0.247395,1.08 -0.469014,1.61683 1.862746,2.749879 3.337605,5.859687 4.531478,8.817534 2.086268,7.443969 3.384508,15.190802 3.574648,22.785675 0.632536,14.429308 -0.949014,31.665135 -13.511408,40.995828 -7.588944,5.91253 -19.476549,6.1112 -28.004789,-1.2197 -0.484014,-0.57297 -2.76,-2.11921 -2.000493,-2.39037 0.226057,0.23882 0.458451,0.47131 0.695071,0.69957 -0.01078,-0.0254 -0.01289,-0.0507 -0.0085,-0.0782 l -0.222555,-0.20163 c -0.419097,-0.38786 -0.962036,-0.95042 -0.343642,-0.84033 0.02725,0.0317 0.05704,0.0592 0.08641,0.0909 0.130973,0.0786 0.229919,0.14674 0.306907,0.20681 l 0.0396,0.0317 -0.01224,-0.0127 c -0.356216,-0.37999 -0.569775,-0.76757 -0.03717,-0.52004 l 0.0705,0.0343 c 0.236831,0.24939 0.477465,0.48822 0.722535,0.7207 -0.004,-0.0275 0,-0.0549 0.015,-0.0845 l -0.228496,-0.22082 c -0.223049,-0.21865 -0.189006,-0.21959 -0.07995,-0.39632 -0.474084,-0.6647 0.410916,-0.26989 0.473029,-0.0106 0.553732,-0.13103 1.039859,0.90881 1.396478,1.03562 15.633592,12.02372 38.320986,1.35497 37.953592,-32.14934 l -0.0056,-0.655526 C 87.113608,58.241358 86.212399,47.230146 81.782937,37.532219 81.352162,36.598051 80.870261,35.689245 80.34019,34.810027 79.974697,34.150615 79.583852,33.50811 79.16343,32.882513 c -1.176972,-0.09511 -2.338944,-0.310685 -3.483803,-0.644619 -0.393169,-0.09933 -0.781902,-0.209236 -1.170423,-0.33816 -5.678873,0.309839 -11.231197,0.646943 -16.925915,0.966505 l -1.778774,0.11083 c -4.824105,0.310258 -9.81315,0.807189 -13.706085,3.792176 -3.819719,2.717542 -3.837043,8.076328 -7.106831,11.05996 -4.662677,3.165816 -4.696691,6.020525 -5.594578,10.685871 0.06655,3.516869 2.504155,8.626685 -1.969014,10.106771 0.754648,1.076407 -0.297254,0.559233 -0.38007,0.181762 -0.0085,0.0021 -0.0169,0.0042 -0.02324,0.0042 0.672465,1.250559 -0.316056,0.463068 -0.403521,0.06129 -0.05282,-0.01479 -0.105634,-0.05284 -0.158451,-0.105675 0.677536,1.09564 -0.417676,0.328438 -0.352817,0.128924 -1.309225,-2.013112 -4.003732,-2.325699 -5.903028,-1.792251 -0.02324,0.07186 -0.107535,0.0782 -0.160352,0.04016 -8.076127,1.750826 -5.992394,18.476242 2.283803,16.859413 0.354296,-0.07228 0.345845,0.09785 0.416197,0.114129 -0.191197,-0.502168 0.347747,-0.297793 0.342042,-0.192329 l 0.03284,-0.0016 c 0.02602,-0.0023 0.01538,-0.0051 0.03477,0.0016 -0.184859,-1.026951 0.855423,0.460955 0.773239,0.522035 0.0319,-0.01902 0.06782,-0.02959 0.09951,-0.03382 l -0.03581,-0.09748 c -0.172646,-0.460118 -0.157845,-0.268874 -0.156654,-0.532339 -0.129719,-0.32569 -0.139226,-0.18324 -0.108803,-0.395436 0.455915,-0.353378 0.590493,0.718591 0.742606,0.797002 -0.260705,-0.363523 -0.05345,-0.66047 0.192464,-0.463068 1.864014,3.922238 4.271831,7.607553 7.383592,10.510661 0.340352,0.268415 0.684718,0.532603 1.041549,0.781996 1.323592,1.153339 3.353873,1.894967 4.592958,2.916634 0,0.01691 -0.0082,0.03804 -0.02092,0.05918 l 0.02836,0.02563 v 0 l 0.02868,0.02721 0.430986,0.207123 c 0.12676,0.107789 0.240845,0.228258 0.342042,0.361409 0.107958,0.124697 0.202817,0.262074 0.28331,0.407906 0.04014,0.177534 -0.04859,0.251507 -0.217606,0.175421 -0.07416,-0.02536 -0.147887,-0.05495 -0.221831,-0.08243 0.0042,0.0063 0.0061,0.01057 0.01056,0.01479 0.02424,0.03668 0.188356,0.417284 -7.49e-4,0.355356 l -0.02249,-0.0087 c -0.103732,-0.03804 -0.207042,-0.08031 -0.308451,-0.12047 0.120423,0.150059 0.230071,0.312799 0.327254,0.450177 0.103732,0.107788 0.166901,0.234593 0.192465,0.378313 -0.0044,0.0803 -0.04859,0.11413 -0.128874,0.10356 -0.122535,-0.0402 -0.242957,-0.0824 -0.363591,-0.12681 l 0.03431,0.0655 c 0.08523,0.16771 0.206361,0.449 -0.0087,0.35512 -0.184014,-0.0571 -0.361267,-0.12258 -0.538732,-0.19444 -0.015,0.0296 -0.04437,0.0401 -0.103521,0.0127 -0.564085,-0.20079 -1.109155,-0.445948 -1.630986,-0.735498 -0.458451,-0.333934 -0.921338,-0.661526 -1.38169,-0.993346 -0.43331,-0.259961 -0.85162,-0.549511 -1.250705,-0.874991 -2.67169,-1.726309 -5.010633,-3.91928 -6.866197,-6.361644 -3.10331,2.688588 -9.308028,0.120047 -13.146126,-1.984579 C 9.7527254,87.563061 8.4183592,84.08508 8.0733592,80.335303 7.3561056,75.28699 3.232162,73.55899 3.5190634,62.482121 c -0.00634,0.0021 -0.012887,0.0021 -0.021338,0.0021 -0.15,-0.04438 -0.2955634,-0.103562 -0.4328874,-0.179648 C 2.9232887,62.236955 2.7901901,62.156642 2.665331,62.059421 L 2.5111056,61.845957 v 0 c -0.08007,-0.04438 -0.1519014,-0.09088 -0.2068309,-0.137378 l -0.028487,0.03675 c -0.090175,0.10886 -0.029559,-0.05493 -0.02433,-0.08748 L 1.9835395,61.293361 C 1.3482854,60.425699 0.65134331,59.452151 0.08364085,58.673589 l -0.01788199,0.03164 C 0.0529165,58.729101 0.04612575,58.746354 0.05216197,58.753902 -1.2988944,56.812016 -2.5694578,54.46645 -2.9224859,52.195703 -3.3393169,50.446567 -3.1764296,48.644172 -2.812838,47.023961 -1.2538944,41.350262 3.8528662,28.511155 10.558289,23.008227 Z m 36.665025,78.464433 -0.08466,-0.0754 0.07444,0.0933 c 0.03901,0.0482 0.07895,0.0916 0.143999,0.13577 -0.0042,-0.0148 -0.0042,-0.0296 -0.0023,-0.0465 -0.04314,-0.0329 -0.08725,-0.069 -0.131454,-0.10715 z M 59.08012,13.871554 c -9.910141,-0.852376 -19.657395,1.331718 -29.114155,3.975499 l -0.652367,0.187577 c -5.377214,1.534942 -11.063053,2.916143 -15.607211,6.201542 -6.3488025,4.86465 -9.6272532,12.603452 -12.4882391,19.748572 -2.4982394,5.308696 -1.22112677,11.294771 2.543662,15.001643 0.3916901,-3.683624 1.059507,-7.259459 2.103169,-10.806551 0.2178169,-0.554161 0.053028,-0.735711 0.5224648,-0.807993 0.709014,9.558951 -2.7830282,16.621433 4.1275353,27.950231 2.998521,5.345472 -0.472606,9.25672 7.995,12.069582 l 0.229149,0.08759 c 1.764102,0.665933 3.690622,1.191586 5.418456,0.81931 l -0.154797,-0.251895 c -0.15787,-0.259404 -0.205777,-0.385326 0.02381,-0.496285 -0.0061,-0.01268 -0.01458,-0.02536 -0.02324,-0.04016 -0.185704,-0.350841 -0.365281,-0.70591 -0.53662,-1.065205 -0.06951,0.02325 -0.139225,0.04016 -0.211267,0.05918 0.04669,0.08665 0.05282,0.173307 -0.07796,0.202896 -0.465549,0.159781 -0.943613,0.223825 -1.432989,0.19385 l -0.105039,-0.0079 c -0.552887,-0.03382 -0.901268,-0.13463 -1.212887,-0.228258 -0.10331,-0.01691 -0.206831,-0.03382 -0.308451,-0.05495 -1.002465,-0.222341 -2.063662,-0.787914 -2.750493,-1.348415 -7.829155,-4.448501 -7.02,-19.591538 2.630282,-21.023014 0.197957,-9.534434 4.731126,-25.619882 12.254366,-34.705197 6.800282,-8.357002 25.365211,-11.979124 38.281267,-10.701934 0.18824,0.06235 0.376479,0.125331 0.564719,0.188947 1.992676,0.177112 3.89176,1.065206 5.885915,1.477762 C 75.552444,19.424571 73.928218,18.709573 72.25519,18.101941 68.92181,16.0622 65.100401,14.958528 61.4085,14.180125 60.643711,13.992024 59.868359,13.888462 59.08012,13.871554 Z M 19.556239,71.897756 c 0.518874,-0.281942 0.459507,-0.0097 0.578874,-0.08877 3.732253,-0.304556 7.75669,2.964399 9.842957,5.68955 -0.164788,0.171193 -0.610563,-0.336047 -0.688732,-0.416361 -0.01056,0.01057 -0.02324,0.01902 -0.03592,0.02325 l 0.05809,0.08202 c 0.845585,1.21394 -0.830695,-0.21453 -0.987671,-0.50895 -0.02746,0.01479 -0.05493,0.02325 -0.08662,0.01691 0.132888,0.130404 0.538733,0.470466 0.608451,0.712251 l 0.107598,0.08958 c 1.014592,0.869173 0.930388,1.523007 -0.221471,0.28874 0.02725,0.05707 0.03782,0.109902 0.0188,0.152172 l 0.03966,0.02644 c 0.566418,0.395972 1.032243,1.499787 -0.151633,0.366671 0.123169,0.827647 -1.173169,-0.772063 -1.214789,-0.760861 -2.243239,-1.761605 -5.545986,-3.474811 -8.359859,-3.704971 l -0.09685,-0.01113 c -0.516349,-0.06637 -0.760477,-0.219633 -0.579209,-0.557401 -0.635916,-0.151327 -0.486972,-0.464548 -0.185916,-0.454403 -0.448521,-0.295045 -0.04479,-0.577198 0.215493,-0.467085 -0.178944,-0.495616 0.538732,-0.165487 0.604225,-0.234598 0.372465,-0.574662 0.472817,-0.09532 0.534507,-0.243053 z M 11.733021,41.177991 c 1.792606,-0.656877 7.087606,1.309526 6.664014,3.913784 -0.252253,0.59791 -1.08338,0.940509 -1.667535,0.602983 l -0.762429,-0.512262 c -1.326824,-0.888932 -2.523472,-1.668406 -3.947993,-2.443683 -0.775353,-0.384869 -1.109155,-1.20195 -0.286057,-1.560822 z m 10.198923,-3.870078 -0.692312,-0.450706 c -3.736042,-2.446084 -9.017569,-6.152486 0.349002,-2.317771 1.067535,0.457996 2.485986,0.728947 3.06845,1.745964 0.915,1.874466 -1.493028,2.000431 -2.72514,1.022513 z m 0.419831,-10.975209 c -0.299789,-1.138122 3.430563,0.197401 4.516479,0.54951 l 0.165399,0.06249 c 1.056341,0.393762 2.26722,0.759046 2.899037,1.671002 0.740282,1.26007 -0.758028,1.521088 -1.686127,0.951921 -1.902887,-1.244008 -3.989155,-2.182614 -5.894788,-3.234927 z m 9.485979,-5.301701 c -2.099707,-2.293863 3.519703,-0.09642 4.36146,0.513554 l 0.02403,0.01799 c 0.628098,0.442356 0.500704,1.395123 -0.08937,1.674951 -1.678943,0.03191 -2.914436,-1.368071 -4.296126,-2.206497 z m 9.554788,-2.513209 c -3.338028,-2.399882 1.059085,-1.25838 2.586338,-0.317871 1.040916,0.918317 -0.03127,2.468572 -2.586338,0.317871 z"
                 inkscape:connector-curvature="0"
                 style="fill:#000000" />
            </g>
            <g
               transform="translate(112.1831,77.354207)"
               id="face/Eating-Happy"
               style="fill:#000000;fill-rule:evenodd">
              <path
                 id="path4670"
                 d="m 26.651385,41.486417 c 1.181855,-1.944846 3.700972,2.819381 3.968625,3.638583 0.237054,0.725687 0.393539,1.469073 0.473077,2.221062 0.916252,0.205441 1.867712,0.20582 2.806543,0.02578 1.395344,-0.267811 2.248326,-1.018242 3.461039,-1.662606 0.83763,-0.445254 1.893293,0.07688 2.328885,0.815327 0.512376,0.869189 0.185947,1.771339 -0.487941,2.41932 -1.277954,1.228732 -3.792399,1.511012 -5.460562,1.184701 -0.955767,-0.18688 -1.831733,-0.545447 -2.605287,-1.066547 -0.0051,0.09724 -0.0086,0.19451 -0.01622,0.291609 l -0.01477,0.168435 c -0.128171,1.362781 -0.50259,3.076375 -1.560691,3.963126 -1.735414,1.454593 -3.87715,-1.34284 -2.190891,-2.795788 l 0.05228,-0.04361 c 1.048133,-0.847208 1.276797,-3.120288 1.220355,-4.372292 -0.03701,-0.81716 -0.185802,-1.644786 -0.443709,-2.423059 l -0.05304,-0.154979 c -0.07763,-0.21985 -0.924108,-2.305326 -1.229984,-2.039734 l -0.0146,0.01497 c -0.126131,0.150661 -0.329968,-0.02484 -0.233107,-0.184307 z M 36.087529,30.51204 c 1.595362,0.970108 4.026203,3.232209 2.309961,5.637224 -2.020181,2.120581 -4.928786,-0.31081 -6.362095,-1.410433 -1.329032,-0.852215 -2.822274,1.339617 -1.589198,2.334721 10.357127,7.671008 14.560269,-6.307842 6.448244,-7.70212 -0.893164,-0.153644 -1.224887,0.840495 -0.806912,1.140608 z M 19.051838,21.545112 c 1.559155,-0.276657 3.156338,0.111171 4.446549,1.023781 l 0.09778,0.07035 c 1.242996,0.909412 2.633728,2.506254 1.920456,4.073802 -0.286268,0.629401 -1.143592,0.728101 -1.687606,0.442779 -0.905704,-0.475116 -1.069859,-1.644094 -1.877958,-2.291038 -0.662746,-0.530278 -1.555141,-0.851953 -2.408662,-0.774387 -2.00514,0.182184 -3.238521,2.160634 -3.861338,3.865597 -0.07965,0.218113 -0.399718,0.302865 -0.524788,0.06869 -1.468522,-2.745863 1.130915,-5.988822 3.895563,-6.479578 z m 24.97407,-1.03625 c 2.986691,-0.246223 6.482536,2.851327 5.696198,6.005096 -0.377113,1.513268 -2.620986,1.469941 -3.01986,0 -0.219507,-0.808838 -0.197535,-1.52447 -0.779577,-2.196141 -0.480422,-0.554583 -1.163028,-0.876681 -1.896761,-0.827225 -0.808732,0.05453 -1.554718,0.458841 -2.121549,1.027162 -0.511901,0.513159 -0.818028,1.264086 -1.34831,1.718278 -0.130563,0.111593 -0.305281,0.118779 -0.434155,0 -0.912676,-0.841808 -0.364859,-2.594325 0.213803,-3.473119 0.828169,-1.257535 2.17669,-2.129143 3.690211,-2.254051 z M 13.364324,15.951685 c 1.915986,-1.696721 5.397465,-3.335319 7.981056,-2.500274 1.485423,0.479976 2.132958,2.874364 0.474719,3.633322 -1.920212,0.878795 -4.134085,0.52119 -6.088521,1.43211 -0.820775,0.382755 -1.592747,0.861041 -2.164226,1.562513 -0.450211,0.552892 -0.908239,1.28036 -1.559366,1.599076 -0.171127,0.08391 -0.402887,0.08602 -0.54,-0.06953 -1.427324,-1.615139 0.65007,-4.553754 1.896338,-5.657213 z m 27.368408,-2.584497 c 1.184155,-0.332454 2.497817,-0.325691 3.700775,-0.116877 1.202535,0.208814 2.423451,0.707389 3.405211,1.434646 l 0.11397,0.08515 c 1.071781,0.807958 2.350766,1.983512 2.282227,3.414805 -0.05725,1.195186 -1.314084,2.003601 -2.399154,1.377159 -0.884578,-0.510834 -1.300775,-1.534192 -2.049719,-2.215585 -0.617958,-0.562403 -1.343873,-1.005816 -2.11838,-1.316501 -0.860282,-0.345135 -1.722042,-0.506818 -2.645282,-0.522247 -0.710915,-0.01183 -1.426056,0.221495 -2.123662,0.296102 0.05747,0.117934 -0.493943,0.06298 -0.81,-0.04164 -0.234084,-0.09976 -0.235352,-0.395859 -0.154225,-0.587976 0.402465,-0.951711 1.866761,-1.545817 2.798239,-1.807045 z"
                 inkscape:connector-curvature="0" />
            </g>
            <g
               transform="translate(104.57745,109.47938)"
               id="facial-hair/*-None-6" />
            <g
               transform="translate(88.521127,88.978474)"
               id="accessories/*-None-2" />
          </g>
        </g>
      </g>
    </g>
    <g
       id="Introduction-0"
       transform="matrix(0.27860616,0,0,0.2733371,64.267552,8.0353562)"
       style="fill:none;fill-rule:evenodd;stroke:none;stroke-width:1">
      <g
         transform="translate(-2046,-1730)"
         id="variations-62">
        <g
           transform="translate(126,110)"
           id="images-6">
          <g
             transform="translate(1920,1620)"
             id="a-person/bust-1">
            <g
               transform="translate(31.056338,135.05284)"
               id="body/Explaining"
               style="fill-rule:evenodd">
              <path
                 id="ðŸŽ¨-Background-8"
                 d="m 158.38811,84.73543 c -1.41254,-4.342211 0.26988,-9.357486 -0.82977,-14.038461 -0.37684,-1.851477 -1.09313,-8.730274 -1.8124,-12.75259 -0.40233,-2.24997 2.00466,-2.948547 2.37449,-3.846613 2.60324,-8.067332 -16.38697,-27.045898 -17.5462,-27.745151 -1.73704,-1.00425 -3.2741,-1.868739 -4.97142,-2.894712 -4.95127,-1.739853 -10.88856,-6.580179 -15.37724,-3.471269 -7.77718,-11.5816654 -4.70044,-25.8509045 -8.92056,-27.546839 -4.22012,-1.6959345 -16.682327,-5.123628 -23.807116,-0.7465729 -4.270563,3.1609435 -3.955774,8.60247243 -5.904295,13.090083 -1.143757,2.1124535 -1.705672,5.1726345 -3.03712,6.5503919 -4.523906,4.681255 -10.165314,5.488415 -16.472111,6.282944 -0.48037,0.06052 -0.985728,-1.246454 -1.45249,-1.085065 -10.638602,3.678453 -23.017626,4.751751 -35.065815,25.348722 -1.701549,2.94564 -6.29176,7.671783 -4.756901,11.075777 -10.112958,23.525326 -20.06374061,76.476075 7.685203,89.681235 0.886991,0.56753 6.904335,-2.47593 7.884797,-2.44772 1.634383,0.047 -1.497191,4.01686 0,3.30958 10.992008,0.83433 71.475238,-1.31817 94.659298,0.83433 15.94295,-0.11938 26.04083,2.67697 29.72218,-0.11938 -1.47169,-3.55778 -1.40345,-7.36872 -0.93824,-11.13019 3.3881,-2.52213 -0.80028,-20.29728 -0.44577,-25.50221 3.17155,-3.80341 0.64626,-18.068095 -0.98852,-22.84629 z"
                 inkscape:connector-curvature="0"
                 style="fill:#ffffff" />
              <path
                 id="ðŸ–-Ink-7"
                 d="m 153.33359,58.699247 c -1.52091,2.212837 -2.91824,4.490982 -4.18141,6.860642 -0.65134,1.222239 -1.25894,2.468783 -1.80591,3.740689 -0.11366,-2.75009 -0.13859,-5.532728 -0.45993,-8.255766 -0.023,-0.196555 -0.35071,-0.292086 -0.38514,-0.05241 -0.35493,2.469205 -0.41345,5.002238 -0.54761,7.497863 -0.15443,-0.04734 -0.32514,-0.07461 -0.51317,-0.07461 -1.82535,0 -3.62324,0.149636 -5.44204,0.297158 -0.81507,0.06594 -1.66775,0.116455 -2.49908,0.246435 0.66908,-0.739303 1.29232,-1.520243 1.8676,-2.334787 0.58669,-0.830818 1.25725,-2.129143 0.23493,-2.927201 -1.12922,-0.881542 -3.34373,0.271373 -4.4362,0.719647 -0.55288,0.226991 -1.09521,0.474059 -1.62908,0.736768 -0.67416,-1.889472 -2.74056,-2.139922 -4.51204,-1.879116 -1.26296,0.1862 -2.48895,0.618411 -3.71979,0.947484 -1.56275,0.417628 -3.13204,0.810739 -4.70704,1.179757 -2.83627,0.664062 -5.69198,1.244642 -8.5612,1.747655 -0.0759,-0.08813 -0.18106,-0.157667 -0.32155,-0.192751 -0.98239,-0.245589 -2.06641,-0.05749 -3.07415,-0.03889 -1.03606,0.01923 -2.07233,0.01775 -3.10839,-0.0036 -1.85091,-0.03783 -3.69992,-0.05326 -5.550418,-0.08539 -0.526056,-0.318928 -1.193028,-0.776712 -1.356338,-1.377158 -0.203873,-0.749237 0.432887,-1.57921 0.72845,-2.217065 1.135146,-2.449127 1.532116,-5.189918 1.086756,-7.857159 -0.0794,-0.475538 -0.24295,-0.99546 -0.47915,-1.482622 2.02754,0.217057 4.02866,0.364368 6.06718,0.430943 4.0705,0.132517 8.14078,0.271374 12.21317,0.301597 8.14247,0.06066 16.28514,0.06108 24.42761,0.0015 4.60394,-0.03361 9.19732,-0.07588 13.79556,-0.311108 -0.37479,0.475115 -0.73922,0.960587 -1.095,1.453456 -0.0735,-0.02198 -0.16965,0.01754 -0.15845,0.108845 0.004,0.03191 0.007,0.06362 0.0112,0.09532 -0.64923,0.907116 -1.27416,1.828603 -1.88937,2.723883 m -9.05387,84.216114 c -1.89233,-0.0602 -3.78423,-0.12068 -5.67634,-0.18091 -3.71408,-0.11815 -7.42817,-0.2365 -11.14204,-0.35465 -7.35782,-0.23438 -14.71543,-0.46032 -22.0743,-0.66343 -7.341124,-0.20247 -14.685843,-0.41678 -22.029082,-0.18768 -7.35993,0.22974 -14.701057,0.82385 -22.047254,1.30087 -4.084014,0.26482 -8.170986,0.49434 -12.262605,0.60425 -3.896831,0.1044 -7.828099,-0.0537 -11.718803,0.22445 -0.130775,-0.96228 -0.03465,-1.92181 -0.0488,-2.88028 1.276268,-0.7374 2.528873,-1.5213 3.766901,-2.29146 4.513521,-2.80842 8.779859,-5.98565 12.804085,-9.45877 0.618591,-0.53387 1.225141,-1.07916 1.825563,-1.63015 -0.417887,0.91346 -0.08345,2.0911 1.114226,2.47787 1.460493,0.47131 2.955845,0.30393 4.472746,0.26821 1.540352,-0.0361 3.080704,-0.0706 4.621268,-0.10314 3.010774,-0.0638 6.02176,-0.12111 9.032746,-0.17162 5.882113,-0.0985 11.764437,-0.1714 17.646972,-0.21917 11.835207,-0.0955 23.662177,0.0657 35.495487,0.2792 3.32747,0.0602 6.65155,0.13484 9.97902,0.0594 1.66479,-0.0376 3.33633,-0.0497 4.99922,-0.13928 1.33226,-0.0721 2.67254,-0.26059 4.00458,-0.43009 0.16796,2.32083 0.34352,4.64104 0.53916,6.95976 0.1295,1.53102 0.2626,3.06205 0.39401,4.59307 0.0539,0.6313 0.0579,1.27613 0.14683,1.87615 -1.2788,0.0702 -2.54979,0.10843 -3.84359,0.0674 m 1.30119,-65.534862 c -0.0465,1.7764 -0.0712,3.554067 -0.0839,5.331946 -0.15359,-0.08813 -0.32662,-0.152384 -0.52162,-0.181973 -2.06936,-0.315969 -4.28366,-0.0763 -6.37732,-0.041 -2.02373,0.03382 -4.05444,0.0224 -6.07627,0.117934 -2.02584,0.09574 -4.05084,0.210082 -6.07627,0.314911 -0.95028,0.04967 -1.89021,0.09215 -2.83309,0.220861 -0.64606,0.08813 -1.47233,0.08179 -2.16254,0.265668 2.89542,-2.805253 5.77521,-5.62699 8.66282,-8.440063 0.0864,-0.08454 0.14894,-0.17373 0.19267,-0.26461 1.92549,-1.173629 3.77366,-2.494568 5.44733,-4.007202 1.32739,0.511891 2.83838,0.576564 4.24563,0.690693 1.81923,0.147734 3.61606,0.297158 5.44204,0.297158 0.12338,0 0.23895,-0.01205 0.34775,-0.03339 -0.0894,1.908704 -0.15718,3.817409 -0.20726,5.729072 M 70.401972,111.89104 c 4.420352,1.41225 9.209577,1.3964 13.808239,1.67918 4.902465,0.3016 9.797535,0.55226 14.705704,0.74353 9.802605,0.38085 19.598875,0.89866 29.399995,1.31059 5.59839,0.23523 11.1955,0.49455 16.79155,0.7765 0.39698,0.0199 0.77557,-0.082 1.10958,-0.26842 0.18782,3.68658 0.40796,7.37169 0.66423,11.05447 0.0319,0.46053 0.0674,0.92064 0.10014,1.38138 -2.63388,-0.33055 -5.24768,-0.64694 -7.9012,-0.87097 -2.97972,-0.25193 -5.95796,-0.46413 -8.9419,-0.66216 -5.81472,-0.38551 -11.63873,-0.90205 -17.46401,-1.09015 -11.87493,-0.38402 -23.776061,-0.25341 -35.655427,-0.16887 -3.361267,0.0239 -6.722324,0.0564 -10.08338,0.097 -1.680423,0.0205 -3.360845,0.0429 -5.041268,0.0672 -1.688873,0.0249 -3.503873,-0.1509 -5.102957,0.43877 -0.01521,0.005 -0.0281,0.0137 -0.0431,0.0194 4.824296,-4.57278 9.146197,-9.62637 13.653803,-14.50751 M 85.941127,97.271732 c 7.387394,1.345456 14.890563,1.253308 22.378733,1.386458 7.66204,0.136533 15.33444,0.04608 22.99775,0.06193 4.35316,0.0091 8.74373,0.20036 13.08126,-0.187045 0.51254,-0.04586 0.90972,-0.240305 1.19303,-0.516118 0.079,4.615043 0.22373,9.228393 0.42338,13.839633 -0.28141,-0.11962 -0.58859,-0.19232 -0.90782,-0.21114 -9.79225,-0.57635 -19.58514,-1.09923 -29.38943,-1.41858 -9.79648,-0.31935 -19.605002,-0.69809 -29.406762,-0.57952 -4.78331,0.0579 -9.841479,-0.24813 -14.559085,0.79468 1.792817,-1.90575 3.624085,-3.7762 5.539648,-5.56718 2.792746,-2.61081 5.772887,-5.056343 8.649296,-7.603114 m 5.644014,-5.432548 c 0.0099,-0.0112 0.01479,-0.02367 0.02218,-0.0353 0.02662,0.01966 0.05915,0.03318 0.101831,0.03234 6.915211,-0.155976 14.673168,2.026427 21.140918,-1.323052 2.8874,-1.495092 5.27852,-3.8582 7.59972,-6.129582 0.001,0.0167 0.003,0.03361 0.004,0.05051 0.0152,0.184298 0.0932,0.406215 0.27993,0.487797 0.76289,0.334779 1.65634,0.356759 2.47542,0.47596 0.94205,0.137378 1.86719,0.217691 2.81747,0.274756 2.09514,0.125753 4.19007,0.258904 6.28584,0.377471 2.09113,0.118357 4.19176,0.128079 6.28564,0.180282 2.09958,0.0522 4.29908,0.306458 6.37732,0.0068 0.19078,-0.02747 0.36042,-0.0875 0.51106,-0.170559 0.003,2.689432 0.0277,5.378653 0.0528,8.066395 0.004,0.438129 0.0127,0.876047 0.0177,1.313754 -0.28056,-0.257002 -0.66613,-0.436862 -1.15817,-0.480188 -3.85373,-0.339429 -7.73725,-0.188525 -11.6045,-0.175421 -3.79754,0.01247 -7.5955,0.02515 -11.39324,0.03783 -7.66838,0.02557 -15.33064,0.100391 -22.997753,0.246434 -3.72845,0.07101 -7.440634,0.384869 -11.114577,0.988274 1.487535,-1.355601 2.933662,-2.751147 4.296338,-4.22447 M 31.499789,140.73824 c -1.415705,0.43306 -2.821057,0.24517 -4.239507,0.54191 -0.08725,0.0182 -0.167747,0.052 -0.241479,0.0966 -4.247747,-1.8155 -7.079155,-5.45875 -9.016902,-9.54119 -2.042535,-4.30331 -3.450422,-8.90356 -4.393521,-13.56679 -1.944507,-9.61369 -1.947887,-19.581816 -0.941408,-29.307734 0.988944,-9.555147 2.946972,-19.058513 5.741197,-28.247812 1.918521,-6.309652 4.363521,-12.684188 7.75838,-18.437354 3.920071,2.627507 6.960212,6.410677 9.824155,10.108462 3.422324,4.419123 6.506409,9.095459 9.267043,13.954403 -0.285423,0.832297 -0.329789,1.876368 -0.466691,2.620321 -0.263873,1.434645 -0.502183,2.887256 -0.689577,4.33416 -0.400352,3.092689 -0.784437,6.187069 -1.193662,9.278489 -0.809366,6.113096 -1.775704,12.209495 -2.84324,18.282435 -0.08641,0.49245 0.05176,0.90838 0.305916,1.22055 -2.117324,1.11635 -4.206972,2.28237 -6.242958,3.54624 -4.476127,2.77863 -8.659436,6.01546 -11.943803,10.1668 -0.08535,0.10779 0.04838,0.25193 0.154015,0.15429 7.043239,-6.51044 15.793521,-10.59796 24.384718,-14.63749 4.390352,-2.064472 8.759155,-4.162124 12.971408,-6.575744 4.40493,-2.523523 8.605775,-5.375484 12.632113,-8.466271 4.597605,-3.529127 8.925422,-7.387538 12.982394,-11.527045 0.477888,-0.488007 0.362113,-1.09881 0.0025,-1.484735 0.121479,-0.03762 0.219507,-0.143296 0.225846,-0.319562 0.09739,-2.703382 0.908873,-5.006466 2.497605,-7.194364 1.473803,-2.03002 3.352183,-3.702857 5.04655,-5.539491 0.752957,-0.816235 1.472535,-1.666497 2.114999,-2.573613 0.661479,-0.933534 1.064367,-1.964078 1.640071,-2.93946 0.672465,-1.139812 1.244577,-0.557542 1.556197,0.47427 0.353451,1.169613 0.331479,2.538952 0.189507,3.741323 -0.150211,1.272329 -0.537465,2.512744 -1.095211,3.662701 -0.523944,1.080211 -1.127958,2.179021 -0.775352,3.417111 0.579507,2.03467 3.064014,3.212948 4.946198,3.671155 2.09578,0.5102 4.2881,0.411076 6.41029,0.146466 2.65774,-0.331609 5.30281,-0.816869 7.92993,-1.332986 3.04246,-0.597488 6.06697,-1.287124 9.0678,-2.066372 1.41065,-0.36627 2.81135,-0.847938 4.23571,-1.151225 0.50788,-0.108 1.44782,-0.270317 2.04464,-0.0055 -7.67217,4.575311 -16.03647,7.623405 -24.53175,10.279444 -1.05549,0.329706 -0.6226,1.924344 0.45761,1.660156 9.12655,-2.232281 17.71289,-6.375381 25.8845,-10.913072 0.12507,-0.06975 0.23112,-0.177323 0.30908,-0.304556 0.82204,-0.289338 1.65782,-0.540634 2.51007,-0.747969 0.38092,-0.09257 2.34022,-0.739303 2.58507,-0.490755 0.34711,0.351898 -0.85393,1.494669 -1.15394,1.826912 -2.1355,2.366489 -4.67557,4.29802 -7.425,5.894771 -2.78895,1.619366 -5.75641,2.910505 -8.73782,4.128939 -3.33972,1.364901 -6.86979,2.437715 -10.11613,4.006568 -1.28957,0.623272 -0.38471,2.740368 0.97395,2.311115 1.75098,-0.553526 3.45232,-1.367013 5.15387,-2.058129 1.4455,-0.586708 2.8912,-1.173205 4.32845,-1.779992 1.00204,-0.423123 1.99734,-0.860407 2.98289,-1.317346 -1.47633,1.389839 -2.95288,2.779679 -4.42901,4.170152 -2.55634,2.407703 -4.98529,5.150396 -8.11036,6.839084 -3.08746,1.6684 -6.60971,1.862419 -10.04641,1.82649 -1.72542,-0.01818 -3.44323,-0.07292 -5.168652,-0.0034 -1.815845,0.07313 -3.428451,0.352321 -5.149226,0.924024 -0.03169,0.01057 -0.05472,0.02959 -0.07416,0.05115 -0.06021,-0.07334 -0.162253,-0.110113 -0.267676,-0.04777 -4.675986,2.76573 -8.93831,6.353613 -13.037535,9.899656 -4.224929,3.65488 -8.200352,7.5414 -11.988169,11.64688 -3.625563,3.92921 -7.222183,7.87364 -11.167394,11.489 -3.852042,3.52997 -7.968592,6.73531 -12.267043,9.70182 -2.342112,1.61641 -4.742112,3.173 -7.225352,4.56453 -1.326972,0.74353 -2.674648,1.49256 -4.135774,1.93935 M 31.892958,34.34493 c 1.674507,-1.881652 3.476831,-3.625714 5.383943,-5.239163 0.841479,0.249182 1.724789,0.318928 2.61486,0.328016 1.358239,0.01353 2.719436,0.07017 4.077676,0.05622 2.615281,-0.02684 5.229507,-0.109479 7.845422,-0.12364 5.348662,-0.02917 10.699014,-0.03064 16.047676,0.01585 0.700775,0.0061 1.206338,-0.293566 1.51838,-0.728948 1.082747,1.227946 2.198662,2.42757 3.323874,3.608173 1.828098,1.918215 3.777042,3.748297 5.85169,5.416062 -0.403944,0.0027 -0.807676,0.0063 -1.209296,0.0036 -1.85007,-0.01247 -3.700352,-0.02409 -5.550211,-0.03403 -3.712606,-0.0205 -7.425211,-0.03572 -11.137817,-0.04565 -7.380845,-0.01944 -14.784718,0.04206 -22.156056,0.420165 -2.045916,0.104829 -4.107888,0.147311 -6.14662,0.346826 -1.105775,0.108211 -2.210282,0.234387 -3.315,0.352109 -0.226057,0.02409 -0.442817,0.05432 -0.655564,0.08834 1.081902,-1.555115 2.247254,-3.048516 3.507043,-4.463929 M 61.454155,17.572805 c -0.04986,0.03382 -0.103733,0.06404 -0.151479,0.10018 -0.108591,0.08158 -0.09148,0.229104 0.03655,0.278559 0.170282,0.06658 0.349226,0.116877 0.533451,0.156611 0.559437,0.811796 0.996549,1.815288 1.301831,2.323796 0.876972,1.461276 1.885352,2.853229 2.911268,4.212212 0.206197,0.272853 0.416408,0.542747 0.627464,0.812008 -4.967957,-0.01184 -9.93338,0.01353 -14.89838,0.201417 -2.614014,0.09912 -5.236901,0.182183 -7.845422,0.378316 -1.072606,0.08074 -2.144578,0.216212 -3.213803,0.350208 5.564788,-4.02411 11.822958,-7.096932 18.306127,-9.378247 -0.0089,0.0099 -0.01796,0.01733 -0.02683,0.02726 -0.142817,0.158513 0.07035,0.363946 0.231126,0.231218 0.843381,-0.697668 1.575423,-0.370286 2.188099,0.306458 m 25.10197,47.299565 C 86.415,65.086464 86.276197,65.307325 86.140775,65.533893 85.815,65.208836 85.35993,64.991568 84.773662,64.973392 78.265563,64.770284 71.760634,64.59275 65.248944,64.588312 c -3.211268,-0.0021 -6.451691,-0.110325 -9.658944,0.04861 -1.610493,0.07989 -3.220352,0.174998 -4.83,0.266301 -1.125423,0.06383 -2.320986,0.143296 -3.42,0.469198 -2.532887,-4.432016 -5.344648,-8.693049 -8.415211,-12.767248 6.96676,0.854911 14.052887,0.76382 21.059155,1.001166 7.937957,0.269049 15.880352,0.326959 23.821056,0.515061 2.178169,0.05157 4.356338,0.108211 6.534084,0.16908 1.123944,0.03149 2.248099,0.06404 3.372254,0.09807 0.351338,0.01057 0.71493,0.02029 1.078944,0.01078 -0.02747,0.05685 -0.05535,0.113707 -0.08261,0.169926 -0.612887,1.266411 -1.383592,2.432008 -2.28169,3.513698 -1.909437,2.299914 -4.215845,4.281112 -5.869859,6.789417 m -8.537958,13.652173 c -0.241056,-0.670404 -0.82838,-1.186098 -1.764084,-1.143405 -5.332395,0.242207 -10.674719,0.41023 -16.000986,0.761283 -2.594578,0.171194 -5.199719,0.28638 -7.790071,0.51337 -1.336056,0.1173 -2.669789,0.335202 -4.000141,0.508509 -0.912042,0.11899 -1.866972,0.257002 -2.741831,0.581213 0.169648,-1.87362 0.319226,-3.74872 0.449155,-5.626567 0.104155,-1.508619 0.135845,-3.030975 0.127817,-4.543398 -0.004,-0.76551 -0.03,-1.535459 -0.06697,-2.300759 0.07859,0.01585 0.157395,0.02367 0.234719,0.01416 0.136479,-0.01691 0.263873,-0.03297 0.382183,-0.06467 1.225986,0.479977 2.613591,0.585863 3.912042,0.678646 1.540141,0.109691 3.079859,0.226568 4.62,0.33647 3.276972,0.233965 6.584789,0.218747 9.868944,0.325902 6.465,0.210716 12.931267,0.333299 19.397535,0.506395 -0.3,1.287758 -0.310564,2.610176 0.169648,3.856932 -0.334437,-0.110959 -0.719578,-0.05939 -1.04831,0.265456 -1.862535,1.840649 -3.780634,3.615992 -5.749648,5.330466 m -18.81,13.692328 c -0.13162,-0.364156 -0.38007,-0.698724 -0.674155,-0.925503 -1.130704,-0.871608 -3.194789,-0.369863 -4.551972,-0.303499 -1.60669,0.07883 -3.213591,0.157456 -4.820281,0.236079 -0.487606,0.02367 -2.976338,0.150692 -4.804226,0.540422 0.377747,-2.85344 0.720423,-5.71153 1.026761,-8.574904 0.06423,-0.60108 0.123803,-1.202372 0.182746,-1.803663 0.861127,0.27708 1.797042,0.37874 2.685212,0.42101 1.330985,0.06341 2.668098,0.170771 4.000352,0.191694 2.66176,0.04185 5.338309,-0.08961 8.000493,-0.133996 4.794084,-0.07968 9.588802,-0.308571 14.380774,-0.49773 -4.811197,3.906811 -9.894929,7.471445 -15.197746,10.713981 -0.07563,0.04628 -0.152324,0.09025 -0.227958,0.136109 m -15.141972,1.693339 c 0.405,0.05389 0.80662,0.07144 1.113803,0.102716 1.542253,0.155554 3.060422,0.296736 4.610493,0.31935 1.536972,0.0224 3.073732,0.04481 4.610704,0.06742 0.326831,0.0044 0.653662,0.0095 0.980493,0.01416 -4.047042,2.211569 -8.21831,4.192344 -12.330634,6.27795 0.362324,-2.257222 0.700564,-4.517825 1.015141,-6.781598 M 88.164718,43.553039 c 9.223099,3.92076 21.053032,4.276462 28.979152,-2.236508 0.78761,0.215577 1.65867,0.287225 2.35416,0.35697 1.56253,0.157034 3.1107,0.301386 4.68084,0.350631 3.06022,0.09553 6.12317,0.238614 9.18465,0.276446 6.19331,0.07651 12.38704,0.112227 18.58056,0.167389 0.52712,0.0049 0.94881,-0.155765 1.26867,-0.413824 0.62725,1.063726 1.21077,2.154294 1.74338,3.272548 0.77683,1.63099 1.43514,3.316509 1.97577,5.039859 -0.11577,-0.02008 -0.2362,-0.03403 -0.36507,-0.03635 -8.13951,-0.140759 -16.28514,0.09342 -24.42613,0.127444 -8.14288,0.03403 -16.28471,-8.45e-4 -24.42739,0.05707 -2.25338,0.01627 -4.49007,0.0167 -6.73775,0.183875 -1.169785,0.08708 -2.353518,0.125119 -3.512109,0.314066 -0.129507,0.02092 -0.261338,0.03952 -0.394226,0.05812 -1.552605,-0.907749 -3.48,-0.718168 -5.254648,-0.751561 -2.037676,-0.03847 -4.07514,-0.07271 -6.112605,-0.102928 -4.004789,-0.05939 -8.01,-0.102716 -12.015211,-0.130191 -7.948944,-0.05453 -15.878451,0.148579 -23.822324,0.425659 -3.952395,0.137589 -7.889789,0.371554 -11.791268,0.980031 -0.261972,-0.339217 -0.521408,-0.680125 -0.786761,-1.016595 -2.764436,-3.505033 -6.041619,-7.992211 -10.590633,-9.07834 0.174507,-0.284478 0.351549,-0.567264 0.531338,-0.848149 3.15169,0.831452 6.628521,0.789393 9.848662,0.963546 3.71176,0.200571 7.415704,0.339217 11.131901,0.430521 7.386972,0.181549 14.772465,0.295467 22.160915,0.407694 2.050564,0.03128 4.101127,0.06404 6.151691,0.09828 1.105986,0.01839 2.212183,0.03973 3.31838,0.05664 0.617958,0.0095 1.170422,0.0078 1.759225,-0.197401 0.545282,-0.190004 1.076831,-0.475116 1.604155,-0.711194 0.184014,-0.08243 0.333592,-0.204375 0.455705,-0.348305 1.448028,0.865479 2.94845,1.64198 4.506971,2.304563 M 124.20465,30.515263 c 1.16007,0.322097 2.35732,0.375569 3.58373,0.468141 1.60986,0.121949 3.21592,0.14245 4.83,0.152806 2.57345,0.01649 5.14753,-0.0013 7.72014,-0.07228 1.10514,-0.03044 1.75078,-0.770372 1.94239,-1.617887 0.0266,0.02156 0.0541,0.04269 0.0807,0.06467 3.1312,2.580798 5.96831,5.532516 8.37253,8.799781 -5.79,0.01818 -11.58063,0.02198 -17.37063,0.06087 -3.06106,0.02071 -6.12443,0.146466 -9.18465,0.2253 -1.50126,0.03847 -2.98056,0.162951 -4.47549,0.304978 -0.0296,0.003 -0.0609,0.0055 -0.0911,0.0082 0.15846,-0.182818 0.31564,-0.368172 0.46923,-0.55881 1.7869,-2.215163 3.25669,-4.94454 4.1231,-7.835812 m 37.64514,116.28303 c 0.51084,-1.40611 0.31246,-2.9141 0.28352,-4.3927 -0.0296,-1.51708 -0.0459,-3.0333 -0.0509,-4.55059 -0.01,-2.96587 -0.03,-5.93154 -0.0627,-8.89742 -0.0663,-5.99981 -0.13564,-12.00427 -0.37162,-18.00028 -0.46648,-11.853798 -1.365,-23.678635 -2.83162,-35.452749 -0.71282,-5.724211 -1.59761,-11.435319 -2.79824,-17.078583 0.0169,-0.02261 0.0334,-0.04586 0.0503,-0.06869 1.19556,-1.598231 2.55528,-3.075569 3.72993,-4.684579 0.10415,-0.142873 0.14768,-0.325902 0.14662,-0.510834 0.0429,-0.02092 0.086,-0.0429 0.12972,-0.06784 0.97436,-0.555006 0.0944,-2.068063 -0.87972,-1.50566 0.11239,-0.06467 -1.50549,-4.218552 -1.67683,-4.636814 -0.61585,-1.502278 -1.30838,-2.971162 -2.08923,-4.394818 -0.47112,-0.858716 -0.97542,-1.699467 -1.50359,-2.52479 -0.0923,-0.616298 -0.42507,-1.187578 -0.99676,-1.49319 -1.0031,-1.437605 -2.08669,-2.819413 -3.24169,-4.135914 -4.72838,-5.389433 -10.63437,-9.740078 -17.08669,-12.839108 -0.93232,-0.44764 -1.89232,-0.820884 -2.84894,-1.211671 -1.01831,-0.416571 -1.96268,-0.96101 -2.9662,-1.398293 -1.63289,-0.711194 -3.24507,-0.670404 -4.84901,0.08264 -0.13712,0.06446 -0.0389,0.27539 0.10056,0.239038 1.03268,-0.269261 2.09049,-0.31449 3.1257,-0.02198 1.0143,0.286591 1.78543,0.919797 2.67148,1.448172 1.57817,0.941566 3.34247,1.555327 4.96014,2.434122 2.13909,1.162849 4.22958,2.439616 6.22923,3.841291 -2.0719,0.109691 -4.14528,0.188947 -6.2193,0.243899 -1.54035,0.041 -3.08007,0.04798 -4.61831,0.137589 -1.09479,0.06362 -2.23331,0.04565 -3.32746,0.222552 0.26387,-1.814443 0.26429,-3.645159 -0.0655,-5.412682 0,-6.34e-4 -2.2e-4,-0.0013 -2.2e-4,-0.0019 -0.0796,-0.425871 -0.17619,-0.848571 -0.29492,-1.266411 -0.25289,-0.88915 -1.0631,-1.022512 -1.65127,-0.686043 -0.0583,-0.0429 -0.11704,-0.08517 -0.17345,-0.131037 -0.70458,-0.572336 -1.33881,-1.257111 -1.89043,-1.976759 -1.1457,-1.495304 -2.07169,-3.226262 -2.77288,-4.970959 -0.71028,-1.766888 -1.21353,-3.6155695 -1.70641,-5.4524149 -0.24718,-0.9208533 -0.51465,-1.8368454 -0.76648,-2.7570646 -0.21887,-0.7999609 -0.37817,-1.6836165 -0.78021,-2.4125636 -0.0754,-0.1365323 -0.30233,-0.1107476 -0.33845,0.044383 -0.21296,0.9130333 -0.10035,1.9543562 -0.0613,2.8853542 0.0431,1.0332916 0.10247,2.0570725 0.24,3.0825441 0.285,2.1278748 0.74472,4.2196088 1.48141,6.2401178 0.70627,1.93766 1.63838,3.745761 2.90429,5.378231 0.84106,1.084438 2.03557,2.51993 3.41916,3.104736 0.18084,2.035726 0.16014,4.073565 -0.32049,6.089002 -0.62874,2.638074 -1.83275,5.145745 -3.48698,7.294121 -3.46859,4.50472 -8.83478,7.050012 -14.43317,7.574583 -5.792108,0.542537 -11.719432,-0.753252 -16.924009,-3.301714 -5.788944,-2.83463 -10.591268,-7.20789 -14.904718,-11.928188 -2.48662,-2.720924 -5.06493,-5.398098 -7.369437,-8.2769 -0.40838,-0.5102 -1.062042,-1.546028 -1.837394,-2.479139 0.789084,-0.0072 1.598873,-0.125331 2.297324,-0.214943 1.44507,-0.185566 2.857394,-0.472791 4.269507,-0.832086 2.640211,-0.671672 5.424296,-1.606263 7.731338,-3.084658 4.88176,-3.128618 6.787394,-7.0971433 7.43831,-12.564564 0.205774,-1.72842269 -2.781761,-2.14816438 -3.06,-0.4144579 -0.427395,2.6651272 -1.074085,3.9619726 -1.924437,6.5220587 -0.817817,2.4607522 -2.002394,3.3773782 -4.266549,4.7338242 -2.125564,1.273597 -4.541198,2.013323 -6.882888,2.777777 -1.297605,0.423546 -2.610633,0.809894 -3.919225,1.199202 -0.833028,0.247913 -1.821972,0.464125 -2.667042,0.84688 -0.440916,-0.386982 -0.900845,-0.678857 -1.363944,-0.789393 0.03401,-0.05728 -0.01014,-0.146255 -0.09549,-0.129347 -0.136056,0.02726 -0.27169,0.05728 -0.407746,0.08539 -0.136691,0.0097 -0.272747,0.03677 -0.408592,0.08581 -8.156197,1.766889 -15.988732,5.529558 -22.630563,10.655225 -0.33486,0.139703 -0.658733,0.311108 -0.966972,0.527742 -0.158662,0.111382 -0.263873,0.288282 -0.294085,0.471522 -0.99845,0.81539 -1.967324,1.661636 -2.90345,2.537472 -7.539296,7.054239 -12.316268,16.438192 -15.660423,26.090137 -3.294296,9.50886 -5.524225,19.480156 -6.750422,29.463711 -1.2500708,10.176516 -1.3941554,20.564381 0.418943,30.683411 0.973521,5.43339 2.549578,10.77295 4.875845,15.78449 2.089014,4.50091 5.489366,9.62827 10.830212,10.1763 0.01711,0.0171 0.03317,0.0351 0.05239,0.0511 2.095563,1.72631 5.215563,0.53408 7.406408,-0.49731 0.347324,-0.16359 0.691902,-0.33562 1.035,-0.51189 -0.181267,0.69809 -0.263028,1.42894 -0.300845,2.11393 -0.0788,1.42259 1.926338,1.50333 2.305986,0.32273 3.250352,0.5717 6.606761,0.57973 9.894296,0.56156 3.67331,-0.0203 7.345352,-0.14753 11.014437,-0.32041 7.279859,-0.34345 14.551056,-0.86844 21.835774,-1.10705 14.750282,-0.48315 29.540921,0.54929 44.279371,1.06922 4.1345,0.14604 8.26901,0.29166 12.40352,0.4377 4.22429,0.149 8.44436,0.17754 12.63464,0.74903 1.54078,0.21008 2.13106,-1.30044 1.69648,-2.24158 0.10838,-0.63215 4.3e-4,-1.32517 -0.0589,-2.06976 -0.1107,-1.39132 -0.21528,-2.78306 -0.31331,-4.17543 -0.19141,-2.71459 -0.37627,-5.43023 -0.55162,-8.14608 -0.35535,-5.50335 -0.66105,-11.01071 -0.95852,-16.51744 -0.59134,-10.94901 -1.04409,-21.906251 -1.37704,-32.866031 -0.0813,-2.671468 -0.1874,-5.343781 -0.32134,-8.013347 0.15951,-0.252986 0.31859,-0.506395 0.47239,-0.762763 0.51212,-0.854489 1.0143,-1.714474 1.53296,-2.565158 1.04049,-1.705175 2.08733,-3.399147 3.18127,-5.070717 0.94479,-1.443522 1.91937,-2.864853 2.93767,-4.256806 1.26423,10.680164 2.38796,21.371108 2.90388,32.119749 0.5681,11.838573 0.86958,23.695323 1.03352,35.545953 0.0458,3.3108 0.0767,6.62181 0.11197,9.93261 0.0184,1.7242 0.0368,3.44713 0.0226,5.17132 -0.0137,1.64875 -0.26282,3.45262 0.32197,5.01323 0.34098,0.91008 1.53338,0.92614 1.86993,0 z"
                 inkscape:connector-curvature="0"
                 style="fill:#000000" />
            </g>
            <g
               transform="translate(78.591549,38.043053)"
               id="head/Medium-2"
               style="fill-rule:evenodd">
              <path
                 id="path4932"
                 d="M 82.779964,35.416666 C 76.430288,26.67395 64.739072,24.159727 54.600406,26.286122 34.779422,29.900635 15.842479,45.028455 12.340234,65.602138 6.8762845,78.048768 10.365467,97.65341 26.256091,99.118067 c 2.262354,0.127656 4.503218,-0.393323 6.769575,-0.112015 13.832003,2.210298 30.177078,11.672028 42.421137,0.513792 0.61373,0.43982 1.422135,0.652436 2.110238,0.386349 5.211546,-2.014803 5.456364,-7.84321 5.900702,-12.63431 C 84.031654,81.081222 84.569958,74.887179 85.072025,68.6906 85.251319,58.004306 89.48549,44.65056 82.779964,35.416666 Z"
                 inkscape:connector-curvature="0"
                 style="fill:#ffffff" />
              <path
                 id="path4934"
                 d="m 44.351493,13.138908 c 8.34507,-0.443836 23.721338,3.379914 31.00162,7.862865 11.862042,7.304055 12.781478,21.874121 12.297676,24.393417 -0.183803,0.961432 -0.771127,1.851217 -1.690141,1.555538 0.779577,6.61928 0.71831,10.402661 0.849296,17.060196 l 0.08998,4.444767 c 0.05837,2.963272 0.108607,5.926826 0.121283,8.891225 0.3,-0.111804 0.595775,0.02536 0.705634,0.31301 0.02747,0.06974 -0.06761,0.107788 -0.114084,0.06763 -0.528169,-0.460955 -0.152113,0.589456 0.02958,0.803131 0.251409,0.293777 0.669718,0.570646 0.96338,0.822152 l 0.797536,0.690773 v 0 l 0.797535,0.689345 c 1.030281,0.889256 2.026834,1.780289 2.988029,2.738214 l 0.261267,0.26296 c 1.751408,1.779569 3.946478,3.501863 5.036619,5.803679 1.04155,2.197832 0.720423,4.689652 -1.009859,6.441746 -0.629577,0.636164 -1.364789,1.122481 -2.16338,1.490231 1.421831,2.341761 1.628873,5.438043 0.145774,7.847223 -1.485211,2.41806 -4.341549,3.68405 -7.092253,3.48961 -0.08451,0.3445 -0.215493,0.68055 -0.388733,0.99947 -1.090763,2.00525 -3.260366,2.26555 -5.317787,2.15824 l -0.0801,-0.004 c -4.630986,-0.26651 -9.08662,-1.42661 -13.142957,-3.68172 -1.407043,0.0951 -2.661972,-1.06119 -2.93662,-2.32929 -0.739437,-0.0273 -1.483099,-0.0888 -2.24155,-0.17542 -2.25,-0.25975 -4.557042,-0.74374 -6.540845,-1.88715 -0.304225,-0.17542 -0.162676,-0.63827 0.175352,-0.64694 2.416902,-0.055 4.835916,0.11223 7.248592,-0.14985 2.214084,-0.23903 4.573944,-0.84963 6.638028,-1.68023 3.709859,-1.496364 6.891549,-4.034681 8.647183,-7.551761 2.27324,-4.552486 2.066197,-10.019906 2.313381,-14.965503 0.273802,-5.474395 0.610922,-10.943655 0.971315,-16.412401 L 83.88713,59.858661 C 84.237156,54.74912 84.526855,52.0157 85.413464,46.71227 82.740929,46.951096 71.639066,42.953737 68.186703,36.415072 61.63421,50.325043 28.436475,44.632265 26.964168,66.046595 c -0.01248,0.181595 -0.3,0.131037 -0.310563,-0.04248 l -0.02739,-0.48804 c -0.01326,-0.241162 -0.02529,-0.478485 -0.03345,-0.713976 l -0.0068,-0.234955 -0.521831,0.0063 c 0,0.06531 -0.09296,0.08877 -0.116197,0.01902 -0.492254,-1.397237 -2.837324,-0.947061 -3.857747,-0.615029 -0.919014,0.299906 -1.785211,0.760649 -2.562676,1.329393 -1.561267,1.141292 -2.771831,2.677808 -3.173239,4.598771 -0.762676,3.648117 1.559155,7.363656 4.641549,9.124204 1.943662,1.109589 4.07324,1.826066 5.93662,3.0836 1.645774,1.109589 3.179577,2.409394 4.508451,3.886732 5.264788,5.85229 8.361971,14.729005 5.871126,22.453855 -0.190141,0.58967 -0.692957,1.26367 -1.35845,1.35899 -1.100705,0.15851 -2.201409,-0.002 -2.81831,-1.05041 -0.240845,-0.41002 -0.35493,-0.87711 -0.329578,-1.33785 -0.42676,1.46656 -1.810563,2.91663 -3.086619,3.46191 -1.738733,0.74396 -3.697184,0.52183 -5.230986,-0.4377 l -0.193777,0.14342 c -2.494358,1.83669 -5.280782,3.51072 -8.476646,3.17288 -2.315493,-0.24517 -4.588732,-1.4245 -5.8690139,-3.28439 -1.702817,0.95742 -3.521831,1.72018 -5.3978874,2.2401 l -0.199659,0.0549 c -2.5811233,0.70304 -5.8734823,1.34756 -8.2827353,-0.0802 -2.3133803,-1.37166 -3.0823944,-4.36649 -2.5394366,-6.86677 0.065493,-0.29779 0.1478873,-0.58734 0.2492957,-0.86844 -1.740845,0.0928 -3.4795774,-0.074 -5.1316905,-0.58544 -1.688028,-0.52224 -3.297887,-1.52616 -4.107042,-3.15334 -0.912676,-1.841079 -0.669718,-3.933236 0.01056,-5.807913 1.088028,-3.007726 2.837323,-5.683421 5.015492,-8.014403 2.0946331,-2.243512 4.6212702,-4.146887 7.2471516,-5.733487 l 0.4426763,-0.265007 c 2.36375486,-1.410368 5.2143329,-3.063078 8.0073557,-2.954304 -0.00845,-0.03593 -0.014789,-0.06996 -0.019014,-0.105675 C 4.8212113,75.227284 4.8698028,72.052802 4.770507,68.91425 4.679662,66.027205 4.5761408,63.14016 4.5085352,60.251002 4.3986761,55.33901 4.4345916,50.406305 5.0747324,45.52834 5.6430422,41.199886 6.6655775,36.97901 8.5310704,33.016192 10.489521,28.852802 13.438817,25.300004 17.08107,22.505953 24.724732,16.640982 34.821211,13.646149 44.351493,13.138908 Z M 18.388796,70.831113 c 0.832394,-1.570333 2.727465,-2.064892 4.390141,-1.781683 2.330281,0.397339 3.914788,2.434967 5.275352,4.187061 1.428169,1.836422 -1.550705,3.567381 -2.317606,1.788023 L 25.554977,74.604118 C 24.939523,73.192961 24.212483,71.70495 22.956401,70.784616 21.62119,69.808178 19.736683,69.66446 18.55781,70.96215 18.4733,71.05726 18.331754,70.93468 18.388796,70.831113 Z"
                 inkscape:connector-curvature="0"
                 style="fill:#000000" />
            </g>
            <g
               transform="translate(112.1831,77.354207)"
               id="face/Happy-Grin"
               style="fill:#000000;fill-rule:evenodd">
              <path
                 id="path4937"
                 d="m 19.721136,39.411861 c 3.621566,-0.43971 7.132032,0.669463 10.672434,1.228577 1.869283,0.295036 3.740886,0.515312 5.632515,0.597231 0.380518,0.01664 0.761248,0.02632 1.141977,0.03411 0.03542,-0.335258 0.223041,-0.643139 0.629489,-0.827615 0.833135,-0.377797 1.499938,-0.548163 2.414658,-0.511731 0.837351,0.03306 1.677654,0.119193 2.502145,0.270186 1.497198,0.274608 3.001141,0.897741 4.096317,1.980379 2.534611,2.505168 2.148822,6.529105 0.190365,9.257708 -4.046226,5.6383 -11.431153,5.899982 -17.756047,5.826425 l -0.583674,-0.0076 c -5.759003,-0.08234 -13.998438,0.776653 -16.614844,-5.778143 -0.962153,-2.410403 -0.828497,-5.204289 0.349529,-7.516136 1.405072,-2.757454 4.362785,-4.193671 7.325136,-4.553358 z m 17.989138,9.387852 -0.05165,0.0021 c -2.655196,0.102346 -5.309971,0.174367 -7.966642,0.221329 0.07948,0.682519 0.160639,1.365249 0.253397,2.046294 0.07273,0.535949 0.150732,1.071267 0.231895,1.605953 0.03436,0.226383 0.160429,0.577856 0.124802,0.802133 l -0.01286,0.08866 v 0 c 0.136397,0.0617 0.260144,0.161101 0.35227,0.305355 0.03204,0.04991 0.05523,0.10024 0.07842,0.15036 2.0626,0.01622 4.282255,-0.0238 6.384909,-0.398855 l 0.0042,-0.0457 v 0 c 0.03816,-0.268712 0.149888,-0.449608 0.298301,-0.573645 0.14778,-0.856887 0.134288,-1.770001 0.191419,-2.62015 0.03563,-0.528157 0.07421,-1.055893 0.11152,-1.58384 z m -10.047371,0.259656 c -1.913812,0.03257 -3.828457,0.05766 -5.741861,0.03428 l -0.868618,-0.01343 v 0 c 0.183407,0.984504 0.383048,1.965638 0.548958,2.956671 0.173078,1.032939 -0.735739,1.689556 -1.522284,1.663022 0.08833,0.01453 0.176451,0.02948 0.264782,0.04191 2.457453,0.347682 5.009139,0.255444 7.503063,0.252707 -0.134183,-0.783434 -0.07982,-1.667407 -0.09989,-2.321327 l -0.0038,-0.10129 c -0.03816,-0.837934 -0.06493,-1.675237 -0.08032,-2.512539 z M 14.663299,48.878684 c 0.06641,0.511942 0.195635,1.012933 0.388951,1.479388 0.816902,1.970693 2.689769,2.890336 4.671416,3.277609 -0.343837,-0.118772 -0.61684,-0.404121 -0.685776,-0.892898 -0.171813,-1.21531 -0.233581,-2.450836 -0.238219,-3.684888 -1.38104,-0.01285 -2.771355,-0.04233 -4.136372,-0.179211 z m 30.248997,-0.420757 c -0.983234,0.232069 -2.125844,0.125722 -3.090526,0.169524 -0.903758,0.04106 -1.807937,0.07686 -2.711694,0.113507 0.04258,0.617237 0.08411,1.234263 0.129229,1.851079 0.05818,0.79729 0.06367,1.639857 0.216294,2.433778 1.818899,-0.621027 3.448698,-1.616903 4.671416,-3.209378 0.304626,-0.39675 0.577419,-0.862362 0.785281,-1.35851 z M 19.305623,42.645246 c -1.636756,0.387695 -3.185814,1.206676 -4.018316,2.705017 -0.494147,0.889108 -0.711496,1.942895 -0.669754,2.98131 1.383358,-0.1611 2.790538,-0.222171 4.190972,-0.272713 0.0046,-0.252285 0.01059,-0.50429 0.01816,-0.755765 l 0.02158,-0.644535 c 0.03817,-1.229302 0.05735,-2.773002 0.457361,-4.013314 z m 8.471751,0.14994 -0.720521,-0.08096 c -2.001309,-0.228115 -4.001543,-0.46758 -6.002954,-0.330321 -0.289657,0.02001 -0.583742,0.05159 -0.878459,0.09477 0.353745,1.277013 0.32402,2.776828 0.4718,4.040995 0.05713,0.488777 0.129229,0.973553 0.209127,1.456434 l 0.34721,-0.01621 v 0 c 2.147557,-0.116456 4.297222,-0.188057 6.446466,-0.273345 -1.58e-4,-0.403699 0.0021,-0.807636 0.0085,-1.21172 l 0.0079,-0.40413 c 0.02445,-1.032097 -0.04216,-2.19476 0.110887,-3.275503 z m 10.049902,-0.163838 c -2.096119,0.338416 -4.262438,0.410438 -6.321454,0.412965 -0.822384,0.0011 -1.644345,-0.04949 -2.465886,-0.122352 0.05355,0.437604 0.08137,0.880262 0.12164,1.311759 0.08112,0.872007 0.173845,1.742667 0.274611,2.612518 l 0.08988,0.761119 v 0 c 2.641704,-0.119825 5.283198,-0.249337 7.924269,-0.383482 l 0.372718,-0.02001 v 0 l 0.10447,-1.462744 c 0.07111,-0.975387 0.14935,-1.950555 0.259816,-2.921511 l -0.08285,-0.0299 v 0 C 38.0071,42.7497 37.914758,42.69452 37.827271,42.631347 Z m 0.910292,0.363055 c 0.115526,1.379148 0.179403,2.763982 0.26436,4.145447 l 1.741101,-0.09305 c 0.290158,-0.01582 0.580307,-0.03197 0.870457,-0.04868 1.128274,-0.06507 2.578038,-0.406858 3.693453,-0.08803 0.08517,-1.014408 -0.2047,-2.002702 -1.119842,-2.684169 -1.606609,-1.196988 -3.652344,-0.770756 -5.449529,-1.231525 z M 32.788922,30.665596 c 2.592677,-1.48537 9.097817,-3.003499 9.509789,1.664172 0.189463,2.147945 -1.406786,3.927682 -3.270753,4.721837 l -0.07002,0.02932 c -1.74824,0.719014 -4.846902,1.531021 -6.359789,-0.02811 -1.259155,-1.297691 0.410915,-3.624446 1.975563,-2.561354 0.804089,0.546134 2.496591,0.143729 3.393826,-0.116134 l 0.05617,-0.01638 c 0.96824,-0.284688 2.259085,-1.19582 1.858733,-2.388469 -0.354296,-1.055061 -1.861902,-1.247812 -2.806057,-1.282051 -1.409366,-0.05051 -2.780915,0.276869 -4.177394,0.383389 -0.221197,0.01691 -0.289437,-0.303499 -0.110071,-0.406215 z m 10.739789,-7.50562 c 3.518873,-0.164853 5.707817,3.678764 4.898662,6.828094 -0.139859,0.543382 -0.747464,1.07683 -1.333943,1.01575 l -0.147773,-0.0136 c -0.07507,-0.0072 -0.150495,-0.0167 -0.219833,-0.03585 -0.556902,-0.154286 -1.056127,-0.733808 -1.015563,-1.334466 l 0.01077,-0.175022 c 0.0821,-1.487723 -0.07906,-3.201783 -1.84648,-3.562074 -1.498943,-0.305612 -2.335774,1.137699 -2.353521,2.466247 -0.0034,0.235867 -0.26831,0.400509 -0.476831,0.273699 -1.083591,-0.659625 -1.271197,-1.971899 -0.857324,-3.101989 0.524578,-1.431898 1.837395,-2.290403 3.341831,-2.360783 z m -26.11331,0.824351 c 2.560775,-0.8547 5.323521,0.510834 6.563451,2.775664 0.435,0.125964 0.869366,0.461377 0.808944,0.974958 -0.08725,0.738881 -0.218662,1.204697 -0.730775,1.764987 -0.801002,0.876491 -2.301189,0.428342 -2.634118,-0.650627 l -0.01412,-0.04873 c -0.378169,-1.394701 -1.912817,-2.31492 -3.310775,-1.826701 -1.633099,0.570223 -1.585775,2.295687 -2.731268,3.300869 -0.134577,0.118145 -0.295985,0.136955 -0.457394,0.05897 -1.21669,-0.588188 -0.998028,-2.358458 -0.564296,-3.371671 0.568944,-1.329605 1.674719,-2.51211 3.070352,-2.977715 z m -3.4875,-7.779234 c 2.075071,-2.118152 7.486057,-4.167827 8.905564,-0.256367 0.270422,0.745009 -0.305282,1.749557 -1.080634,1.904054 -1.269718,0.252775 -2.396197,-0.298638 -3.657465,-0.199726 -1.021056,0.08052 -2.086056,0.421856 -2.902394,1.054638 -2.260986,1.752517 -2.75831,4.716705 -4.333733,6.947296 -0.07669,0.108634 -0.225633,0.06298 -0.239788,-0.0651 -0.358733,-3.247397 1.035633,-7.065018 3.30845,-9.384799 z m 27.062367,-2.08516 c 1.377042,-0.486529 2.936408,-0.444893 4.320633,-0.01332 1.394367,0.434959 2.674437,1.260916 3.660634,2.34007 0.447465,0.48991 0.861549,1.030544 1.193662,1.606051 0.176409,0.304978 0.361902,0.935014 0.562395,1.31016 1.084751,0.626528 1.548399,2.05422 0.577229,3.069919 l -0.04378,0.04454 -0.129929,0.128924 c -0.522043,0.516963 -1.309226,0.740994 -2.021831,0.534505 -1.594648,-0.461589 -1.788381,-1.718067 -2.340423,-3.051687 -0.364648,-0.880908 -0.989366,-1.660368 -1.74676,-2.232916 -1.790071,-1.352642 -4.725212,-1.783585 -6.880352,-1.146153 -0.114719,0.03403 -0.249508,-0.112226 -0.167747,-0.218324 0.40838,-0.529221 0.643732,-0.963546 1.190493,-1.390474 0.555,-0.433268 1.160704,-0.746278 1.825775,-0.981299 z"
                 inkscape:connector-curvature="0" />
            </g>
            <g
               transform="translate(104.57745,109.47938)"
               id="facial-hair/*-None-9" />
            <g
               transform="translate(88.521127,88.978474)"
               id="accessories/Sunglasses"
               style="fill:#000000;fill-rule:evenodd">
              <path
                 id="path4941"
                 d="m 71.368049,3.1702544 c 4.958887,0 7.788756,1.0668174 8.825753,1.1499202 l 0.03118,0.00223 c 0.431324,0.027589 0.818246,0.063667 1.224198,0.2207112 1.492719,0.5751224 1.735867,2.1413227 0.864762,3.1283685 -0.0611,2.0424272 0.207416,4.4288657 -0.253297,6.4778727 -0.568333,8.638083 -4.629119,10.095838 -6.937335,10.627879 -1.158866,0.267189 -2.532336,0.373512 -3.7633,0.09147 -2.099955,-0.07831 -4.176018,-0.735988 -5.952268,-1.88114 -2.473769,-1.596122 -4.311124,-4.049413 -4.907365,-6.960889 -0.282589,-1.387812 -0.414657,-2.832328 -0.26087,-4.24299 l 0.0228,-0.194366 c -0.804081,-0.384759 -1.735867,-0.457551 -2.696408,-0.491506 -0.45881,-0.01634 -0.911066,-0.03098 -1.350424,-0.01146 -0.429421,0.04796 -0.853768,0.111841 -1.279383,0.198852 -0.46473,0.140279 -0.903665,0.371813 -1.308983,0.738533 l -0.02791,0.535225 c -0.07612,1.337 -0.251605,2.678033 -0.52224,3.989779 -0.399609,1.935467 -1.042366,3.783923 -2.410339,5.156789 -0.463038,0.691844 -1.036022,1.309411 -1.731638,1.844211 -2.526838,1.946291 -5.959879,2.660843 -9.110657,2.391745 -6.396489,-0.546048 -10.093822,-5.6258 -10.945898,-7.797046 l -0.0509,-0.131544 c -0.615525,-1.614182 -1.106063,-3.708568 -3.051032,-4.055387 l -0.413667,-0.07435 C 24.47528,13.7165 23.65631,13.484471 23.135903,12.61818 22.907766,12.24 22.790421,11.817041 22.761666,11.385805 c -0.303618,0.02335 -0.606814,0.04563 -0.908952,0.06727 -2.410233,0.509918 -16.8667506,0.942267 -18.0206646,0.942267 0,0 -2.2181003,0.933953 -3.15458363,0.210313 C 0.02836578,12.102478 -0.18518177,11.431855 0.17214037,10.6721 0.71128711,9.5289823 3.1986483,8.8413898 4.303132,8.6236728 c 0,0 17.823526,0.1480909 19.106365,-0.09523 0.79372,-0.8187536 2.213495,-0.7067002 3.399846,-0.8361558 0.982108,-0.7005457 2.356001,-1.1697692 3.441287,-1.4838581 0.22116,-0.083828 0.440204,-0.1648967 0.653118,-0.2412968 1.989586,-0.7088223 4.057615,-1.0842435 6.157147,-1.2858547 2.165076,-0.2058556 4.336495,-0.11269 6.488885,0.1822989 0.907049,0.123089 1.80564,0.2822556 2.697888,0.4904457 1.597642,0.2106969 3.185993,0.5577425 4.784216,0.9694418 l 0.319782,0.083181 c 1.683009,0.4414223 3.412532,0.8232102 5.154742,0.5239768 1.418365,-0.2420218 2.782358,-0.7880963 4.090121,-1.3785929 l 0.170258,-0.077252 C 63.642279,4.1613324 68.132909,3.1702544 71.368049,3.1702544 Z M 46.074716,7.9726322 c -1.060972,-0.2334445 -1.514074,1.4030015 -0.449719,1.6370827 0.753694,0.1657675 1.392477,0.5459921 1.82405,1.1901471 l 0.04544,0.07003 c 0.579115,0.921893 2.043502,0.07088 1.460369,-0.856954 C 48.298782,8.9688036 47.279251,8.2374856 46.074716,7.9726322 Z M 77.149268,6.9579975 c -0.374026,-0.26358 -0.940032,-0.067911 -1.157174,0.304539 -0.238988,0.4101367 -0.08235,0.8667812 0.26795,1.1350863 l 0.03567,0.026194 c 0.321311,0.2265515 0.634243,0.6326492 0.673541,1.0487451 l 0.0035,0.052052 c 0.04207,1.0889121 1.733752,1.0944301 1.691466,0 -0.04123,-1.0706613 -0.66094,-1.9651782 -1.514919,-2.5666162 z"
                 inkscape:connector-curvature="0" />
            </g>
          </g>
        </g>
      </g>
    </g>
  </g>
</svg>
